<svg version="1.1" id="Layer_1" xmlns="http://www.w3.org/2000/svg" xmlns:xlink="http://www.w3.org/1999/xlink" x="0px" y="0px"
	 width="100%" viewBox="0 0 1014 916" enable-background="new 0 0 1014 916" xml:space="preserve">
<path fill="#FFFFFF" opacity="1.000000" stroke="none" 
	d="
M683.000000,917.000000 
	C455.333344,917.000000 228.166672,917.000000 1.000000,917.000000 
	C1.000000,611.666687 1.000000,306.333344 1.000000,1.000000 
	C339.000000,1.000000 677.000000,1.000000 1015.000000,1.000000 
	C1015.000000,306.333344 1015.000000,611.666687 1015.000000,917.000000 
	C904.500000,917.000000 794.000000,917.000000 683.000000,917.000000 
M597.463623,241.468048 
	C596.322449,243.999542 595.181274,246.531021 594.050171,249.040070 
	C593.275452,248.731079 592.925842,248.669754 592.673035,248.479721 
	C564.458252,227.265213 536.228149,206.070786 508.116364,184.720535 
	C506.854401,183.762100 506.111603,181.397842 506.075134,179.668396 
	C505.878418,170.342072 505.981323,161.009415 505.981049,151.678955 
	C505.980865,146.898621 505.981018,142.118286 505.981018,136.695511 
	C503.625488,137.052856 502.038605,137.247864 500.469574,137.539078 
	C490.505890,139.388489 478.310577,134.361328 473.083893,125.767105 
	C467.407043,116.432724 468.321289,106.982582 473.914459,97.951447 
	C478.996185,89.746094 490.449615,84.557686 499.382660,86.574203 
	C509.853149,88.937775 517.431519,94.698868 520.184204,105.719208 
	C520.581482,107.309898 522.194153,109.721886 523.377319,109.802460 
	C529.465027,110.217072 535.596069,109.994667 541.906677,109.994667 
	C542.022766,108.464607 542.197876,107.508514 542.152039,106.563126 
	C541.111206,85.075768 519.475098,64.841431 496.566162,63.906384 
	C473.411987,62.961323 451.143341,80.538879 447.133972,102.925209 
	C442.865875,126.756035 456.851257,149.927032 479.996674,157.133224 
	C482.927368,158.045654 484.401642,159.201385 484.165161,162.583313 
	C483.828979,167.391769 483.764587,172.267624 484.172028,177.064743 
	C484.514374,181.095154 482.826019,183.404846 479.777802,185.657639 
	C461.970154,198.818237 444.275726,212.132095 426.545807,225.397858 
	C418.206268,231.637619 409.872742,237.885468 400.760956,244.710526 
	C399.041840,239.184494 397.578522,234.480774 396.248718,228.920441 
	C396.581604,225.023224 393.742523,225.853821 391.570953,225.847641 
	C363.862091,225.768753 336.152771,225.633774 308.444611,225.752563 
	C304.765839,225.768326 301.092743,227.106506 296.718140,227.784637 
	C291.064728,231.213120 284.834686,233.963486 279.861481,238.191956 
	C261.966919,253.406891 244.505539,269.130951 226.863770,284.643646 
	C194.709747,312.917236 162.527527,341.158783 130.388550,369.449432 
	C109.254089,388.053253 87.851768,406.370056 67.175179,425.471130 
	C51.241810,440.190369 52.363659,461.374939 68.737823,475.688019 
	C91.692871,495.753601 114.589729,515.885864 137.578598,535.912537 
	C152.649963,549.041870 167.553177,562.388367 183.065353,574.980164 
	C196.009033,585.486877 217.675491,585.355469 230.580124,574.946411 
	C244.057907,564.075012 256.971130,552.504150 270.151459,541.262756 
	C271.042877,540.502502 272.104370,539.941528 273.656586,538.908691 
	C273.656586,541.732117 273.656555,543.710144 273.656586,545.688232 
	C273.657379,637.350952 273.655762,729.013672 273.670074,820.676392 
	C273.670532,823.506653 273.779816,826.339905 273.935211,829.166504 
	C274.325745,836.268616 277.226654,842.296082 281.912933,847.548462 
	C291.234558,857.996216 303.052673,861.506958 316.809448,861.487854 
	C437.304016,861.320557 557.798889,861.396057 678.293701,861.382751 
	C682.291199,861.382324 686.449646,861.869568 690.249695,860.953613 
	C696.458984,859.456970 702.987305,857.929504 708.396362,854.743408 
	C720.391296,847.677856 725.460876,836.651611 725.428223,822.515259 
	C725.215515,730.353088 725.318665,638.190125 725.318542,546.027466 
	C725.318542,544.131958 725.318604,542.236511 725.318604,539.209595 
	C734.253662,546.923950 742.107178,553.848267 750.122009,560.580627 
	C756.998657,566.356934 763.492920,572.883057 771.157288,577.366089 
	C787.181396,586.738892 805.223572,584.014404 820.500671,570.738770 
	C857.095581,538.938049 893.593872,507.025574 930.023926,475.036041 
	C939.940613,466.328064 943.783203,455.291260 940.981628,442.193207 
	C939.059753,433.208130 933.140015,427.026367 926.513977,421.241577 
	C905.805664,403.162384 885.157898,385.013580 864.520508,366.853271 
	C815.864990,324.037872 767.266479,281.157501 718.514526,238.452271 
	C714.593750,235.017792 709.671814,232.726303 704.724915,229.351288 
	C698.405029,228.175842 692.098206,226.075623 685.762939,225.985718 
	C658.938782,225.605026 632.106140,225.819016 605.276611,225.829346 
	C603.965637,225.829849 602.654602,225.959610 600.950378,226.050049 
	C600.588074,229.112640 600.240295,232.052795 599.705933,235.215881 
	C599.705933,235.215881 599.828369,235.479568 599.315674,236.030930 
	C598.864258,237.682388 598.412842,239.333847 597.463623,241.468048 
z"/>
<path fill="#306ECB" opacity="1.000000" stroke="none" 
	d="
M599.828369,235.479568 
	C599.828369,235.479568 599.705933,235.215881 600.118530,234.897064 
	C601.263489,232.264709 601.995789,229.951172 602.760742,227.534424 
	C602.923401,227.452576 603.207520,227.195236 603.504700,227.179108 
	C605.160828,227.089294 606.824829,226.950211 608.477661,227.022476 
	C640.710205,228.431931 673.122131,223.841095 705.215088,229.903656 
	C709.671814,232.726303 714.593750,235.017792 718.514526,238.452271 
	C767.266479,281.157501 815.864990,324.037872 864.520508,366.853271 
	C885.157898,385.013580 905.805664,403.162384 926.513977,421.241577 
	C933.140015,427.026367 939.059753,433.208130 940.981628,442.193207 
	C943.783203,455.291260 939.940613,466.328064 930.023926,475.036041 
	C893.593872,507.025574 857.095581,538.938049 820.500671,570.738770 
	C805.223572,584.014404 787.181396,586.738892 771.157288,577.366089 
	C763.492920,572.883057 756.998657,566.356934 750.122009,560.580627 
	C742.107178,553.848267 734.253662,546.923950 725.318604,539.209595 
	C725.318604,542.236511 725.318542,544.131958 725.318542,546.027466 
	C725.318665,638.190125 725.215515,730.353088 725.428223,822.515259 
	C725.460876,836.651611 720.391296,847.677856 708.396362,854.743408 
	C702.987305,857.929504 696.458984,859.456970 690.249695,860.953613 
	C686.449646,861.869568 682.291199,861.382324 678.293701,861.382751 
	C557.798889,861.396057 437.304016,861.320557 316.809448,861.487854 
	C303.052673,861.506958 291.234558,857.996216 281.912933,847.548462 
	C277.226654,842.296082 274.325745,836.268616 273.935211,829.166504 
	C273.779816,826.339905 273.670532,823.506653 273.670074,820.676392 
	C273.655762,729.013672 273.657379,637.350952 273.656586,545.688232 
	C273.656555,543.710144 273.656586,541.732117 273.656586,538.908691 
	C272.104370,539.941528 271.042877,540.502502 270.151459,541.262756 
	C256.971130,552.504150 244.057907,564.075012 230.580124,574.946411 
	C217.675491,585.355469 196.009033,585.486877 183.065353,574.980164 
	C167.553177,562.388367 152.649963,549.041870 137.578598,535.912537 
	C114.589729,515.885864 91.692871,495.753601 68.737823,475.688019 
	C52.363659,461.374939 51.241810,440.190369 67.175179,425.471130 
	C87.851768,406.370056 109.254089,388.053253 130.388550,369.449432 
	C162.527527,341.158783 194.709747,312.917236 226.863770,284.643646 
	C244.505539,269.130951 261.966919,253.406891 279.861481,238.191956 
	C284.834686,233.963486 291.064728,231.213120 297.547607,227.850708 
	C306.147583,227.613861 313.916840,227.091919 321.688721,227.049759 
	C343.628571,226.930725 365.569489,227.024826 387.509918,226.990829 
	C390.718597,226.985870 393.984528,226.560989 396.115204,229.777069 
	C397.578522,234.480774 399.041840,239.184494 400.760956,244.710526 
	C409.872742,237.885468 418.206268,231.637619 426.545807,225.397858 
	C444.275726,212.132095 461.970154,198.818237 479.777802,185.657639 
	C482.826019,183.404846 484.514374,181.095154 484.172028,177.064743 
	C483.764587,172.267624 483.828979,167.391769 484.165161,162.583313 
	C484.401642,159.201385 482.927368,158.045654 479.996674,157.133224 
	C456.851257,149.927032 442.865875,126.756035 447.133972,102.925209 
	C451.143341,80.538879 473.411987,62.961323 496.566162,63.906384 
	C519.475098,64.841431 541.111206,85.075768 542.152039,106.563126 
	C542.197876,107.508514 542.022766,108.464607 541.906677,109.994667 
	C535.596069,109.994667 529.465027,110.217072 523.377319,109.802460 
	C522.194153,109.721886 520.581482,107.309898 520.184204,105.719208 
	C517.431519,94.698868 509.853149,88.937775 499.382660,86.574203 
	C490.449615,84.557686 478.996185,89.746094 473.914459,97.951447 
	C468.321289,106.982582 467.407043,116.432724 473.083893,125.767105 
	C478.310577,134.361328 490.505890,139.388489 500.469574,137.539078 
	C502.038605,137.247864 503.625488,137.052856 505.981018,136.695511 
	C505.981018,142.118286 505.980865,146.898621 505.981049,151.678955 
	C505.981323,161.009415 505.878418,170.342072 506.075134,179.668396 
	C506.111603,181.397842 506.854401,183.762100 508.116364,184.720535 
	C536.228149,206.070786 564.458252,227.265213 592.673035,248.479721 
	C592.925842,248.669754 593.275452,248.731079 594.050171,249.040070 
	C595.181274,246.531021 596.322449,243.999542 598.057739,241.057007 
	C599.044006,238.923843 599.436218,237.201706 599.828369,235.479568 
M336.916290,392.500000 
	C336.916290,428.763916 336.916290,465.027832 336.916290,501.850952 
	C339.190399,501.850952 340.978394,501.850983 342.766388,501.850983 
	C363.585754,501.851013 384.405090,501.851166 405.224457,501.850952 
	C426.876587,501.850708 448.528748,501.826233 470.180756,501.877319 
	C473.172791,501.884369 475.235992,501.637085 475.227112,497.690063 
	C475.128693,453.886383 475.145752,410.082367 475.206726,366.278534 
	C475.210876,363.288605 474.177979,362.121002 471.157715,362.124573 
	C427.853546,362.175568 384.549225,362.176025 341.245056,362.129913 
	C338.094147,362.126556 336.789124,363.206604 336.858551,366.518005 
	C337.033020,374.842072 336.916260,383.172272 336.916290,392.500000 
M601.002686,678.660950 
	C616.889526,674.362976 630.474243,666.149780 640.799805,653.388550 
	C667.720581,620.117554 662.065796,572.130798 631.104492,546.236511 
	C602.747070,522.519958 561.132874,521.128479 532.796814,544.894775 
	C495.411835,576.250732 494.488678,635.319641 536.140381,666.173889 
	C555.426941,680.460876 577.095703,683.418884 601.002686,678.660950 
M545.750916,414.206940 
	C530.529053,441.142212 515.298889,468.072845 500.091675,495.016357 
	C496.627747,501.153564 497.063812,501.851624 504.180817,501.852051 
	C556.475464,501.855011 608.770081,501.864899 661.064636,501.808075 
	C662.943787,501.806030 664.822205,501.132965 666.700928,500.772705 
	C666.084412,498.807007 665.820557,496.632874 664.799866,494.906128 
	C637.883667,449.369598 610.893066,403.877075 583.891174,358.391296 
	C583.021423,356.926117 581.900024,355.610352 580.232544,353.309631 
	C568.490051,374.024933 557.287048,393.788452 545.750916,414.206940 
M548.401306,242.108185 
	C530.604370,228.744812 512.807373,215.381439 495.014374,202.021027 
	C468.183990,222.290268 441.758789,242.253433 415.318787,262.227783 
	C444.348114,295.199493 533.944153,305.057892 578.853577,265.105682 
	C568.834351,257.551117 558.894104,250.056122 548.401306,242.108185 
M377.195801,596.301880 
	C380.688629,599.389648 384.181488,602.477417 387.916687,605.779419 
	C369.966583,624.134033 352.899017,641.586243 335.873444,658.995544 
	C341.624115,664.553345 347.070496,669.817078 353.294708,675.832520 
	C370.323608,658.716187 387.736847,641.213562 404.721497,624.141785 
	C423.084229,641.612976 441.117676,658.770874 459.245361,676.018433 
	C462.453125,672.949036 466.297699,669.268127 470.144653,665.589661 
	C475.663849,660.312073 475.670288,660.307129 470.078827,654.761292 
	C454.004181,638.817932 437.924469,622.879700 421.039551,606.139099 
	C423.239655,604.388611 425.099152,603.196533 426.610870,601.661926 
	C442.039856,585.998901 457.357483,570.225708 472.859863,554.636047 
	C475.174164,552.308655 475.429840,550.842712 472.996918,548.608521 
	C469.564697,545.456482 466.211517,542.190857 463.096405,538.729126 
	C460.185760,535.494629 457.898438,535.575073 454.886841,538.735168 
	C444.890442,549.224304 434.742523,559.571106 424.543610,569.864502 
	C418.127960,576.339600 411.517334,582.621521 404.775848,589.203369 
	C403.498199,587.992371 402.162476,586.783997 400.890472,585.511902 
	C385.814667,570.435059 370.639099,555.455200 355.763885,540.182739 
	C352.451050,536.781494 350.339813,536.863281 347.365112,540.185120 
	C344.929993,542.904419 342.103790,545.281494 339.384583,547.736755 
	C334.637329,552.023010 334.576752,552.777954 338.942474,557.236877 
	C351.527344,570.090454 364.114319,582.942078 377.195801,596.301880 
z"/>
<path fill="#436FB1" opacity="1.000000" stroke="none" 
	d="
M704.969971,229.627472 
	C673.122131,223.841095 640.710205,228.431931 608.477661,227.022476 
	C606.824829,226.950211 605.160828,227.089294 603.504700,227.179108 
	C603.207520,227.195236 602.923401,227.452576 602.760742,227.534424 
	C601.995789,229.951172 601.263489,232.264709 600.211853,234.785583 
	C600.240295,232.052795 600.588074,229.112640 600.950378,226.050049 
	C602.654602,225.959610 603.965637,225.829849 605.276611,225.829346 
	C632.106140,225.819016 658.938782,225.605026 685.762939,225.985718 
	C692.098206,226.075623 698.405029,228.175842 704.969971,229.627472 
z"/>
<path fill="#3F6CAF" opacity="1.000000" stroke="none" 
	d="
M396.181946,229.348755 
	C393.984528,226.560989 390.718597,226.985870 387.509918,226.990829 
	C365.569489,227.024826 343.628571,226.930725 321.688721,227.049759 
	C313.916840,227.091919 306.147583,227.613861 297.897064,227.874512 
	C301.092743,227.106506 304.765839,225.768326 308.444611,225.752563 
	C336.152771,225.633774 363.862091,225.768753 391.570953,225.847641 
	C393.742523,225.853821 396.581604,225.023224 396.181946,229.348755 
z"/>
<path fill="#436FB1" opacity="1.000000" stroke="none" 
	d="
M599.572021,235.755249 
	C599.436218,237.201706 599.044006,238.923843 598.306580,240.815643 
	C598.412842,239.333847 598.864258,237.682388 599.572021,235.755249 
z"/>
<path fill="#FBFDFF" opacity="1.000000" stroke="none" 
	d="
M336.916260,392.000000 
	C336.916260,383.172272 337.033020,374.842072 336.858551,366.518005 
	C336.789124,363.206604 338.094147,362.126556 341.245056,362.129913 
	C384.549225,362.176025 427.853546,362.175568 471.157715,362.124573 
	C474.177979,362.121002 475.210876,363.288605 475.206726,366.278534 
	C475.145752,410.082367 475.128693,453.886383 475.227112,497.690063 
	C475.235992,501.637085 473.172791,501.884369 470.180756,501.877319 
	C448.528748,501.826233 426.876587,501.850708 405.224457,501.850952 
	C384.405090,501.851166 363.585754,501.851013 342.766388,501.850983 
	C340.978394,501.850983 339.190399,501.850952 336.916290,501.850952 
	C336.916290,465.027832 336.916290,428.763916 336.916260,392.000000 
M411.500000,383.987915 
	C394.056732,383.987915 376.613434,383.987915 359.072449,383.987915 
	C359.072449,416.265839 359.072449,447.961212 359.072449,479.649292 
	C390.663849,479.649292 421.885864,479.649292 453.133606,479.649292 
	C453.133606,447.693451 453.133606,416.104706 453.133606,383.987915 
	C439.408051,383.987915 425.954041,383.987915 411.500000,383.987915 
z"/>
<path fill="#FBFDFE" opacity="1.000000" stroke="none" 
	d="
M600.593872,678.752197 
	C577.095703,683.418884 555.426941,680.460876 536.140381,666.173889 
	C494.488678,635.319641 495.411835,576.250732 532.796814,544.894775 
	C561.132874,521.128479 602.747070,522.519958 631.104492,546.236511 
	C662.065796,572.130798 667.720581,620.117554 640.799805,653.388550 
	C630.474243,666.149780 616.889526,674.362976 600.593872,678.752197 
M532.475281,583.139648 
	C531.225708,590.790527 529.262634,598.403870 528.857666,606.099182 
	C527.542847,631.083740 548.441956,650.315735 565.674866,655.465942 
	C586.103088,661.571167 604.797241,656.108704 619.537415,641.526855 
	C633.957336,627.261902 637.559265,608.829468 632.194275,589.259338 
	C626.676025,569.130127 606.682068,553.057617 585.968811,551.211060 
	C564.596863,549.305847 542.683899,562.186707 532.475281,583.139648 
z"/>
<path fill="#FBFDFE" opacity="1.000000" stroke="none" 
	d="
M545.917480,413.879456 
	C557.287048,393.788452 568.490051,374.024933 580.232544,353.309631 
	C581.900024,355.610352 583.021423,356.926117 583.891174,358.391296 
	C610.893066,403.877075 637.883667,449.369598 664.799866,494.906128 
	C665.820557,496.632874 666.084412,498.807007 666.700928,500.772705 
	C664.822205,501.132965 662.943787,501.806030 661.064636,501.808075 
	C608.770081,501.864899 556.475464,501.855011 504.180817,501.852051 
	C497.063812,501.851624 496.627747,501.153564 500.091675,495.016357 
	C515.298889,468.072845 530.529053,441.142212 545.917480,413.879456 
M534.252502,477.156189 
	C533.913391,477.993835 533.574219,478.831451 533.193542,479.771698 
	C565.605835,479.771698 597.612488,479.771698 630.231689,479.771698 
	C629.358826,478.411011 628.777527,477.504883 628.057556,475.929688 
	C612.560974,449.154510 597.064453,422.379303 581.080811,394.762512 
	C574.389160,406.534088 568.228638,417.299835 562.136902,428.104309 
	C553.013306,444.286133 543.937988,460.495148 534.252502,477.156189 
z"/>
<path fill="#FDFEFF" opacity="1.000000" stroke="none" 
	d="
M548.677612,242.334656 
	C558.894104,250.056122 568.834351,257.551117 578.853577,265.105682 
	C533.944153,305.057892 444.348114,295.199493 415.318787,262.227783 
	C441.758789,242.253433 468.183990,222.290268 495.014374,202.021027 
	C512.807373,215.381439 530.604370,228.744812 548.677612,242.334656 
z"/>
<path fill="#FBFDFE" opacity="1.000000" stroke="none" 
	d="
M376.948120,596.048218 
	C364.114319,582.942078 351.527344,570.090454 338.942474,557.236877 
	C334.576752,552.777954 334.637329,552.023010 339.384583,547.736755 
	C342.103790,545.281494 344.929993,542.904419 347.365112,540.185120 
	C350.339813,536.863281 352.451050,536.781494 355.763885,540.182739 
	C370.639099,555.455200 385.814667,570.435059 400.890472,585.511902 
	C402.162476,586.783997 403.498199,587.992371 404.775848,589.203369 
	C411.517334,582.621521 418.127960,576.339600 424.543610,569.864502 
	C434.742523,559.571106 444.890442,549.224304 454.886841,538.735168 
	C457.898438,535.575073 460.185760,535.494629 463.096405,538.729126 
	C466.211517,542.190857 469.564697,545.456482 472.996918,548.608521 
	C475.429840,550.842712 475.174164,552.308655 472.859863,554.636047 
	C457.357483,570.225708 442.039856,585.998901 426.610870,601.661926 
	C425.099152,603.196533 423.239655,604.388611 421.039551,606.139099 
	C437.924469,622.879700 454.004181,638.817932 470.078827,654.761292 
	C475.670288,660.307129 475.663849,660.312073 470.144653,665.589661 
	C466.297699,669.268127 462.453125,672.949036 459.245361,676.018433 
	C441.117676,658.770874 423.084229,641.612976 404.721497,624.141785 
	C387.736847,641.213562 370.323608,658.716187 353.294708,675.832520 
	C347.070496,669.817078 341.624115,664.553345 335.873444,658.995544 
	C352.899017,641.586243 369.966583,624.134033 387.916687,605.779419 
	C384.181488,602.477417 380.688629,599.389648 376.948120,596.048218 
z"/>
<path fill="#316FCA" opacity="1.000000" stroke="none" 
	d="
M412.000000,383.987915 
	C425.954041,383.987915 439.408051,383.987915 453.133606,383.987915 
	C453.133606,416.104706 453.133606,447.693451 453.133606,479.649292 
	C421.885864,479.649292 390.663849,479.649292 359.072449,479.649292 
	C359.072449,447.961212 359.072449,416.265839 359.072449,383.987915 
	C376.613434,383.987915 394.056732,383.987915 412.000000,383.987915 
z"/>
<path fill="#316FCA" opacity="1.000000" stroke="none" 
	d="
M532.647400,582.796509 
	C542.683899,562.186707 564.596863,549.305847 585.968811,551.211060 
	C606.682068,553.057617 626.676025,569.130127 632.194275,589.259338 
	C637.559265,608.829468 633.957336,627.261902 619.537415,641.526855 
	C604.797241,656.108704 586.103088,661.571167 565.674866,655.465942 
	C548.441956,650.315735 527.542847,631.083740 528.857666,606.099182 
	C529.262634,598.403870 531.225708,590.790527 532.647400,582.796509 
z"/>
<path fill="#316FCA" opacity="1.000000" stroke="none" 
	d="
M534.842102,476.692596 
	C543.937988,460.495148 553.013306,444.286133 562.136902,428.104309 
	C568.228638,417.299835 574.389160,406.534088 581.080811,394.762512 
	C597.064453,422.379303 612.560974,449.154510 628.013672,476.689819 
	C626.706970,477.962433 625.445557,478.918396 624.181213,478.922150 
	C595.801331,479.006195 567.421021,479.018188 539.041443,478.887268 
	C537.638306,478.880798 536.241760,477.456604 534.842102,476.692596 
z"/>
<path fill="#466CA6" opacity="1.000000" stroke="none" 
	d="
M534.547302,476.924377 
	C536.241760,477.456604 537.638306,478.880798 539.041443,478.887268 
	C567.421021,479.018188 595.801331,479.006195 624.181213,478.922150 
	C625.445557,478.918396 626.706970,477.962433 628.083008,477.024353 
	C628.777527,477.504883 629.358826,478.411011 630.231689,479.771698 
	C597.612488,479.771698 565.605835,479.771698 533.193542,479.771698 
	C533.574219,478.831451 533.913391,477.993835 534.547302,476.924377 
z"/>
</svg>