<svg version="1.1" id="Layer_1" xmlns="http://www.w3.org/2000/svg" xmlns:xlink="http://www.w3.org/1999/xlink" x="0px" y="0px"
	 width="100%" viewBox="0 0 792 826" enable-background="new 0 0 792 826" xml:space="preserve">
<path fill="#FFFFFF" opacity="1.000000" stroke="none" 
	d="
M1.000000,319.000000 
	C1.000000,212.682999 1.000000,106.865982 1.000000,1.024488 
	C264.942963,1.024488 528.885925,1.024488 792.914429,1.024488 
	C792.914429,276.233795 792.914429,551.467590 792.914429,826.850708 
	C529.000061,826.850708 265.000031,826.850708 1.000000,826.850708 
	C1.000000,657.780579 1.000000,488.640289 1.000000,319.000000 
M473.897156,51.555927 
	C451.483826,36.173214 428.725281,34.463608 405.358551,49.547108 
	C404.022339,50.409653 401.209778,50.147259 399.654633,49.327053 
	C385.588531,41.908241 371.011780,41.339821 356.055725,45.736355 
	C333.031403,52.504669 319.919678,69.399696 312.086914,90.729126 
	C299.967590,123.731308 293.954956,158.116653 290.902710,193.056442 
	C290.298859,199.968781 289.744476,206.885437 289.156311,213.931488 
	C287.343140,214.047638 286.034119,214.188202 284.723297,214.207260 
	C239.901413,214.858871 195.079407,215.502823 150.257217,216.133896 
	C146.424774,216.187851 142.588287,216.054337 138.758453,216.168365 
	C132.673828,216.349533 130.331284,218.711426 129.969864,224.627670 
	C128.730759,244.910126 127.361801,265.185150 126.223541,285.473175 
	C123.489563,334.202545 120.819519,382.935547 118.196548,431.671051 
	C115.483955,482.071655 112.915520,532.480042 110.175789,582.879150 
	C107.734604,627.786316 105.145721,672.685425 102.621483,717.588135 
	C102.302589,723.260742 103.716240,725.022522 109.439568,725.873474 
	C117.175247,727.023743 124.926796,728.068115 132.659088,729.240112 
	C186.786041,737.443787 240.903824,745.708191 295.036255,753.875610 
	C347.030426,761.720398 399.042145,769.449158 451.039795,777.271057 
	C497.112823,784.201843 543.183899,791.146790 589.235901,798.214905 
	C594.332336,798.997009 598.597229,797.940735 602.883362,795.210388 
	C640.095337,771.506042 677.307373,747.799866 714.702271,724.386353 
	C720.408447,720.813477 722.612854,716.664551 722.223877,710.078796 
	C720.387390,678.983582 718.826538,647.871948 717.175049,616.765747 
	C715.196899,579.504944 713.227478,542.243652 711.252441,504.982697 
	C708.563171,454.247223 705.847778,403.513062 703.189636,352.775940 
	C701.063110,312.185913 699.007324,271.592255 696.915161,231.000443 
	C696.628967,225.447144 694.953491,223.761597 689.417908,222.993622 
	C681.177124,221.850357 672.971985,220.431870 664.716553,219.416183 
	C649.543823,217.549438 634.380493,214.918854 619.149658,214.370255 
	C595.514709,213.518997 571.826538,214.145248 548.160889,214.145157 
	C546.243835,214.145142 544.326782,214.145142 542.648132,214.145142 
	C536.659973,179.462891 529.729492,145.892761 516.877136,113.947525 
	C507.351257,90.270447 494.862396,68.351639 473.897156,51.555927 
z"/>
<path fill="#306ECB" opacity="1.000000" stroke="none" 
	d="
M474.186035,51.766605 
	C494.862396,68.351639 507.351257,90.270447 516.877136,113.947525 
	C529.729492,145.892761 536.659973,179.462891 542.648132,214.145142 
	C544.326782,214.145142 546.243835,214.145142 548.160889,214.145157 
	C571.826538,214.145248 595.514709,213.518997 619.149658,214.370255 
	C634.380493,214.918854 649.543823,217.549438 664.716553,219.416183 
	C672.971985,220.431870 681.177124,221.850357 689.417908,222.993622 
	C694.953491,223.761597 696.628967,225.447144 696.915161,231.000443 
	C699.007324,271.592255 701.063110,312.185913 703.189636,352.775940 
	C705.847778,403.513062 708.563171,454.247223 711.252441,504.982697 
	C713.227478,542.243652 715.196899,579.504944 717.175049,616.765747 
	C718.826538,647.871948 720.387390,678.983582 722.223877,710.078796 
	C722.612854,716.664551 720.408447,720.813477 714.702271,724.386353 
	C677.307373,747.799866 640.095337,771.506042 602.883362,795.210388 
	C598.597229,797.940735 594.332336,798.997009 589.235901,798.214905 
	C543.183899,791.146790 497.112823,784.201843 451.039795,777.271057 
	C399.042145,769.449158 347.030426,761.720398 295.036255,753.875610 
	C240.903824,745.708191 186.786041,737.443787 132.659088,729.240112 
	C124.926796,728.068115 117.175247,727.023743 109.439568,725.873474 
	C103.716240,725.022522 102.302589,723.260742 102.621483,717.588135 
	C105.145721,672.685425 107.734604,627.786316 110.175789,582.879150 
	C112.915520,532.480042 115.483955,482.071655 118.196548,431.671051 
	C120.819519,382.935547 123.489563,334.202545 126.223541,285.473175 
	C127.361801,265.185150 128.730759,244.910126 129.969864,224.627670 
	C130.331284,218.711426 132.673828,216.349533 138.758453,216.168365 
	C142.588287,216.054337 146.424774,216.187851 150.257217,216.133896 
	C195.079407,215.502823 239.901413,214.858871 284.723297,214.207260 
	C286.034119,214.188202 287.343140,214.047638 289.156311,213.931488 
	C289.744476,206.885437 290.298859,199.968781 290.902710,193.056442 
	C293.954956,158.116653 299.967590,123.731308 312.086914,90.729126 
	C319.919678,69.399696 333.031403,52.504669 356.055725,45.736355 
	C371.011780,41.339821 385.588531,41.908241 399.654633,49.327053 
	C401.209778,50.147259 404.022339,50.409653 405.358551,49.547108 
	C428.725281,34.463608 451.483826,36.173214 474.186035,51.766605 
M407.005371,489.995361 
	C407.005371,489.995361 407.022583,489.988556 407.342194,490.505707 
	C407.914856,490.652466 408.487549,490.799194 409.014191,491.003540 
	C409.014191,491.003540 409.034576,490.932892 409.375488,491.469482 
	C409.975494,491.601562 410.575531,491.733673 411.915863,491.947845 
	C414.107758,492.723877 416.275787,493.576935 418.495178,494.264160 
	C445.336395,502.575684 466.923340,491.476746 473.791870,464.281372 
	C476.633972,453.028320 476.972321,440.877777 476.753357,429.167084 
	C476.122894,395.444855 461.126678,370.366730 429.468231,356.969238 
	C413.113495,350.048065 396.430115,343.700531 379.473907,338.455933 
	C359.195435,332.183777 338.466736,327.367340 317.286011,321.748779 
	C317.286011,416.072113 317.286011,508.830658 317.286011,602.077209 
	C338.315521,608.532776 359.482635,615.030640 381.166779,621.687256 
	C381.166779,618.981018 381.166779,617.167664 381.166779,615.354309 
	C381.166412,540.864197 381.134033,466.374023 381.243286,391.884094 
	C381.250000,387.289886 381.784668,382.516388 383.127014,378.150146 
	C384.780548,372.771820 390.470764,370.113251 395.063171,372.044556 
	C400.419281,374.297058 404.332275,377.914490 404.111755,385.324493 
	C404.403290,393.586365 404.908173,401.847290 404.946228,410.110321 
	C405.058685,434.516998 404.964630,458.924622 405.029694,483.331635 
	C405.034729,485.219666 405.650085,487.106018 406.016388,489.005188 
	C406.016388,489.005188 406.002960,489.039276 406.221252,489.460999 
	C406.421112,489.723602 406.680878,489.895844 407.005371,489.995361 
M444.972565,539.442017 
	C449.839478,537.748596 454.698639,536.032593 459.574738,534.366028 
	C472.285828,530.021667 485.270599,528.867188 498.378784,531.920227 
	C500.917908,532.511719 502.984863,535.130554 505.269592,536.814148 
	C503.543854,538.876343 502.224060,541.815613 500.016724,542.837158 
	C493.251312,545.968323 486.201477,548.522156 479.161743,551.016907 
	C451.898224,560.678711 424.582733,570.194275 397.339691,579.913025 
	C395.682709,580.504150 393.299377,582.348572 393.260529,583.668945 
	C392.933197,594.791138 393.074005,605.927124 393.074005,617.477112 
	C394.793610,616.970703 396.063141,616.663147 397.286865,616.226990 
	C442.383423,600.154175 487.502930,584.145020 532.546997,567.926392 
	C542.111877,564.482422 551.408203,560.312317 557.917908,551.852905 
	C562.890564,545.390869 562.950012,537.786926 557.259583,531.948486 
	C554.419556,529.034546 550.917969,526.337280 547.196411,524.794189 
	C537.693848,520.854065 528.086853,516.935120 518.189148,514.219299 
	C479.555878,503.618713 441.126923,506.215607 402.991699,517.192078 
	C393.047943,520.054260 393.074310,520.149902 393.072205,530.642151 
	C393.070435,539.367981 393.071838,548.093811 393.071838,557.485840 
	C410.700745,551.381104 427.475311,545.572205 444.972565,539.442017 
M387.167969,128.739563 
	C381.552185,154.897949 377.068634,181.217575 375.462372,208.310181 
	C405.115601,208.310181 434.351227,208.310181 463.867157,208.310181 
	C463.782227,206.982437 463.851654,205.826660 463.615906,204.736893 
	C461.753876,196.128098 460.141510,187.449844 457.875183,178.946777 
	C450.282654,150.460220 441.803223,122.259521 425.951904,97.017891 
	C421.409149,89.783989 415.913818,83.148270 410.349945,75.547920 
	C398.304535,92.121574 392.116486,109.709969 387.167969,128.739563 
M256.999878,587.418274 
	C273.135162,588.470825 289.054108,586.905518 304.764038,584.124023 
	C304.764038,573.056274 304.764038,562.648315 304.764038,551.624878 
	C293.193054,555.671326 282.102722,559.598145 270.978607,563.426941 
	C258.674225,567.661926 246.260666,568.651245 233.837250,564.002808 
	C228.289093,561.926880 227.746094,558.521790 232.515930,555.031067 
	C235.009644,553.206055 238.005417,551.913086 240.950592,550.883850 
	C261.029755,543.866394 281.171295,537.027161 301.235321,529.967285 
	C302.739410,529.438049 304.866302,527.668030 304.896759,526.430420 
	C305.178619,514.966125 305.063202,503.492096 305.063202,491.754242 
	C303.892578,491.943848 303.062042,491.950317 302.325043,492.216156 
	C269.022095,504.228210 235.660889,516.084412 202.481049,528.428040 
	C194.757706,531.301270 187.303436,535.292603 180.346771,539.741211 
	C169.368713,546.761353 168.663940,558.954651 178.824951,567.203979 
	C183.351944,570.879333 188.990250,573.670227 194.572830,575.473938 
	C214.553223,581.929504 234.898972,586.876953 256.999878,587.418274 
M515.811523,168.697372 
	C513.862610,161.137665 511.944061,153.569962 509.959045,146.019745 
	C503.708527,122.245300 495.509094,99.324234 480.390015,79.499680 
	C471.870392,68.328514 461.436249,59.865135 447.141663,57.516415 
	C440.517212,56.427952 434.182800,57.810482 428.236023,61.019108 
	C464.153900,104.425392 476.351044,156.677887 487.526489,209.333252 
	C499.428436,209.333252 511.193878,209.333252 524.070190,209.333252 
	C521.303223,195.757492 518.629578,182.639755 515.811523,168.697372 
M327.053589,135.553940 
	C322.069580,159.829208 319.393890,184.368973 318.078827,209.225494 
	C329.863220,209.225494 341.099945,209.225494 351.872803,209.225494 
	C354.619080,189.386032 357.162140,169.950089 360.030548,150.562256 
	C363.624939,126.267433 369.320740,102.550262 381.104828,80.727402 
	C384.315308,74.781990 388.033630,69.110817 391.624329,63.138405 
	C382.037140,59.404903 372.872131,60.072845 364.036102,64.766975 
	C352.047943,71.135674 344.884644,81.872604 340.244568,93.956161 
	C335.137482,107.255966 331.469208,121.108284 327.053589,135.553940 
z"/>
<path fill="#FEFFFF" opacity="1.000000" stroke="none" 
	d="
M404.233032,384.366516 
	C404.332275,377.914490 400.419281,374.297058 395.063171,372.044556 
	C390.470764,370.113251 384.780548,372.771820 383.127014,378.150146 
	C381.784668,382.516388 381.250000,387.289886 381.243286,391.884094 
	C381.134033,466.374023 381.166412,540.864197 381.166779,615.354309 
	C381.166779,617.167664 381.166779,618.981018 381.166779,621.687256 
	C359.482635,615.030640 338.315521,608.532776 317.286011,602.077209 
	C317.286011,508.830658 317.286011,416.072113 317.286011,321.748779 
	C338.466736,327.367340 359.195435,332.183777 379.473907,338.455933 
	C396.430115,343.700531 413.113495,350.048065 429.468231,356.969238 
	C461.126678,370.366730 476.122894,395.444855 476.753357,429.167084 
	C476.972321,440.877777 476.633972,453.028320 473.791870,464.281372 
	C466.923340,491.476746 445.336395,502.575684 418.495178,494.264160 
	C416.275787,493.576935 414.107758,492.723877 411.357422,491.664612 
	C410.210815,491.231903 409.622711,491.082397 409.034576,490.932892 
	C409.034576,490.932892 409.014191,491.003540 408.851990,490.742004 
	C408.134064,490.316467 407.578308,490.152527 407.022583,489.988556 
	C407.022583,489.988556 407.005371,489.995361 406.867981,489.799438 
	C406.520203,489.373993 406.277679,489.185913 406.002960,489.039276 
	C406.002960,489.039276 406.016388,489.005188 406.022583,488.531982 
	C406.034637,458.193848 406.119049,428.328522 405.965118,398.464386 
	C405.940887,393.762238 404.837463,389.065674 404.233032,384.366516 
z"/>
<path fill="#FCFEFE" opacity="1.000000" stroke="none" 
	d="
M444.611206,539.602661 
	C427.475311,545.572205 410.700745,551.381104 393.071838,557.485840 
	C393.071838,548.093811 393.070435,539.367981 393.072205,530.642151 
	C393.074310,520.149902 393.047943,520.054260 402.991699,517.192078 
	C441.126923,506.215607 479.555878,503.618713 518.189148,514.219299 
	C528.086853,516.935120 537.693848,520.854065 547.196411,524.794189 
	C550.917969,526.337280 554.419556,529.034546 557.259583,531.948486 
	C562.950012,537.786926 562.890564,545.390869 557.917908,551.852905 
	C551.408203,560.312317 542.111877,564.482422 532.546997,567.926392 
	C487.502930,584.145020 442.383423,600.154175 397.286865,616.226990 
	C396.063141,616.663147 394.793610,616.970703 393.074005,617.477112 
	C393.074005,605.927124 392.933197,594.791138 393.260529,583.668945 
	C393.299377,582.348572 395.682709,580.504150 397.339691,579.913025 
	C424.582733,570.194275 451.898224,560.678711 479.161743,551.016907 
	C486.201477,548.522156 493.251312,545.968323 500.016724,542.837158 
	C502.224060,541.815613 503.543854,538.876343 505.269592,536.814209 
	C502.984863,535.130554 500.917908,532.511719 498.378784,531.920227 
	C485.270599,528.867188 472.285828,530.021667 459.574738,534.366028 
	C454.698639,536.032593 449.839478,537.748596 444.611206,539.602661 
z"/>
<path fill="#FCFDFE" opacity="1.000000" stroke="none" 
	d="
M387.273865,128.339783 
	C392.116486,109.709969 398.304535,92.121574 410.349945,75.547920 
	C415.913818,83.148270 421.409149,89.783989 425.951904,97.017891 
	C441.803223,122.259521 450.282654,150.460220 457.875183,178.946777 
	C460.141510,187.449844 461.753876,196.128098 463.615906,204.736893 
	C463.851654,205.826660 463.782227,206.982437 463.867157,208.310181 
	C434.351227,208.310181 405.115601,208.310181 375.462372,208.310181 
	C377.068634,181.217575 381.552185,154.897949 387.273865,128.339783 
z"/>
<path fill="#FCFEFE" opacity="1.000000" stroke="none" 
	d="
M256.536957,587.356689 
	C234.898972,586.876953 214.553223,581.929504 194.572830,575.473938 
	C188.990250,573.670227 183.351944,570.879333 178.824951,567.203979 
	C168.663940,558.954651 169.368713,546.761353 180.346771,539.741211 
	C187.303436,535.292603 194.757706,531.301270 202.481049,528.428040 
	C235.660889,516.084412 269.022095,504.228210 302.325043,492.216156 
	C303.062042,491.950317 303.892578,491.943848 305.063202,491.754242 
	C305.063202,503.492096 305.178619,514.966125 304.896759,526.430420 
	C304.866302,527.668030 302.739410,529.438049 301.235321,529.967285 
	C281.171295,537.027161 261.029755,543.866394 240.950592,550.883850 
	C238.005417,551.913086 235.009644,553.206055 232.515930,555.031067 
	C227.746094,558.521790 228.289093,561.926880 233.837250,564.002808 
	C246.260666,568.651245 258.674225,567.661926 270.978607,563.426941 
	C282.102722,559.598145 293.193054,555.671326 304.764038,551.624878 
	C304.764038,562.648315 304.764038,573.056274 304.764038,584.124023 
	C289.054108,586.905518 273.135162,588.470825 256.536957,587.356689 
z"/>
<path fill="#FCFEFE" opacity="1.000000" stroke="none" 
	d="
M515.883728,169.109711 
	C518.629578,182.639755 521.303223,195.757492 524.070190,209.333252 
	C511.193878,209.333252 499.428436,209.333252 487.526489,209.333252 
	C476.351044,156.677887 464.153900,104.425392 428.236023,61.019108 
	C434.182800,57.810482 440.517212,56.427952 447.141663,57.516415 
	C461.436249,59.865135 471.870392,68.328514 480.390015,79.499680 
	C495.509094,99.324234 503.708527,122.245300 509.959045,146.019745 
	C511.944061,153.569962 513.862610,161.137665 515.883728,169.109711 
z"/>
<path fill="#FCFEFE" opacity="1.000000" stroke="none" 
	d="
M327.113861,135.136917 
	C331.469208,121.108284 335.137482,107.255966 340.244568,93.956161 
	C344.884644,81.872604 352.047943,71.135674 364.036102,64.766975 
	C372.872131,60.072845 382.037140,59.404903 391.624329,63.138405 
	C388.033630,69.110817 384.315308,74.781990 381.104828,80.727402 
	C369.320740,102.550262 363.624939,126.267433 360.030548,150.562256 
	C357.162140,169.950089 354.619080,189.386032 351.872803,209.225494 
	C341.099945,209.225494 329.863220,209.225494 318.078827,209.225494 
	C319.393890,184.368973 322.069580,159.829208 327.113861,135.136917 
z"/>
<path fill="#486EA9" opacity="1.000000" stroke="none" 
	d="
M404.172394,384.845520 
	C404.837463,389.065674 405.940887,393.762238 405.965118,398.464386 
	C406.119049,428.328522 406.034637,458.193848 406.005310,488.526001 
	C405.650085,487.106018 405.034729,485.219666 405.029694,483.331635 
	C404.964630,458.924622 405.058685,434.516998 404.946228,410.110321 
	C404.908173,401.847290 404.403290,393.586365 404.172394,384.845520 
z"/>
<path fill="#486EA9" opacity="1.000000" stroke="none" 
	d="
M407.182373,490.247131 
	C407.578308,490.152527 408.134064,490.316467 408.875000,490.713196 
	C408.487549,490.799194 407.914856,490.652466 407.182373,490.247131 
z"/>
<path fill="#486EA9" opacity="1.000000" stroke="none" 
	d="
M409.205017,491.201172 
	C409.622711,491.082397 410.210815,491.231903 410.987244,491.623596 
	C410.575531,491.733673 409.975494,491.601562 409.205017,491.201172 
z"/>
<path fill="#486EA9" opacity="1.000000" stroke="none" 
	d="
M406.112122,489.250122 
	C406.277679,489.185913 406.520203,489.373993 406.865601,489.790649 
	C406.680878,489.895844 406.421112,489.723602 406.112122,489.250122 
z"/>
</svg>