<svg version="1.1" id="Layer_1" xmlns="http://www.w3.org/2000/svg" xmlns:xlink="http://www.w3.org/1999/xlink" x="0px" y="0px"
	 width="100%" viewBox="0 0 544 382" enable-background="new 0 0 544 382" xml:space="preserve">
<path fill="#FEFEFF" opacity="1.000000" stroke="none" 
	d="
M326.000000,383.000000 
	C217.333328,383.000000 109.166664,383.000000 1.000000,383.000000 
	C1.000000,255.666672 1.000000,128.333328 1.000000,1.000000 
	C182.333328,1.000000 363.666656,1.000000 545.000000,1.000000 
	C545.000000,128.333328 545.000000,255.666672 545.000000,383.000000 
	C472.166656,383.000000 399.333344,383.000000 326.000000,383.000000 
M41.978634,368.740601 
	C60.032543,375.274597 78.909180,376.859192 97.847305,378.449341 
	C106.219009,379.152313 111.981956,376.185883 115.117256,368.843262 
	C120.071007,357.241882 124.960640,345.565582 128.955475,333.612885 
	C135.892548,312.856934 143.755341,292.576752 155.434525,273.969299 
	C161.707062,263.975769 170.068161,257.179810 182.574860,257.180389 
	C243.062119,257.183258 303.549377,257.181335 364.036621,257.196747 
	C374.145020,257.199310 382.232117,261.613678 387.771393,269.762482 
	C392.618011,276.892273 397.296112,284.357300 400.581848,292.282349 
	C407.840576,309.789856 414.032013,327.736633 420.950165,345.390015 
	C424.280670,353.888611 427.961578,362.284637 432.068237,370.432526 
	C434.958801,376.167572 439.891266,379.334686 446.792114,378.431427 
	C461.629517,376.489227 476.559998,375.100616 491.283783,372.522491 
	C497.489075,371.435974 504.067993,368.996948 509.083252,365.287994 
	C521.523743,356.087830 528.327881,342.858368 530.913635,327.787201 
	C536.056580,297.812042 535.176208,267.555756 531.607056,237.633057 
	C526.527710,195.049942 515.794128,153.658707 500.639221,113.451797 
	C491.032745,87.965111 480.269196,63.360245 462.235870,42.245609 
	C441.363708,17.806993 414.645660,12.654484 385.045135,16.904341 
	C368.395233,19.294834 354.732910,29.342690 340.725128,38.047695 
	C338.876740,39.196392 336.482452,40.222603 334.397461,40.122967 
	C293.589630,38.172756 252.790604,38.205597 211.982178,40.083961 
	C209.835403,40.182781 207.401993,39.448067 205.493622,38.393047 
	C197.481232,33.963528 189.706696,29.102802 181.683380,24.694189 
	C157.673447,11.501298 133.078552,13.265849 108.402000,22.442268 
	C94.490768,27.615406 85.658966,38.838715 76.883232,50.036606 
	C58.344913,73.691620 48.436066,101.565529 39.027412,129.461716 
	C25.163233,170.568298 15.181808,212.662994 12.699814,256.159943 
	C11.315289,280.423737 10.261050,304.813507 15.081398,328.857819 
	C18.401985,345.421173 26.198280,359.436768 41.978634,368.740601 
z"/>
<path fill="#306ECB" opacity="1.000000" stroke="none" 
	d="
M41.648438,368.557159 
	C26.198280,359.436768 18.401985,345.421173 15.081398,328.857819 
	C10.261050,304.813507 11.315289,280.423737 12.699814,256.159943 
	C15.181808,212.662994 25.163233,170.568298 39.027412,129.461716 
	C48.436066,101.565529 58.344913,73.691620 76.883232,50.036606 
	C85.658966,38.838715 94.490768,27.615406 108.402000,22.442268 
	C133.078552,13.265849 157.673447,11.501298 181.683380,24.694189 
	C189.706696,29.102802 197.481232,33.963528 205.493622,38.393047 
	C207.401993,39.448067 209.835403,40.182781 211.982178,40.083961 
	C252.790604,38.205597 293.589630,38.172756 334.397461,40.122967 
	C336.482452,40.222603 338.876740,39.196392 340.725128,38.047695 
	C354.732910,29.342690 368.395233,19.294834 385.045135,16.904341 
	C414.645660,12.654484 441.363708,17.806993 462.235870,42.245609 
	C480.269196,63.360245 491.032745,87.965111 500.639221,113.451797 
	C515.794128,153.658707 526.527710,195.049942 531.607056,237.633057 
	C535.176208,267.555756 536.056580,297.812042 530.913635,327.787201 
	C528.327881,342.858368 521.523743,356.087830 509.083252,365.287994 
	C504.067993,368.996948 497.489075,371.435974 491.283783,372.522491 
	C476.559998,375.100616 461.629517,376.489227 446.792114,378.431427 
	C439.891266,379.334686 434.958801,376.167572 432.068237,370.432526 
	C427.961578,362.284637 424.280670,353.888611 420.950165,345.390015 
	C414.032013,327.736633 407.840576,309.789856 400.581848,292.282349 
	C397.296112,284.357300 392.618011,276.892273 387.771393,269.762482 
	C382.232117,261.613678 374.145020,257.199310 364.036621,257.196747 
	C303.549377,257.181335 243.062119,257.183258 182.574860,257.180389 
	C170.068161,257.179810 161.707062,263.975769 155.434525,273.969299 
	C143.755341,292.576752 135.892548,312.856934 128.955475,333.612885 
	C124.960640,345.565582 120.071007,357.241882 115.117256,368.843262 
	C111.981956,376.185883 106.219009,379.152313 97.847305,378.449341 
	C78.909180,376.859192 60.032543,375.274597 41.648438,368.557159 
z"/>
</svg>