<svg xmlns="http://www.w3.org/2000/svg" viewBox="0 0 600 128">
                    <g transform="translate(16 32)">
                        <path d="M118.118836 12.5186944L102.146451 12.5186944C102.082678 12.5182548 102.028765 12.5658246 102.021264 12.6291566L102.021264 50.0011506C102.025168 50.0673981 102.080089 50.1189738 102.146451 50.1189738L108.619354 50.1189738C108.681534 50.1150799 108.729935 50.0634519 108.729813 50.0011506L108.729813 16.6940513C108.729813 16.6572316 108.729813 16.6351398 108.773997 16.6351398L116.18212 16.6351398C118.884686 16.6351398 120.364838 19.3524336 120.364838 24.2789092 120.364838 29.2053849 118.89205 31.9374065 116.18212 31.9374065L111.719573 31.9374065C111.657393 31.9413002 111.608992 31.9929283 111.609114 32.0552295L111.609114 35.9360258C111.604513 35.9671458 111.614373 35.9986634 111.635889 36.0216134 111.657404 36.0445634 111.688221 36.056434 111.719573 36.0538488L118.111472 36.0538488C120.442418 36.013773 122.645117 34.9794157 124.164631 33.2113681 126.057163 31.0831895 127.051295 28.0050627 127.051295 24.3230929 127.051295 17.1800713 123.560788 12.5407893 118.111472 12.5407893M137.648004 12.5184533L131.167737 12.5184533C131.136474 12.5166822 131.105695 12.5272008 131.082204 12.5479283 131.058713 12.5686559 131.044444 12.5978855 131.042551 12.6291566L131.042551 50.0011506C131.046454 50.0673981 131.101375 50.1189738 131.167737 50.1189738L137.648004 50.1189738C137.711509 50.1153361 137.76219 50.0646548 137.765827 50.0011506L137.765827 12.6365205C137.761934 12.5743409 137.710306 12.5259396 137.648004 12.5260614M165.903441 21.620527C165.899538 21.5542795 165.844616 21.5027038 165.778254 21.5027038L154.238961 21.5027038C143.929445 21.5027038 142.57448 29.0949258 142.57448 35.7740191L142.57448 41.5399839C142.57448 46.5106432 145.659971 50.1189738 149.93842 50.1189738L156.234588 50.1189738C156.296768 50.1150799 156.345169 50.0634519 156.345047 50.0011506L156.345047 46.1277183C156.345169 46.065417 156.296768 46.013789 156.234588 46.0098953L151.698401 46.0098953C150.66745 46.0098953 149.268301 45.553331 149.268301 41.9891842L149.268301 35.7666552C149.268301 31.6207571 149.651226 28.9771027 150.512807 27.4674951 151.440664 25.8032447 152.906088 25.5823265 154.194777 25.5823265L159.113889 25.5823265C159.113889 25.5823265 159.150708 25.5823265 159.158072 25.6412381 159.165436 25.7001496 159.158072 50.0011506 159.158072 50.0011506 159.158072 50.0662225 159.210823 50.1189738 159.275895 50.1189738L165.741434 50.1189738C165.807797 50.1189738 165.862718 50.0673981 165.866621 50.0011506L165.866621 21.620527 165.903441 21.620527zM212.509815 28.1597054L209.313866 27.9166954C206.920585 27.7105051 205.145876 26.384996 205.145876 22.46738 205.145876 17.8870096 207.200415 16.6351398 209.939801 16.6351398L218.776528 16.6351398C218.837478 16.6319638 218.887254 16.5852987 218.894351 16.5246807L218.894351 12.6365205C218.887254 12.5759025 218.837478 12.5292375 218.776528 12.5260614L209.019308 12.5260614C202.988241 12.5260614 198.709792 16.0681164 198.709792 23.1227707L198.709792 23.4246922C198.709792 28.9918306 202.134024 32.9978138 207.244599 33.4028305L210.418457 33.6384766C212.841193 33.8225751 214.3508 35.9875734 214.3508 39.2718905L214.3508 40.1997469C214.3508 42.254286 213.835325 46.0172592 209.424325 46.0172592L200.241492 46.0172592C200.179312 46.021153 200.130911 46.072781 200.131033 46.1350823L200.131033 50.0011506C200.130911 50.0634519 200.179312 50.1150799 200.241492 50.1189737L211.633507 50.1189737C215.146106 50.1189737 221.02253 48.6977333 221.02253 39.1393395 221.02253 35.6856518 220.234588 32.9536302 218.643977 30.9800944 217.281648 29.2937522 215.271293 28.3732597 212.509815 28.1597054M265.567001 21.620527C265.567001 21.5554551 265.51425 21.5027039 265.449178 21.5027039L253.887793 21.5027039C243.578277 21.5027039 242.230676 29.0949258 242.230676 35.7740191L242.230676 41.5399839C242.230676 46.5106432 245.316167 50.1189737 249.594616 50.1189737L255.868692 50.1189737C255.932197 50.1153361 255.982878 50.0646548 255.986516 50.0011506L255.986516 46.1277183C255.982878 46.0642142 255.932197 46.0135329 255.868692 46.0098953L251.369325 46.0098953C250.338374 46.0098953 248.953953 45.553331 248.953953 41.9891842L248.953953 35.7666552C248.953953 31.6207571 249.336878 28.9771027 250.183731 27.4674951 251.111587 25.8032447 252.591739 25.5823265 253.865701 25.5823265L258.799541 25.5823265C258.799541 25.5823265 258.843724 25.5823265 258.851088 25.6412381L258.851088 50.0011506C258.851088 50.0662225 258.903839 50.1189737 258.968911 50.1189737L265.441814 50.1189737C265.503994 50.1150799 265.552395 50.0634519 265.552273 50.0011506L265.567001 21.620527zM239.535474 21.5027039L232.510276 21.5027039C232.488785 21.4990735 232.473152 21.4803137 232.473456 21.4585203L232.473456 16.7529628C232.473456 16.687891 232.420705 16.6351396 232.355633 16.6351396L225.890094 16.6351396C225.823732 16.6351396 225.768811 16.6867154 225.764907 16.7529628L225.764907 41.5473478C225.764907 46.5106432 228.857762 50.1189738 233.128847 50.1189738L237.760765 50.1189738C237.827127 50.1189738 237.882048 50.0673981 237.885952 50.0011506L237.885952 46.1350823C237.885952 46.0659434 237.829904 46.0098953 237.760765 46.0098953L234.91092 46.0098953C234.174526 46.0098953 232.473456 45.9657117 232.466092 42.3279254L232.466092 25.6117823C232.466092 25.5914473 232.482577 25.5749626 232.502912 25.5749626 234.660546 25.5749626 239.535474 25.5749626 239.535474 25.5749626 239.597776 25.5750844 239.649404 25.5266831 239.653297 25.4645035L239.653297 21.620527C239.653297 21.5892784 239.640884 21.5593096 239.618788 21.5372135 239.596692 21.5151174 239.566723 21.5027039 239.535474 21.5027039M284.7427 21.5027039L277.746957 21.5027039C277.722555 21.5027039 277.702774 21.4829223 277.702774 21.4585203L277.702774 16.7529628C277.704793 16.7236517 277.695052 16.6947437 277.675705 16.6726325 277.656358 16.6505213 277.628998 16.637029 277.599679 16.6351398L271.112048 16.6351398C271.046976 16.6351398 270.994225 16.687891 270.994225 16.7529628L270.994225 41.5473478C270.994225 46.5106432 274.079715 50.1189737 278.358164 50.1189737L282.990082 50.1189737C283.055154 50.1189737 283.107905 50.0662225 283.107905 50.0011506L283.107905 46.1350823C283.10802 46.06872 283.05633 46.0137989 282.990082 46.0098953L280.147602 46.0098953C279.411208 46.0098953 277.717502 45.9657117 277.717502 42.3279254L277.717502 25.6117823C277.717502 25.5914473 277.733986 25.5749626 277.754321 25.5749626 279.889864 25.5749626 284.757428 25.5749626 284.757428 25.5749626 284.816872 25.5713501 284.864275 25.5239478 284.867887 25.4645035L284.867887 21.620527C284.867887 21.5582257 284.819608 21.5065977 284.757428 21.5027039M295.442504 21.50244L288.969601 21.50244C288.90453 21.50244 288.851778 21.5554551 288.851778 21.620527L288.851778 50.0011506C288.855416 50.0646548 288.906097 50.1153361 288.969601 50.1189737L295.442504 50.1189737C295.473753 50.1189737 295.503722 50.1065602 295.525818 50.0844641 295.547914 50.062368 295.560328 50.0323992 295.560328 50.0011506L295.560328 21.620527C295.562534 21.588653 295.550831 21.5573852 295.528238 21.534793 295.505646 21.5122008 295.474378 21.5004977 295.442504 21.50244M295.442504 12.5186973L288.969601 12.5186973C288.9073 12.5185757 288.855672 12.566977 288.851778 12.6291566L288.851778 18.0563802C288.855672 18.1185598 288.9073 18.1669611 288.969601 18.1668393L295.442504 18.1668393C295.473625 18.1714397 295.505142 18.1615798 295.528092 18.1400642 295.551042 18.1185486 295.562913 18.087732 295.560328 18.0563802L295.560328 12.6365205C295.560396 12.6059033 295.547753 12.5766312 295.525416 12.5556908 295.50308 12.5347503 295.473054 12.5240202 295.442504 12.5260614M340.215258 21.5027039L328.6686 21.5027039C328.606421 21.5065977 328.558141 21.5582257 328.558141 21.620527L328.558141 50.0011506C328.558141 50.0634519 328.606421 50.1150799 328.6686 50.1189737L335.156231 50.1189737C335.218411 50.1150799 335.266812 50.0634519 335.26669 50.0011506L335.26669 25.6338741C335.26382 25.6214943 335.267537 25.6085095 335.276523 25.5995235 335.285509 25.5905375 335.298494 25.5868205 335.310874 25.5896905L340.215258 25.5896905C341.548131 25.5896905 343.013555 25.8106087 343.941411 27.3496721 344.802992 28.7414567 345.185917 31.1862847 345.185917 35.0228973 345.185917 35.1922679 345.185917 50.0085146 345.185917 50.0085146 345.185795 50.0708158 345.234197 50.1224439 345.296376 50.1263376L351.754551 50.1263376C351.819623 50.1263376 351.872374 50.0735864 351.872374 50.0085146L351.872374 35.7666552C351.872374 29.0949258 350.546865 21.5027039 340.222622 21.5027039M312.07028 21.5027039C301.260017 21.5027039 299.875596 29.1317455 299.875596 35.8034749 299.875596 42.4752042 301.260017 50.1410655 312.07028 50.1410655 322.880544 50.1410655 324.257601 42.4825682 324.257601 35.8034749 324.257601 29.1243815 322.880544 21.5027039 312.07028 21.5027039M316.171995 44.1320907C315.155771 45.8110689 313.535704 46.0319871 312.07028 46.0319871 310.604856 46.0319871 308.992154 45.8110689 307.961202 44.1320907 307.033346 42.6593027 306.606237 39.9788287 306.606237 35.8034749L306.606237 35.8034749C306.606237 30.8769992 307.21008 28.0787021 308.565045 26.753193 309.375078 25.9431596 310.428122 25.6117823 312.07028 25.6117823 313.712439 25.6117823 314.772846 25.9431596 315.58288 26.753193 316.930481 28.0787021 317.534324 30.8917271 317.534324 35.8329306 317.534324 40.0082844 317.107215 42.6593027 316.171995 44.1615464M169.555955 21.5027005C169.529519 21.503295 169.505035 21.5167525 169.490367 21.5387545 169.475699 21.5607564 169.472694 21.5885328 169.482316 21.613163L179.055437 49.7360488C179.073828 49.80854 179.073828 49.8844758 179.055437 49.956967L173.650306 63.882177C173.650306 63.9484524 173.650306 64 173.716581 64L179.349995 64C179.424594 63.9971053 179.490708 63.9511132 179.519366 63.882177L196.375424 21.613163C196.375424 21.5468876 196.375424 21.5027005 196.301784 21.5027005L190.160258 21.5027005C190.090069 21.5069795 190.027872 21.5493866 189.998252 21.613163L182.862594 40.0966517C182.862594 40.1555632 182.811047 40.1555632 182.781591 40.0966517L176.485422 21.613163C176.463151 21.5468012 176.400778 21.5022483 176.33078 21.5027005L169.555955 21.5027005zM359.199494 43.852261C360.930092 43.8603859 362.3272 45.2684632 362.321805 46.9990718 362.316379 48.7296804 360.910495 50.1289948 359.17988 50.1263031 357.449265 50.1236036 356.047747 48.7199163 356.047728 46.9892993 356.018401 46.1460719 356.341539 45.328717 356.939546 44.7335036 357.537554 44.1382901 358.356414 43.8189846 359.199494 43.852261L359.199494 43.852261zM359.199494 49.6550454C360.279653 49.6639973 361.258441 49.0202157 361.678018 48.0248368 362.097594 47.029458 361.875009 45.8792685 361.11438 45.112283 360.353751 44.3452975 359.205454 44.1131492 358.206618 44.5244281 357.207782 44.935707 356.555877 45.9091032 356.55584 46.9892993 356.52903 47.7003143 356.798186 48.3906266 357.299209 48.8958365 357.800232 49.4010464 358.488281 49.6759381 359.199494 49.6550454L359.199494 49.6550454zM357.954989 45.1630422L359.427777 45.1630422C360.090531 45.1630422 360.576551 45.3618686 360.576551 46.1056265 360.601414 46.5226104 360.321063 46.8964119 359.913797 46.9892993L359.913797 46.9892993C360.149443 47.0482108 360.311449 47.2249453 360.429272 47.6446899 360.547095 48.0644345 360.679646 48.4326315 360.782742 48.7787366L360.097895 48.7787366C360.009528 48.5062709 359.891705 48.0423427 359.818065 47.7919687 359.71497 47.3722241 359.597147 47.2396732 359.081671 47.2396732L358.625107 47.2396732 358.625107 48.7787366 357.97708 48.7787366 357.954989 45.1630422zM358.603015 46.7904729L359.184767 46.7904729C359.641331 46.7904729 359.921161 46.6137384 359.921161 46.1939938 359.921161 45.7742492 359.582419 45.6269704 359.22895 45.6269704L358.625107 45.6269704 358.603015 46.7904729zM30.3259471 0L30.3259471 58.4328616 43.5810386 62.6229433 43.5810386 13.6306524C43.5810386 11.3183753 44.6119902 9.78667587 46.2615127 10.3168795 48.419147 10.9133586 48.8388916 13.0415372 48.8388916 15.3243585L48.8388916 34.8903463C57.0717761 38.8742377 63.566771 34.8903463 63.566771 24.3746404 63.566771 13.6232885 59.7669781 8.83672765 48.5811537 4.98538718 42.5987948 2.9680892 36.5032577 1.30343465 30.3259471 0"></path>
                        <path d="M46.0774142 54.0807732L67.3223802 46.5180071C69.7303885 45.6269704 70.0985855 44.4192843 68.1471415 43.7786216 66.1956974 43.1379588 62.6462785 43.3146934 60.2161784 44.1910022L46.0774142 49.1763894 46.0774142 41.2380624 46.8874475 40.9729605C50.0900532 39.9378914 53.3924659 39.2418672 56.7403989 38.8963295 62.9381771 38.2714931 69.1974318 39.0259231 75.0692448 41.1055114 81.3138657 43.0864112 82.0134399 45.9804395 80.4301929 47.9907951 78.8469459 50.0011506 74.9440578 51.422391 74.9440578 51.422391L46.0774142 61.7319066 46.0774142 54.0807732zM6.09122155 53.2781038C-.308042054 51.4886664-1.37581331 47.7256932 1.54030681 45.553331 4.23550875 43.5650673 8.83797106 42.0701876 8.83797106 42.0701876L27.7706601 35.3469106 27.7706601 43.0054079 14.1473716 47.8656081C11.7319994 48.727189 11.3711663 49.9422391 13.3152464 50.5829019 15.2593265 51.2235646 18.8087454 51.0615579 21.2241177 50.1705212L27.7706601 47.8656081 27.7706601 54.7361638 26.4525148 54.9497181C19.6304625 56.0564592 12.6414229 55.4826754 6.09122155 53.2781038zM75.9455536 56.3635945C77.6720845 56.3717195 79.065895 57.7764998 79.0605004 59.5030413 79.0550745 61.2295828 77.6524875 62.6256004 75.9259395 62.6229087 74.1993916 62.6202092 72.8011705 61.2198189 72.8011514 59.4932689 72.7718192 58.6519939 73.0941792 57.8365086 73.6908075 57.2426748 74.2874359 56.6488409 75.1044256 56.3303131 75.9455536 56.3635945zM75.9455536 62.1590151C77.0257126 62.167967 78.0045 61.5241853 78.4240766 60.5288064 78.8436532 59.5334276 78.6210686 58.3832381 77.8604394 57.6162526 77.0998101 56.8492672 75.9515128 56.6171188 74.9526768 57.0283977 73.9538409 57.4396766 73.3019364 58.4130728 73.3018993 59.4932689 73.2750888 60.2042839 73.5442453 60.8945963 74.0452684 61.3998062 74.5462915 61.9050161 75.2343401 62.1799078 75.9455536 62.1590151L75.9455536 62.1590151zM74.7084117 57.6743758L76.1370161 57.6743758C76.7997706 57.6743758 77.2931546 57.8658382 77.2931546 58.6095961 77.3173498 59.0288256 77.0332482 59.403465 76.6230361 59.4932689L76.6230361 59.4932689C76.8586821 59.5521804 77.0280528 59.728915 77.1458758 60.1486595 77.2636988 60.5684041 77.3962497 60.9366011 77.4993449 61.2827062L76.8365903 61.2827062C76.7408591 61.0102405 76.6230361 60.5463123 76.5493967 60.2959383 76.4463015 59.8761938 76.3284785 59.7436428 75.8130027 59.7436428L75.3858942 59.7436428 75.3858942 61.2827062 74.7378675 61.2827062 74.7084117 57.6743758zM75.3564384 59.2944425L75.9308257 59.2944425C76.38739 59.2944425 76.6672197 59.117708 76.6672197 58.6979634 76.6672197 58.2782188 76.3284785 58.1309401 75.9750094 58.1309401L75.3564384 58.1309401 75.3564384 59.2944425z"></path>
                    </g>
                </svg>