<svg id="LOGOS" xmlns="http://www.w3.org/2000/svg" xmlns:xlink="http://www.w3.org/1999/xlink" viewBox="0 0 494.29 57.72"><defs><style>.cls-1{stroke:#9c9ca3;stroke-miterlimit:10;stroke-width:1.96px;fill:url(#linear-gradient);}.cls-2{fill:#fdc100;}.cls-3{fill:none;}</style><linearGradient id="linear-gradient" x1="1.73" y1="28.92" x2="492.74" y2="28.92" gradientUnits="userSpaceOnUse"><stop offset="0" stop-color="#373737"/><stop offset="0.52" stop-color="#2a2a2a"/><stop offset="1" stop-color="#252525"/></linearGradient></defs><g id="PSPlus_TierBadge_ENG_Extra_RGB"><g id="Category_Bar" data-name="Category Bar"><rect class="cls-1" x="1.73" y="1.47" width="491.01" height="54.9"/><path class="cls-2" d="M166.86,25.15a7.87,7.87,0,0,1-8.16,7.94h-3.89V40.3h-5V17.2h8.89A7.88,7.88,0,0,1,166.86,25.15Zm-5.07,0a3.17,3.17,0,0,0-3.31-3.32h-3.67v6.63h3.67A3.17,3.17,0,0,0,161.79,25.15Z"/><path class="cls-2" d="M185.14,32.42h-3.21V40.3h-5V17.2h9.32c4.63,0,8.08,3.19,8.08,7.64a7.33,7.33,0,0,1-4.21,6.73l5.11,8.73h-5.59Zm-3.21-4.62h4c2.1,0,3.34-1.26,3.34-3s-1.24-3-3.34-3h-4Z"/><path class="cls-2" d="M219.58,35.65V40.3H205.35V17.2h13.87v4.62h-8.87v4.56h8v4.53h-8v4.74Z"/><path class="cls-2" d="M253.61,40.3l-2.27-15.07-6.89,15h-1.23l-6.89-15L234.05,40.3H229l3.62-23.1h5l6.25,14.16,6.28-14.16h5l3.58,23.1Z"/><path class="cls-2" d="M269.17,17.2h5V40.3h-5Z"/><path class="cls-2" d="M285.83,31.61V17.2h5V31.38a4.54,4.54,0,1,0,9.08,0V17.2h5V31.61c0,5.41-4.09,9.2-9.54,9.2S285.83,37,285.83,31.61Z"/><path class="cls-2" d="M339.61,40.3l-2.28-15.07-6.88,15h-1.24l-6.88-15L320,40.3H315l3.62-23.1h5l6.25,14.16L336.1,17.2h5l3.58,23.1Z"/></g><rect id="Iso_Zone" data-name="Iso Zone" class="cls-3" x="-542.49" y="-27.69" width="550.51" height="113.97"/></g><g id="PSPlus_TierBadge_ENG_Essential_RGB"><rect id="Iso_Zone-2" data-name="Iso Zone" class="cls-3" x="486.17" y="-28" width="551.1" height="113.72"/></g></svg>