<svg id="LOGOS" xmlns="http://www.w3.org/2000/svg" xmlns:xlink="http://www.w3.org/1999/xlink" viewBox="0 0 494.29 57.72"><defs><style>.cls-1{stroke:#9c9ca3;stroke-miterlimit:10;stroke-width:1.97px;fill:url(#PSPlus_Category_Bar_Gradient);}.cls-2{fill:none;}</style><linearGradient id="PSPlus_Category_Bar_Gradient" x1="1.83" y1="28.85" x2="492.67" y2="28.85" gradientUnits="userSpaceOnUse"><stop offset="0" stop-color="#ffe842"/><stop offset="1" stop-color="#fdc100"/></linearGradient></defs><g id="PSPlus_TierBadge_ENG_Extra_RGB"><g id="Category_Bar" data-name="Category Bar"><rect class="cls-1" x="1.83" y="1.36" width="490.84" height="55"/><path d="M197.72,35.64v4.65H183.49V17.19h13.87v4.62h-8.87v4.56h8v4.52h-8v4.75Z"/><path d="M220.82,40.29l-4.56-7.94-4.62,7.94H206l7.19-12.13-6.73-11h5.61l4.13,7.12,4.16-7.12h5.47l-6.63,11.16,7.21,11.94Z"/><path d="M251.68,21.83h-6.42V40.29h-5V21.83h-6.42V17.19h17.84Z"/><path d="M269.84,32.41h-3.21v7.88h-5V17.19H271c4.63,0,8.08,3.18,8.08,7.64a7.34,7.34,0,0,1-4.21,6.73l5.11,8.73h-5.59Zm-3.21-4.62h4c2.09,0,3.34-1.26,3.34-3s-1.25-3-3.34-3h-4Z"/><path d="M303.57,35.91h-9.19l-1.59,4.38h-5.3l9.06-23.1h4.71l9.35,23.1h-5.42Zm-7.63-4.36H302l-3-8.26Z"/></g><rect id="Iso_Zone" data-name="Iso Zone" class="cls-2" x="-28.21" y="-27.69" width="550.51" height="113.97"/></g></svg>