<svg id="LOGOS" xmlns="http://www.w3.org/2000/svg" viewBox="0 0 494.29 57.72"><defs><style>.cls-1{fill:#fff;}.cls-2,.cls-3{fill:none;}.cls-2{stroke:#9c9ca3;stroke-miterlimit:10;stroke-width:1.97px;}</style></defs><g id="PSPlus_TierBadge_ENG_Essential_RGB"><g id="Category_Bar" data-name="Category Bar"><rect class="cls-1" x="1.59" y="1.24" width="491.61" height="55.16"/><rect class="cls-2" x="1.59" y="1.24" width="491.61" height="55.16"/><rect class="cls-1" x="1.59" y="1.24" width="491.61" height="55.16"/><rect class="cls-2" x="1.59" y="1.24" width="491.61" height="55.16"/><rect class="cls-1" x="1.59" y="1.24" width="491.61" height="55.16"/><rect class="cls-2" x="1.59" y="1.24" width="491.61" height="55.16"/><path d="M150.46,35.75V40.4H136.23V17.29H150.1v4.62h-8.87v4.56h8V31h-8v4.75Z"/><path d="M160,32.91h5c0,2.23,1.84,3.31,3.89,3.31,1.88,0,3.72-1,3.72-2.71s-2.11-2.29-4.61-2.87c-3.49-.86-7.72-1.87-7.72-6.85,0-4.43,3.27-6.93,8.38-6.93,5.31,0,8.33,2.84,8.33,7.44h-4.94c0-2-1.64-2.92-3.51-2.92-1.62,0-3.26.68-3.26,2.2s2,2.11,4.45,2.7c3.53.89,7.95,2,7.95,7.16,0,5-4,7.42-8.76,7.42C163.64,40.86,160,37.88,160,32.91Z"/><path d="M187,32.91h5c0,2.23,1.84,3.31,3.88,3.31,1.88,0,3.72-1,3.72-2.71s-2.1-2.29-4.61-2.87c-3.48-.86-7.71-1.87-7.71-6.85,0-4.43,3.26-6.93,8.38-6.93,5.31,0,8.33,2.84,8.33,7.44H199.1c0-2-1.64-2.92-3.51-2.92-1.62,0-3.26.68-3.26,2.2s2,2.11,4.45,2.7c3.52.89,7.94,2,7.94,7.16,0,5-4,7.42-8.75,7.42C190.66,40.86,187,37.88,187,32.91Z"/><path d="M229.56,35.75V40.4H215.33V17.29H229.2v4.62h-8.87v4.56h8V31h-8v4.75Z"/><path d="M259.92,17.29V40.4h-4.18L245.28,26V40.4h-4.91V17.29h4.52L255,31.38V17.29Z"/><path d="M287.71,21.93h-6.42V40.4h-5V21.93h-6.42V17.29h17.84Z"/><path d="M297.66,17.29h5V40.4h-5Z"/><path d="M328.28,36h-9.19l-1.58,4.38H312.2l9.06-23.11H326l9.35,23.11H329.9Zm-7.63-4.36h6.06l-3-8.26Z"/><path d="M358.72,35.76V40.4H344.85V17.29h5V35.76Z"/></g><rect id="Iso_Zone" data-name="Iso Zone" class="cls-3" x="-28.11" y="-28" width="551.1" height="113.72"/></g></svg>