<svg version="1.1" id="Layer_1" xmlns="http://www.w3.org/2000/svg" xmlns:xlink="http://www.w3.org/1999/xlink" x="0px" y="0px"
	 width="100%" viewBox="0 0 638 462" enable-background="new 0 0 638 462" xml:space="preserve">
<path fill="#FEFFFF" opacity="1.000000" stroke="none" 
	d="
M383.000000,463.000000 
	C255.362228,463.000000 128.224457,463.000000 1.043341,463.000000 
	C1.043341,309.063904 1.043341,155.127777 1.043341,1.095827 
	C213.554428,1.095827 426.108917,1.095827 638.831665,1.095827 
	C638.831665,154.999847 638.831665,308.999908 638.831665,463.000000 
	C553.794495,463.000000 468.647247,463.000000 383.000000,463.000000 
M28.878717,434.849457 
	C28.878717,434.849457 28.813995,434.709961 28.121111,434.970764 
	C27.418652,435.766327 26.716192,436.561890 25.585159,437.842834 
	C223.453094,437.842834 420.554382,437.842834 618.499207,437.842834 
	C616.969604,436.417114 616.049988,435.559998 614.846497,434.113892 
	C595.536865,414.790649 576.274475,395.419556 556.833496,376.229401 
	C555.166443,374.583862 552.314392,373.264465 550.011475,373.262421 
	C397.926300,373.127045 245.840973,373.130035 93.755806,373.268921 
	C91.451645,373.271027 88.593941,374.556366 86.931114,376.193878 
	C68.653557,394.192871 50.559025,412.377777 32.429661,430.527039 
	C31.498304,431.459412 30.701263,432.526001 29.305771,433.821899 
	C29.112270,434.167664 28.918770,434.513458 28.878717,434.849457 
M553.134094,47.279736 
	C552.827820,46.378963 552.521545,45.478191 552.250671,43.857399 
	C548.920410,38.977444 546.243896,33.435192 542.117371,29.361858 
	C534.606934,21.948242 524.706421,20.140505 514.428284,20.141239 
	C399.119568,20.149485 283.810852,20.144062 168.502121,20.142557 
	C155.005005,20.142380 141.507843,20.125423 128.010757,20.148571 
	C107.818329,20.183203 89.591866,35.472397 89.697159,58.224068 
	C90.068848,138.538528 89.773926,218.855957 89.993164,299.171570 
	C90.008163,304.664886 91.192352,310.616943 93.526024,315.555573 
	C100.607758,330.542206 113.540245,336.803772 129.587646,336.812714 
	C255.560730,336.882843 381.533875,336.851776 507.506989,336.850983 
	C511.172760,336.850983 514.843140,336.958435 518.503540,336.816010 
	C537.869385,336.062653 553.515991,320.974609 553.928040,302.043549 
	C553.938782,218.946991 553.953796,135.850418 553.924927,52.753864 
	C553.924438,51.323616 553.394348,49.893559 553.268372,48.231457 
	C553.268372,48.231457 553.097290,48.009693 553.134094,47.279736 
z"/>
<path fill="#306FCA" opacity="1.000000" stroke="none" 
	d="
M553.697693,302.950409 
	C553.515991,320.974609 537.869385,336.062653 518.503540,336.816010 
	C514.843140,336.958435 511.172760,336.850983 507.506989,336.850983 
	C381.533875,336.851776 255.560730,336.882843 129.587646,336.812714 
	C113.540245,336.803772 100.607758,330.542206 93.526024,315.555573 
	C91.192352,310.616943 90.008163,304.664886 89.993164,299.171570 
	C89.773926,218.855957 90.068848,138.538528 89.697159,58.224068 
	C89.591866,35.472397 107.818329,20.183203 128.010757,20.148571 
	C141.507843,20.125423 155.005005,20.142380 168.502121,20.142557 
	C283.810852,20.144062 399.119568,20.149485 514.428284,20.141239 
	C524.706421,20.140505 534.606934,21.948242 542.117371,29.361858 
	C546.243896,33.435192 548.920410,38.977444 552.175903,44.601341 
	C552.433167,46.233418 552.765198,47.121555 553.097290,48.009697 
	C553.097290,48.009693 553.268372,48.231457 553.157715,48.861389 
	C553.025879,132.704208 553.001526,215.917084 553.013306,299.129974 
	C553.013489,300.403473 553.459656,301.676910 553.697693,302.950409 
M154.851349,111.499992 
	C154.851349,164.248413 154.851349,216.996826 154.851349,269.800537 
	C266.569183,269.800537 377.594666,269.800537 488.568726,269.800537 
	C488.568726,208.094116 488.568726,146.737503 488.568726,85.408676 
	C377.237091,85.408676 266.327393,85.408676 154.851273,85.408676 
	C154.851273,93.937164 154.851273,102.218582 154.851349,111.499992 
z"/>
<path fill="#306FCB" opacity="1.000000" stroke="none" 
	d="
M29.841705,433.530121 
	C30.701263,432.526001 31.498304,431.459412 32.429661,430.527039 
	C50.559025,412.377777 68.653557,394.192871 86.931114,376.193878 
	C88.593941,374.556366 91.451645,373.271027 93.755806,373.268921 
	C245.840973,373.130035 397.926300,373.127045 550.011475,373.262421 
	C552.314392,373.264465 555.166443,374.583862 556.833496,376.229401 
	C576.274475,395.419556 595.536865,414.790649 614.883057,434.824524 
	C612.634521,436.021240 610.349609,436.932190 608.064453,436.932983 
	C416.644226,436.998962 225.223999,436.994446 33.803761,436.994202 
	C32.471024,436.994202 31.086294,437.191101 29.831598,436.875549 
	C29.341835,436.752380 29.144514,435.466339 28.813995,434.709961 
	C28.813995,434.709961 28.878717,434.849457 29.106659,434.752991 
	C29.503639,434.281067 29.672678,433.905609 29.841705,433.530121 
z"/>
<path fill="#3E6DB0" opacity="1.000000" stroke="none" 
	d="
M28.467552,434.840363 
	C29.144514,435.466339 29.341835,436.752380 29.831598,436.875549 
	C31.086294,437.191101 32.471024,436.994202 33.803761,436.994202 
	C225.223999,436.994446 416.644226,436.998962 608.064453,436.932983 
	C610.349609,436.932190 612.634521,436.021240 615.025024,435.119019 
	C616.049988,435.559998 616.969604,436.417114 618.499207,437.842834 
	C420.554382,437.842834 223.453094,437.842834 25.585159,437.842834 
	C26.716192,436.561890 27.418652,435.766327 28.467552,434.840363 
z"/>
<path fill="#466DA8" opacity="1.000000" stroke="none" 
	d="
M553.812866,302.496979 
	C553.459656,301.676910 553.013489,300.403473 553.013306,299.129974 
	C553.001526,215.917084 553.025879,132.704208 553.079224,48.977371 
	C553.394348,49.893559 553.924438,51.323616 553.924927,52.753864 
	C553.953796,135.850418 553.938782,218.946991 553.812866,302.496979 
z"/>
<path fill="#466DA8" opacity="1.000000" stroke="none" 
	d="
M553.115723,47.644714 
	C552.765198,47.121555 552.433167,46.233418 552.158142,44.961349 
	C552.521545,45.478191 552.827820,46.378963 553.115723,47.644714 
z"/>
<path fill="#3E6DB0" opacity="1.000000" stroke="none" 
	d="
M29.573742,433.676025 
	C29.672678,433.905609 29.503639,434.281067 29.029934,434.757874 
	C28.918770,434.513458 29.112270,434.167664 29.573742,433.676025 
z"/>
<path fill="#FEFFFF" opacity="1.000000" stroke="none" 
	d="
M154.851318,110.999992 
	C154.851273,102.218582 154.851273,93.937164 154.851273,85.408676 
	C266.327393,85.408676 377.237091,85.408676 488.568726,85.408676 
	C488.568726,146.737503 488.568726,208.094116 488.568726,269.800537 
	C377.594666,269.800537 266.569183,269.800537 154.851349,269.800537 
	C154.851349,216.996826 154.851349,164.248413 154.851318,110.999992 
z"/>
</svg>