<svg version="1.1" id="Layer_1" xmlns="http://www.w3.org/2000/svg" xmlns:xlink="http://www.w3.org/1999/xlink" x="0px" y="0px"
	 width="100%" viewBox="0 0 408 318" enable-background="new 0 0 408 318" xml:space="preserve">
<path fill="#FEFEFF" opacity="1.000000" stroke="none" 
	d="
M253.000000,319.000000 
	C168.695526,319.000000 84.891060,319.000000 1.043293,319.000000 
	C1.043293,213.065369 1.043293,107.130714 1.043293,1.098033 
	C136.887772,1.098033 272.775635,1.098033 408.831726,1.098033 
	C408.831726,106.999786 408.831726,212.999863 408.831726,319.000000 
	C357.130798,319.000000 305.315399,319.000000 253.000000,319.000000 
M340.030823,245.364380 
	C339.719299,245.175934 339.407776,244.987473 339.081726,244.919739 
	C339.081726,244.919739 339.201447,244.898651 339.028198,244.363266 
	C338.715027,244.177780 338.401886,243.992310 338.079803,243.921799 
	C338.079803,243.921799 338.192230,243.896149 338.012054,243.357285 
	C337.680756,243.246201 337.349426,243.135117 336.595886,242.747742 
	C336.398987,242.477417 336.202057,242.207108 335.884644,241.193604 
	C333.585205,240.593185 331.286255,239.470184 328.986237,239.467880 
	C246.876297,239.385666 164.766098,239.471390 82.656563,239.276566 
	C77.080246,239.263336 73.049103,240.613632 69.484879,245.468719 
	C67.884079,247.232971 66.283287,248.997223 64.896896,250.748062 
	C64.896896,250.748062 64.686569,250.704285 64.071899,250.940475 
	C58.942215,256.214081 53.812538,261.487671 48.897839,266.751160 
	C48.897839,266.751160 48.687904,266.703766 48.072880,266.939850 
	C45.326382,269.733521 42.579887,272.527191 39.548687,275.610474 
	C149.879959,275.610474 259.664276,275.610474 370.664886,275.610474 
	C366.636780,271.824066 363.419800,268.800140 360.058624,265.880096 
	C360.058624,265.880096 360.229218,265.830231 360.064728,265.317780 
	C359.770569,265.130798 359.476440,264.943817 359.123047,264.880066 
	C359.123047,264.880066 359.242096,264.812836 359.070770,264.301178 
	C358.770630,264.121887 358.470490,263.942566 358.131592,263.931183 
	C358.131592,263.931183 358.228363,263.788605 357.998627,263.171387 
	C356.078217,261.369843 354.157837,259.568329 352.152710,257.799011 
	C352.152710,257.799011 352.217529,257.862366 352.031219,257.339172 
	C351.721527,257.155548 351.411835,256.971924 351.090424,256.912689 
	C351.090424,256.912689 351.212372,256.885529 351.030304,256.354095 
	C350.715790,256.172058 350.401245,255.990051 350.072205,255.927460 
	C350.072205,255.927460 350.191284,255.910187 350.029236,255.370972 
	C349.720490,255.178146 349.411713,254.985306 349.086121,254.914551 
	C349.086121,254.914551 349.207550,254.893661 349.033478,254.359360 
	C348.720306,254.173386 348.407135,253.987411 348.078583,253.921524 
	C348.078583,253.921524 348.198120,253.902420 348.028870,253.368027 
	C347.719177,253.177750 347.409485,252.987473 347.083344,252.916885 
	C347.083344,252.916885 347.202484,252.896698 347.026031,252.365417 
	C346.715576,252.177628 346.405121,251.989853 346.079529,251.921402 
	C346.079529,251.921402 346.198212,251.901840 346.030762,251.366013 
	C345.722900,251.172668 345.415009,250.979324 345.092133,250.911652 
	C345.092133,250.911652 345.216278,250.887085 345.049500,250.347687 
	C344.731201,250.165054 344.412933,249.982422 344.079193,249.920959 
	C344.079193,249.920959 344.199829,249.901642 344.031555,249.365097 
	C343.723053,249.172653 343.414551,248.980225 343.089203,248.912018 
	C343.089203,248.912018 343.212616,248.889954 343.040344,248.353012 
	C342.726379,248.167191 342.412415,247.981369 342.081543,247.917572 
	C342.081543,247.917572 342.203247,247.898392 342.028351,247.366058 
	C341.719727,247.175018 341.411072,246.983978 341.086334,246.914688 
	C341.086334,246.914688 341.207245,246.893112 341.031677,246.359802 
	C340.719666,246.172806 340.407684,245.985794 340.080627,245.920105 
	C340.080627,245.920105 340.201172,245.899902 340.030823,245.364380 
M84.880440,46.824913 
	C84.880440,46.824913 84.801491,46.735062 84.197311,46.889282 
	C83.441063,47.584255 82.684822,48.279228 81.449059,49.086487 
	C81.138191,49.271431 80.978729,49.544720 80.356262,50.236652 
	C76.006088,54.649624 75.455826,60.325546 75.434731,66.017952 
	C75.272377,109.838371 75.144112,153.659241 75.224976,197.479584 
	C75.231079,200.785797 76.932953,204.088913 77.911232,207.896851 
	C78.211395,208.286621 78.511551,208.676407 78.914116,209.721436 
	C79.905449,210.864914 80.896782,212.008392 81.964523,213.041489 
	C81.964523,213.041489 81.850258,213.111938 82.164528,213.724655 
	C87.475945,217.992371 93.522888,219.267807 100.306694,219.247330 
	C151.724396,219.092102 203.142776,219.162979 254.560959,219.162018 
	C273.863556,219.161652 293.166229,219.129303 312.468750,219.172409 
	C318.517365,219.185913 323.978882,217.872818 328.026947,213.026764 
	C328.026947,213.026764 328.124481,213.153580 328.711578,212.872940 
	C329.540955,211.626801 330.370300,210.380646 331.122650,209.043747 
	C331.122650,209.043747 331.133667,209.162247 331.740601,208.739182 
	C332.534637,205.540787 334.011108,202.344284 334.020050,199.143677 
	C334.148376,153.200989 334.197632,107.256805 333.840607,61.316288 
	C333.810791,57.479904 330.722839,53.667282 328.814362,49.216537 
	C325.864380,47.472485 322.914429,45.728428 319.330566,43.466438 
	C317.508392,43.304157 315.686218,43.000492 313.864014,42.999969 
	C241.257614,42.979141 168.651169,42.966938 96.044907,43.067921 
	C93.523697,43.071426 91.004105,44.240086 88.210434,44.759590 
	C88.210434,44.759590 87.997597,44.961243 87.346260,45.011986 
	C87.036781,45.303333 86.727303,45.594681 86.200989,45.782990 
	C86.200989,45.782990 86.030815,45.952328 85.449394,45.994480 
	C85.221581,46.282841 84.993767,46.571201 84.880440,46.824913 
z"/>
<path fill="#316ECA" opacity="1.000000" stroke="none" 
	d="
M80.970688,49.906353 
	C80.978729,49.544720 81.138191,49.271431 82.064056,49.033218 
	C83.386528,48.231651 84.094009,47.483356 84.801491,46.735062 
	C84.801491,46.735062 84.880440,46.824913 85.100204,46.799156 
	C85.556923,46.499710 85.793869,46.226021 86.030815,45.952328 
	C86.030815,45.952328 86.200989,45.782990 86.632439,45.791561 
	C87.375122,45.520500 87.686356,45.240871 87.997589,44.961243 
	C87.997597,44.961243 88.210434,44.759590 88.823090,44.853043 
	C100.709244,44.633652 111.982368,44.066055 123.256294,44.049953 
	C188.825577,43.956299 254.395035,43.992237 319.964447,43.984371 
	C322.914429,45.728428 325.864380,47.472485 328.915100,49.936974 
	C334.223785,62.382095 332.932251,74.830826 332.961243,87.101707 
	C333.041443,121.052017 333.087921,155.003174 332.905060,188.952682 
	C332.868744,195.692200 331.752106,202.425873 331.133667,209.162247 
	C331.133667,209.162247 331.122650,209.043747 330.780029,209.072784 
	C329.666443,210.452408 328.895447,211.802994 328.124481,213.153580 
	C328.124481,213.153580 328.026947,213.026764 327.706604,213.031097 
	C320.303314,217.032913 312.805420,218.175674 304.605438,218.144669 
	C236.307404,217.886307 168.007736,218.066833 99.709473,217.842300 
	C95.325836,217.827896 90.952087,215.539246 86.568680,214.326843 
	C85.003593,213.893967 83.423500,213.515335 81.850258,213.111938 
	C81.850258,213.111938 81.964523,213.041489 81.959152,212.711761 
	C80.906418,211.276764 79.859062,210.171478 78.811707,209.066177 
	C78.511551,208.676407 78.211395,208.286621 77.930954,207.177475 
	C77.633461,202.512390 77.046860,198.567093 77.040573,194.620895 
	C76.975197,153.574280 76.989578,112.527489 77.038963,71.480820 
	C77.041916,69.025452 77.358444,66.536659 77.831924,64.122826 
	C78.765762,59.361954 79.912186,54.642773 80.970688,49.906353 
M296.381256,78.378052 
	C295.568787,78.251663 294.756348,78.014877 293.943848,78.014626 
	C234.683167,77.996620 175.422501,77.989861 116.161873,78.043640 
	C114.801437,78.044876 113.441650,78.747124 111.964851,80.038445 
	C111.964851,113.944000 111.964851,147.849564 111.964851,182.138733 
	C114.589386,182.138733 116.561836,182.138718 118.534294,182.138718 
	C174.337372,182.138916 230.140442,182.142929 285.943512,182.131302 
	C289.938324,182.130463 293.933136,182.015259 298.606567,181.656265 
	C298.744568,178.693573 298.999420,175.731003 299.002411,172.768173 
	C299.032227,143.375107 299.042999,113.981926 298.965759,84.589035 
	C298.960999,82.773735 298.170013,80.960503 297.334961,79.137421 
	C297.334961,79.137421 296.961456,78.968315 296.381256,78.378052 
z"/>
<path fill="#2F6ECB" opacity="1.000000" stroke="none" 
	d="
M336.005157,241.936798 
	C336.202057,242.207108 336.398987,242.477417 336.928284,243.116333 
	C337.571228,243.621994 337.881714,243.759064 338.192230,243.896149 
	C338.192230,243.896149 338.079803,243.921799 338.164368,244.137451 
	C338.566467,244.534943 338.883942,244.716797 339.201447,244.898651 
	C339.201447,244.898651 339.081726,244.919739 339.166870,245.133301 
	C339.568390,245.531219 339.884796,245.715561 340.201172,245.899902 
	C340.201172,245.899902 340.080627,245.920105 340.167542,246.133224 
	C340.572021,246.528595 340.889648,246.710846 341.207245,246.893112 
	C341.207245,246.893112 341.086334,246.914688 341.170654,247.128448 
	C341.571075,247.527618 341.887177,247.712997 342.203247,247.898392 
	C342.203247,247.898392 342.081543,247.917572 342.168304,248.131531 
	C342.574249,248.526993 342.893433,248.708481 343.212616,248.889954 
	C343.212616,248.889954 343.089203,248.912018 343.171326,249.125946 
	C343.568878,249.527130 343.884369,249.714386 344.199829,249.901642 
	C344.199829,249.901642 344.079193,249.920959 344.166931,250.135025 
	C344.575226,250.528412 344.895752,250.707748 345.216278,250.887085 
	C345.216278,250.887085 345.092133,250.911652 345.173706,251.124298 
	C345.569611,251.525238 345.883911,251.713531 346.198212,251.901825 
	C346.198212,251.901840 346.079529,251.921402 346.166992,252.134369 
	C346.570465,252.530457 346.886475,252.713577 347.202484,252.896698 
	C347.202484,252.896698 347.083344,252.916885 347.168152,253.130997 
	C347.567993,253.530884 347.883057,253.716660 348.198120,253.902435 
	C348.198120,253.902420 348.078583,253.921524 348.166077,254.135147 
	C348.571533,254.530396 348.889557,254.712036 349.207550,254.893661 
	C349.207550,254.893661 349.086121,254.914551 349.168152,255.128784 
	C349.563873,255.532089 349.877563,255.721146 350.191284,255.910187 
	C350.191284,255.910187 350.072205,255.927460 350.161255,256.140930 
	C350.570984,256.531433 350.891663,256.708466 351.212372,256.885529 
	C351.212372,256.885529 351.090424,256.912689 351.177887,257.121735 
	C351.582733,257.507965 351.900146,257.685181 352.217529,257.862366 
	C352.217529,257.862366 352.152710,257.799011 352.154846,258.143585 
	C354.180756,260.254974 356.204559,262.021790 358.228363,263.788605 
	C358.228363,263.788605 358.131592,263.931183 358.208618,264.123962 
	C358.604492,264.482117 358.923279,264.647491 359.242096,264.812836 
	C359.242096,264.812836 359.123047,264.880066 359.204529,265.095886 
	C359.600403,265.484528 359.914795,265.657379 360.229218,265.830231 
	C360.229218,265.830231 360.058624,265.880096 360.094971,266.191925 
	C361.671631,268.703552 363.212006,270.903351 364.980743,273.429321 
	C258.342010,273.429321 152.279907,273.429321 45.945026,273.429321 
	C47.023575,270.784729 47.855740,268.744232 48.687904,266.703766 
	C48.687904,266.703766 48.897839,266.751160 49.158615,266.719269 
	C54.160252,262.397339 58.947094,258.155945 63.592678,253.765106 
	C64.294586,253.101685 64.338371,251.741943 64.686569,250.704285 
	C64.686569,250.704285 64.896896,250.748062 65.158401,250.717468 
	C66.976784,249.135880 68.533661,247.584885 70.436554,245.986481 
	C75.258911,240.553085 81.312630,240.936630 87.519608,240.944351 
	C164.899780,241.040619 242.280121,240.988678 319.660370,241.047424 
	C325.108856,241.051559 330.556915,241.627014 336.005157,241.936798 
z"/>
<path fill="#517CBB" opacity="1.000000" stroke="none" 
	d="
M48.380394,266.821808 
	C47.855740,268.744232 47.023575,270.784729 45.945026,273.429321 
	C152.279907,273.429321 258.342010,273.429321 364.980743,273.429321 
	C363.212006,270.903351 361.671631,268.703552 360.167053,266.139954 
	C363.419800,268.800140 366.636780,271.824066 370.664886,275.610474 
	C259.664276,275.610474 149.879959,275.610474 39.548687,275.610474 
	C42.579887,272.527191 45.326382,269.733521 48.380394,266.821808 
z"/>
<path fill="#406DB0" opacity="1.000000" stroke="none" 
	d="
M335.944885,241.565201 
	C330.556915,241.627014 325.108856,241.051559 319.660370,241.047424 
	C242.280121,240.988678 164.899780,241.040619 87.519608,240.944351 
	C81.312630,240.936630 75.258911,240.553085 70.427780,245.773849 
	C70.072975,245.608627 70.064758,245.183899 70.064758,245.183899 
	C73.049103,240.613632 77.080246,239.263336 82.656563,239.276566 
	C164.766098,239.471390 246.876297,239.385666 328.986237,239.467880 
	C331.286255,239.470184 333.585205,240.593185 335.944885,241.565201 
z"/>
<path fill="#406DB2" opacity="1.000000" stroke="none" 
	d="
M80.663475,50.071503 
	C79.912186,54.642773 78.765762,59.361954 77.831924,64.122826 
	C77.358444,66.536659 77.041916,69.025452 77.038963,71.480820 
	C76.989578,112.527489 76.975197,153.574280 77.040573,194.620895 
	C77.046860,198.567093 77.633461,202.512390 77.898613,206.925781 
	C76.932953,204.088913 75.231079,200.785797 75.224976,197.479584 
	C75.144112,153.659241 75.272377,109.838371 75.434731,66.017952 
	C75.455826,60.325546 76.006088,54.649624 80.663475,50.071503 
z"/>
<path fill="#406DB2" opacity="1.000000" stroke="none" 
	d="
M82.007393,213.418304 
	C83.423500,213.515335 85.003593,213.893967 86.568680,214.326843 
	C90.952087,215.539246 95.325836,217.827896 99.709473,217.842300 
	C168.007736,218.066833 236.307404,217.886307 304.605438,218.144669 
	C312.805420,218.175674 320.303314,217.032913 327.770264,213.079529 
	C323.978882,217.872818 318.517365,219.185913 312.468750,219.172409 
	C293.166229,219.129303 273.863556,219.161652 254.560959,219.162018 
	C203.142776,219.162979 151.724396,219.092102 100.306694,219.247330 
	C93.522888,219.267807 87.475945,217.992371 82.007393,213.418304 
z"/>
<path fill="#3F6DA9" opacity="1.000000" stroke="none" 
	d="
M319.647522,43.725403 
	C254.395035,43.992237 188.825577,43.956299 123.256294,44.049953 
	C111.982368,44.066055 100.709244,44.633652 88.959747,44.906090 
	C91.004105,44.240086 93.523697,43.071426 96.044907,43.067921 
	C168.651169,42.966938 241.257614,42.979141 313.864014,42.999969 
	C315.686218,43.000492 317.508392,43.304157 319.647522,43.725403 
z"/>
<path fill="#406DB2" opacity="1.000000" stroke="none" 
	d="
M331.437134,208.950714 
	C331.752106,202.425873 332.868744,195.692200 332.905060,188.952682 
	C333.087921,155.003174 333.041443,121.052017 332.961243,87.101707 
	C332.932251,74.830826 334.223785,62.382095 329.035767,50.250515 
	C330.722839,53.667282 333.810791,57.479904 333.840607,61.316288 
	C334.197632,107.256805 334.148376,153.200989 334.020050,199.143677 
	C334.011108,202.344284 332.534637,205.540787 331.437134,208.950714 
z"/>
<path fill="#517CBB" opacity="1.000000" stroke="none" 
	d="
M64.379242,250.822388 
	C64.338371,251.741943 64.294586,253.101685 63.592678,253.765106 
	C58.947094,258.155945 54.160252,262.397339 49.051125,266.724335 
	C53.812538,261.487671 58.942215,256.214081 64.379242,250.822388 
z"/>
<path fill="#517CBB" opacity="1.000000" stroke="none" 
	d="
M358.113495,263.479980 
	C356.204559,262.021790 354.180756,260.254974 352.197205,258.127472 
	C354.157837,259.568329 356.078217,261.369843 358.113495,263.479980 
z"/>
<path fill="#517CBB" opacity="1.000000" stroke="none" 
	d="
M69.774818,245.326309 
	C70.064758,245.183899 70.072975,245.608627 70.081757,245.821259 
	C68.533661,247.584885 66.976784,249.135880 65.051193,250.724182 
	C66.283287,248.997223 67.884079,247.232971 69.774818,245.326309 
z"/>
<path fill="#406DB2" opacity="1.000000" stroke="none" 
	d="
M78.862915,209.393799 
	C79.859062,210.171478 80.906418,211.276764 81.920944,212.766968 
	C80.896782,212.008392 79.905449,210.864914 78.862915,209.393799 
z"/>
<path fill="#406DB2" opacity="1.000000" stroke="none" 
	d="
M328.418030,213.013260 
	C328.895447,211.802994 329.666443,210.452408 330.818542,209.118164 
	C330.370300,210.380646 329.540955,211.626801 328.418030,213.013260 
z"/>
<path fill="#3F6DA9" opacity="1.000000" stroke="none" 
	d="
M84.499405,46.812172 
	C84.094009,47.483356 83.386528,48.231651 82.303818,48.977074 
	C82.684822,48.279228 83.441063,47.584255 84.499405,46.812172 
z"/>
<path fill="#3F6BAF" opacity="1.000000" stroke="none" 
	d="
M347.114258,252.631058 
	C346.886475,252.713577 346.570465,252.530457 346.174561,252.074707 
	C346.405121,251.989853 346.715576,252.177628 347.114258,252.631058 
z"/>
<path fill="#3F6DA9" opacity="1.000000" stroke="none" 
	d="
M85.740105,45.973404 
	C85.793869,46.226021 85.556923,46.499710 85.042969,46.816483 
	C84.993767,46.571201 85.221581,46.282841 85.740105,45.973404 
z"/>
<path fill="#517CBB" opacity="1.000000" stroke="none" 
	d="
M360.146973,265.574005 
	C359.914795,265.657379 359.600403,265.484528 359.234131,265.034241 
	C359.476440,264.943817 359.770569,265.130798 360.146973,265.574005 
z"/>
<path fill="#517CBB" opacity="1.000000" stroke="none" 
	d="
M359.156433,264.557007 
	C358.923279,264.647491 358.604492,264.482117 358.228027,264.040039 
	C358.470490,263.942566 358.770630,264.121887 359.156433,264.557007 
z"/>
<path fill="#3F6DA9" opacity="1.000000" stroke="none" 
	d="
M87.671921,44.986610 
	C87.686356,45.240871 87.375122,45.520500 86.740852,45.843079 
	C86.727303,45.594681 87.036781,45.303333 87.671921,44.986610 
z"/>
<path fill="#3F6BAF" opacity="1.000000" stroke="none" 
	d="
M352.124390,257.600769 
	C351.900146,257.685181 351.582733,257.507965 351.183777,257.059540 
	C351.411835,256.971924 351.721527,257.155548 352.124390,257.600769 
z"/>
<path fill="#3F6BAF" opacity="1.000000" stroke="none" 
	d="
M351.121338,256.619812 
	C350.891663,256.708466 350.570984,256.531433 350.168518,256.081207 
	C350.401245,255.990051 350.715790,256.172058 351.121338,256.619812 
z"/>
<path fill="#3F6BAF" opacity="1.000000" stroke="none" 
	d="
M350.110260,255.640579 
	C349.877563,255.721146 349.563873,255.532089 349.176575,255.067749 
	C349.411713,254.985306 349.720490,255.178146 350.110260,255.640579 
z"/>
<path fill="#3F6BAF" opacity="1.000000" stroke="none" 
	d="
M349.120514,254.626511 
	C348.889557,254.712036 348.571533,254.530396 348.173767,254.075104 
	C348.407135,253.987411 348.720306,254.173386 349.120514,254.626511 
z"/>
<path fill="#3F6BAF" opacity="1.000000" stroke="none" 
	d="
M348.113495,253.635223 
	C347.883057,253.716660 347.567993,253.530884 347.176392,253.071136 
	C347.409485,252.987473 347.719177,253.177750 348.113495,253.635223 
z"/>
<path fill="#3F6BAF" opacity="1.000000" stroke="none" 
	d="
M339.114807,244.630951 
	C338.883942,244.716797 338.566467,244.534943 338.168823,244.079956 
	C338.401886,243.992310 338.715027,244.177780 339.114807,244.630951 
z"/>
<path fill="#3F6BAF" opacity="1.000000" stroke="none" 
	d="
M346.114502,251.633911 
	C345.883911,251.713531 345.569611,251.525238 345.181213,251.061462 
	C345.415009,250.979324 345.722900,251.172668 346.114502,251.633911 
z"/>
<path fill="#3F6BAF" opacity="1.000000" stroke="none" 
	d="
M338.102142,243.626709 
	C337.881714,243.759064 337.571228,243.621994 337.139404,243.254486 
	C337.349426,243.135117 337.680756,243.246201 338.102142,243.626709 
z"/>
<path fill="#3F6BAF" opacity="1.000000" stroke="none" 
	d="
M345.132874,250.617386 
	C344.895752,250.707748 344.575226,250.528412 344.174683,250.074432 
	C344.412933,249.982422 344.731201,250.165054 345.132874,250.617386 
z"/>
<path fill="#3F6BAF" opacity="1.000000" stroke="none" 
	d="
M344.115692,249.633362 
	C343.884369,249.714386 343.568878,249.527130 343.179749,249.063843 
	C343.414551,248.980225 343.723053,249.172653 344.115692,249.633362 
z"/>
<path fill="#3F6BAF" opacity="1.000000" stroke="none" 
	d="
M343.126465,248.621490 
	C342.893433,248.708481 342.574249,248.526993 342.176758,248.070526 
	C342.412415,247.981369 342.726379,248.167191 343.126465,248.621490 
z"/>
<path fill="#3F6BAF" opacity="1.000000" stroke="none" 
	d="
M342.115784,247.632233 
	C341.887177,247.712997 341.571075,247.527618 341.178711,247.067581 
	C341.411072,246.983978 341.719727,247.175018 342.115784,247.632233 
z"/>
<path fill="#3F6BAF" opacity="1.000000" stroke="none" 
	d="
M341.119446,246.626465 
	C340.889648,246.710846 340.572021,246.528595 340.175049,246.072571 
	C340.407684,245.985794 340.719666,246.172806 341.119446,246.626465 
z"/>
<path fill="#3F6BAF" opacity="1.000000" stroke="none" 
	d="
M340.115997,245.632141 
	C339.884796,245.715561 339.568390,245.531219 339.174133,245.072952 
	C339.407776,244.987473 339.719299,245.175934 340.115997,245.632141 
z"/>
<path fill="#FEFFFF" opacity="1.000000" stroke="none" 
	d="
M297.927917,181.953217 
	C293.933136,182.015259 289.938324,182.130463 285.943512,182.131302 
	C230.140442,182.142929 174.337372,182.138916 118.534294,182.138718 
	C116.561836,182.138718 114.589386,182.138733 111.964851,182.138733 
	C111.964851,147.849564 111.964851,113.944000 112.483612,79.598495 
	C171.827164,79.154907 230.651932,79.153458 289.476715,79.140060 
	C291.971619,79.139496 294.466553,79.028091 296.961456,78.968315 
	C296.961456,78.968315 297.334961,79.137421 297.606323,79.592888 
	C297.894409,114.016640 297.911163,147.984924 297.927917,181.953217 
z"/>
<path fill="#3B6AAE" opacity="1.000000" stroke="none" 
	d="
M296.671356,78.673187 
	C294.466553,79.028091 291.971619,79.139496 289.476715,79.140060 
	C230.651932,79.153458 171.827164,79.154907 112.541969,79.140457 
	C113.441650,78.747124 114.801437,78.044876 116.161873,78.043640 
	C175.422501,77.989861 234.683167,77.996620 293.943848,78.014626 
	C294.756348,78.014877 295.568787,78.251663 296.671356,78.673187 
z"/>
<path fill="#476BA6" opacity="1.000000" stroke="none" 
	d="
M298.267242,181.804749 
	C297.911163,147.984924 297.894409,114.016640 297.811218,79.597336 
	C298.170013,80.960503 298.960999,82.773735 298.965759,84.589035 
	C299.042999,113.981926 299.032227,143.375107 299.002411,172.768173 
	C298.999420,175.731003 298.744568,178.693573 298.267242,181.804749 
z"/>
</svg>