<svg version="1.1" id="Layer_1" xmlns="http://www.w3.org/2000/svg" xmlns:xlink="http://www.w3.org/1999/xlink" x="0px" y="0px"
	 width="100%" viewBox="0 0 588 500" enable-background="new 0 0 588 500" xml:space="preserve">
<path fill="#FEFFFF" opacity="1.000000" stroke="none" 
	d="
M420.000000,501.000000 
	C280.032043,501.000000 140.564087,501.000000 1.048068,501.000000 
	C1.048068,334.403687 1.048068,167.807343 1.048068,1.105497 
	C196.884598,1.105497 392.769257,1.105497 588.826965,1.105497 
	C588.826965,167.666519 588.826965,334.333252 588.826965,501.000000 
	C532.807373,501.000000 476.653687,501.000000 420.000000,501.000000 
M283.232178,421.166809 
	C283.749786,417.098022 284.267365,413.029205 285.002350,408.166931 
	C285.299988,406.236664 285.597626,404.306366 285.958038,401.969055 
	C283.662201,401.969055 281.685608,401.969971 279.709015,401.968872 
	C220.497162,401.936493 161.285294,401.903931 101.589981,401.424225 
	C100.153343,400.429535 98.716705,399.434845 96.881927,398.164490 
	C96.881927,404.383179 96.633118,410.166931 97.011452,415.909393 
	C97.151482,418.034882 98.765480,420.063263 100.174614,422.793488 
	C102.756119,423.204895 105.336945,423.969788 107.919243,423.974792 
	C147.655106,424.051544 187.391174,424.029510 227.127182,424.030243 
	C244.418167,424.030548 261.709473,424.074615 278.999451,423.943573 
	C280.331299,423.933502 281.653809,422.689117 283.232178,421.166809 
M396.620422,315.450928 
	C388.253174,310.337219 380.413971,303.864410 371.417969,300.369019 
	C346.190887,290.567139 321.444550,313.845154 318.074280,335.435608 
	C314.405182,358.940613 310.821106,382.463593 307.642517,406.038422 
	C306.178894,416.894043 305.522888,427.880005 305.000427,438.830719 
	C304.782654,443.394745 306.337189,447.974945 310.899872,450.200562 
	C326.422668,457.772461 346.241302,453.750641 354.681793,441.135040 
	C362.625153,429.262451 369.949829,416.968628 377.302185,404.713440 
	C378.929779,402.000458 380.422852,400.738556 383.791992,400.763641 
	C407.784241,400.942200 431.778931,400.935944 455.771332,400.769836 
	C459.155212,400.746399 460.625641,402.068085 462.265137,404.802246 
	C469.613922,417.057587 477.249146,429.142151 484.852020,441.243713 
	C488.100006,446.413513 493.077515,449.312378 498.653107,451.442932 
	C506.908478,454.597473 515.106018,454.739532 523.590698,452.154236 
	C531.471863,449.752899 534.456299,446.611115 534.969055,438.460663 
	C535.104614,436.305237 535.140015,434.109131 534.892578,431.969757 
	C533.477600,419.737091 532.165527,407.487244 530.435669,395.297546 
	C527.818115,376.852692 524.342712,358.513519 522.261658,340.013580 
	C520.634644,325.549347 514.027344,314.528900 502.737640,306.072784 
	C489.073486,295.838165 474.215179,295.455811 459.964508,304.635529 
	C454.231110,308.328735 448.629486,312.226562 442.038818,315.975555 
	C427.041931,315.973877 412.045074,315.972168 396.620422,315.450928 
M238.500061,52.607666 
	C197.339279,52.608097 156.178497,52.603745 115.017715,52.612816 
	C106.329575,52.614731 104.294121,54.687508 104.096046,63.528324 
	C103.849754,74.521111 103.561050,85.512962 103.318672,96.505829 
	C101.511612,178.461548 99.707558,260.417328 97.917450,342.373413 
	C97.788605,348.272491 98.783501,349.343994 104.567261,349.799225 
	C105.892830,349.903564 107.231865,349.847076 108.564705,349.847168 
	C167.889648,349.850952 227.214737,349.798401 286.539307,349.951569 
	C291.635406,349.964722 294.847198,349.499786 294.286896,343.235718 
	C294.060150,340.700684 295.503632,338.062592 295.778748,335.428741 
	C297.438232,319.541290 304.138489,306.162415 315.436066,294.956055 
	C332.399994,278.129089 352.500458,271.452026 375.635895,278.214722 
	C383.886963,280.626556 391.180328,286.321533 398.900665,290.536560 
	C400.495972,291.407532 402.029022,293.119110 403.619568,293.154602 
	C414.203827,293.391022 424.795898,293.277161 435.332733,293.277161 
	C435.332733,287.890930 435.415161,283.092438 435.320374,278.297424 
	C433.911133,206.998520 432.468567,135.700272 431.062378,64.401299 
	C430.862915,54.285809 429.213257,52.597450 418.974670,52.597675 
	C359.149811,52.598999 299.324951,52.603710 238.500061,52.607666 
M236.500000,387.014221 
	C253.580658,387.014221 270.661316,387.014221 287.770447,387.014221 
	C288.958496,379.307190 290.033539,372.333344 291.187164,364.849762 
	C288.508301,364.849762 286.542267,364.849762 284.576233,364.849762 
	C226.960983,364.849823 169.345703,364.878235 111.730583,364.795929 
	C107.144325,364.789398 102.559174,364.016815 97.894485,363.593048 
	C97.715134,367.317108 97.486565,371.631439 97.303787,375.947723 
	C96.920715,384.993988 98.891029,387.007690 108.113701,387.008667 
	C150.575806,387.013092 193.037903,387.012817 236.500000,387.014221 
z"/>
<path fill="#306ECB" opacity="1.000000" stroke="none" 
	d="
M239.000061,52.607468 
	C299.324951,52.603710 359.149811,52.598999 418.974670,52.597675 
	C429.213257,52.597450 430.862915,54.285809 431.062378,64.401299 
	C432.468567,135.700272 433.911133,206.998520 435.320374,278.297424 
	C435.415161,283.092438 435.332733,287.890930 435.332733,293.277161 
	C424.795898,293.277161 414.203827,293.391022 403.619568,293.154602 
	C402.029022,293.119110 400.495972,291.407532 398.900665,290.536560 
	C391.180328,286.321533 383.886963,280.626556 375.635895,278.214722 
	C352.500458,271.452026 332.399994,278.129089 315.436066,294.956055 
	C304.138489,306.162415 297.438232,319.541290 295.778748,335.428741 
	C295.503632,338.062592 294.060150,340.700684 294.286896,343.235718 
	C294.847198,349.499786 291.635406,349.964722 286.539307,349.951569 
	C227.214737,349.798401 167.889648,349.850952 108.564705,349.847168 
	C107.231865,349.847076 105.892830,349.903564 104.567261,349.799225 
	C98.783501,349.343994 97.788605,348.272491 97.917450,342.373413 
	C99.707558,260.417328 101.511612,178.461548 103.318672,96.505829 
	C103.561050,85.512962 103.849754,74.521111 104.096046,63.528324 
	C104.294121,54.687508 106.329575,52.614731 115.017715,52.612816 
	C156.178497,52.603745 197.339279,52.608097 239.000061,52.607468 
z"/>
<path fill="#306FCA" opacity="1.000000" stroke="none" 
	d="
M442.967896,316.031250 
	C448.629486,312.226562 454.231110,308.328735 459.964508,304.635529 
	C474.215179,295.455811 489.073486,295.838165 502.737640,306.072784 
	C514.027344,314.528900 520.634644,325.549347 522.261658,340.013580 
	C524.342712,358.513519 527.818115,376.852692 530.435669,395.297546 
	C532.165527,407.487244 533.477600,419.737091 534.892578,431.969757 
	C535.140015,434.109131 535.104614,436.305237 534.969055,438.460663 
	C534.456299,446.611115 531.471863,449.752899 523.590698,452.154236 
	C515.106018,454.739532 506.908478,454.597473 498.653107,451.442932 
	C493.077515,449.312378 488.100006,446.413513 484.852020,441.243713 
	C477.249146,429.142151 469.613922,417.057587 462.265137,404.802246 
	C460.625641,402.068085 459.155212,400.746399 455.771332,400.769836 
	C431.778931,400.935944 407.784241,400.942200 383.791992,400.763641 
	C380.422852,400.738556 378.929779,402.000458 377.302185,404.713440 
	C369.949829,416.968628 362.625153,429.262451 354.681793,441.135040 
	C346.241302,453.750641 326.422668,457.772461 310.899872,450.200562 
	C306.337189,447.974945 304.782654,443.394745 305.000427,438.830719 
	C305.522888,427.880005 306.178894,416.894043 307.642517,406.038422 
	C310.821106,382.463593 314.405182,358.940613 318.074280,335.435608 
	C321.444550,313.845154 346.190887,290.567139 371.417969,300.369019 
	C380.413971,303.864410 388.253174,310.337219 397.110535,316.019958 
	C412.162415,316.712006 426.724060,316.845428 441.286072,316.918274 
	C441.845154,316.921082 442.407227,316.340179 442.967896,316.031250 
z"/>
<path fill="#316EC9" opacity="1.000000" stroke="none" 
	d="
M236.000000,387.014221 
	C193.037903,387.012817 150.575806,387.013092 108.113701,387.008667 
	C98.891029,387.007690 96.920715,384.993988 97.303787,375.947723 
	C97.486565,371.631439 97.715134,367.317108 97.894485,363.593048 
	C102.559174,364.016815 107.144325,364.789398 111.730583,364.795929 
	C169.345703,364.878235 226.960983,364.849823 284.576233,364.849762 
	C286.542267,364.849762 288.508301,364.849762 291.187164,364.849762 
	C290.033539,372.333344 288.958496,379.307190 287.770447,387.014221 
	C270.661316,387.014221 253.580658,387.014221 236.000000,387.014221 
z"/>
<path fill="#306ECA" opacity="1.000000" stroke="none" 
	d="
M284.784973,408.960419 
	C284.267365,413.029205 283.749786,417.098022 282.722168,421.751526 
	C280.086334,422.553802 277.960663,422.959930 275.834686,422.961273 
	C220.581329,422.996002 165.327927,423.004028 110.074593,422.952179 
	C106.618568,422.948944 103.163025,422.420197 99.707260,422.135925 
	C98.765480,420.063263 97.151482,418.034882 97.011452,415.909393 
	C96.633118,410.166931 96.881927,404.383179 96.881927,398.164490 
	C98.716705,399.434845 100.153343,400.429535 102.082993,401.980103 
	C104.544395,402.694946 106.512711,402.991882 108.481163,402.992767 
	C164.738449,403.017853 220.995758,403.013214 277.253052,403.013336 
	C279.351440,403.013367 281.449799,403.013367 283.359863,403.013367 
	C283.953644,405.491272 284.369324,407.225830 284.784973,408.960419 
z"/>
<path fill="#456CA7" opacity="1.000000" stroke="none" 
	d="
M284.893677,408.563660 
	C284.369324,407.225830 283.953644,405.491272 283.359863,403.013367 
	C281.449799,403.013367 279.351440,403.013367 277.253052,403.013336 
	C220.995758,403.013214 164.738449,403.017853 108.481163,402.992767 
	C106.512711,402.991882 104.544395,402.694946 102.324722,402.203674 
	C161.285294,401.903931 220.497162,401.936493 279.709015,401.968872 
	C281.685608,401.969971 283.662201,401.969055 285.958038,401.969055 
	C285.597626,404.306366 285.299988,406.236664 284.893677,408.563660 
z"/>
<path fill="#456CA7" opacity="1.000000" stroke="none" 
	d="
M99.940933,422.464722 
	C103.163025,422.420197 106.618568,422.948944 110.074593,422.952179 
	C165.327927,423.004028 220.581329,422.996002 275.834686,422.961273 
	C277.960663,422.959930 280.086334,422.553802 282.596436,422.177368 
	C281.653809,422.689117 280.331299,423.933502 278.999451,423.943573 
	C261.709473,424.074615 244.418167,424.030548 227.127182,424.030243 
	C187.391174,424.029510 147.655106,424.051544 107.919243,423.974792 
	C105.336945,423.969788 102.756119,423.204895 99.940933,422.464722 
z"/>
<path fill="#456BA7" opacity="1.000000" stroke="none" 
	d="
M442.503357,316.003418 
	C442.407227,316.340179 441.845154,316.921082 441.286072,316.918274 
	C426.724060,316.845428 412.162415,316.712006 397.324432,316.279755 
	C412.045074,315.972168 427.041931,315.973877 442.503357,316.003418 
z"/>
</svg>