<svg version="1.1" id="Layer_1" xmlns="http://www.w3.org/2000/svg" xmlns:xlink="http://www.w3.org/1999/xlink" x="0px" y="0px"
	 width="100%" viewBox="0 0 776 848" enable-background="new 0 0 776 848" xml:space="preserve">
<path fill="#FEFEFF" opacity="1.000000" stroke="none" 
	d="
M401.000000,849.000000 
	C267.333344,849.000000 134.166672,849.000000 1.000000,849.000000 
	C1.000000,566.333313 1.000000,283.666656 1.000000,1.000000 
	C259.666656,1.000000 518.333313,1.000000 777.000000,1.000000 
	C777.000000,283.666656 777.000000,566.333313 777.000000,849.000000 
	C651.833313,849.000000 526.666687,849.000000 401.000000,849.000000 
M150.083435,68.341835 
	C144.297440,67.722542 138.498077,67.206451 132.728653,66.459213 
	C124.542648,65.398972 122.659195,67.488564 123.564110,75.835167 
	C124.944847,88.570526 126.016922,101.340736 127.109863,114.105583 
	C128.657410,132.180069 130.066925,150.266357 131.604767,168.341690 
	C133.354156,188.903427 135.348831,209.445694 136.926620,230.020233 
	C138.619354,252.093842 139.971954,274.193726 141.436111,296.284607 
	C143.935364,333.992737 146.839706,371.680756 148.756699,409.418701 
	C150.412689,442.019165 151.086533,474.673431 151.911774,507.311066 
	C152.758209,540.787720 153.460785,574.270508 153.867859,607.755005 
	C154.465408,656.908386 154.743835,706.065674 155.161072,755.221252 
	C155.175217,756.886719 154.638657,758.916809 155.397156,760.125061 
	C156.348724,761.640869 158.497635,763.582886 159.913956,763.423462 
	C165.790314,762.762024 168.952515,758.664673 168.890396,752.709656 
	C168.342972,700.225647 167.777115,647.741821 167.220367,595.257935 
	C166.810318,556.603271 166.492386,517.947449 165.965607,479.294403 
	C165.659088,456.803009 165.298737,434.305939 164.474976,411.829315 
	C162.797409,366.056152 160.760818,320.296204 158.930283,274.528503 
	C158.044907,252.392212 157.598618,230.233719 156.381683,208.116760 
	C155.379196,189.897507 155.745316,171.939362 160.753998,154.219009 
	C165.960678,135.798218 175.277542,120.057114 190.116119,107.865601 
	C198.687195,100.823532 208.258957,94.783531 219.469025,94.140739 
	C232.723907,93.380699 246.079712,94.412003 259.392639,94.605202 
	C261.992035,94.642937 263.016968,95.756409 262.695679,98.315674 
	C261.101013,111.018631 259.487762,123.719574 257.973480,136.432236 
	C256.301514,150.468933 254.692871,164.513474 253.124313,178.562134 
	C251.389572,194.099350 249.717697,209.643631 248.043991,225.187592 
	C246.388016,240.566956 244.706177,255.943909 243.141968,271.332733 
	C241.560852,286.887756 240.153793,302.460449 238.590622,318.017365 
	C236.844070,335.399048 234.778198,352.751709 233.263504,370.152924 
	C230.925720,397.009949 228.988556,423.901550 226.789078,450.770966 
	C224.358429,480.464508 221.633972,510.135162 219.382080,539.841858 
	C216.538498,577.353882 213.851746,614.880005 211.451279,652.422729 
	C209.028854,690.308838 207.016022,728.221252 204.876114,766.125183 
	C204.307190,776.202148 205.937317,777.518494 215.913879,775.519897 
	C216.240143,775.454590 216.555496,775.330627 216.882935,775.276001 
	C227.693054,773.474854 238.501617,771.664246 249.315552,769.886292 
	C258.987946,768.296143 268.685791,766.852417 278.337463,765.146301 
	C291.251038,762.863586 304.146362,760.470276 317.020996,757.977051 
	C331.197754,755.231628 345.344879,752.332397 359.498932,749.470764 
	C363.277496,748.706848 364.343445,746.551331 363.846039,742.622009 
	C361.243195,722.060059 363.657532,701.634338 367.613129,681.566162 
	C371.001465,664.375977 375.948364,647.437744 381.107605,630.665466 
	C387.930420,608.484863 397.116028,587.244812 413.050964,569.890503 
	C426.138733,555.637024 442.676819,547.058105 461.845032,544.034424 
	C468.669800,542.957825 469.141876,542.548035 468.460236,535.526917 
	C466.530731,515.652893 464.683777,495.768860 463.050323,475.868591 
	C461.185089,453.144043 459.431335,430.408020 457.906311,407.658417 
	C455.723724,375.100342 453.208069,342.548798 451.904694,309.951660 
	C450.340790,270.838715 449.639526,231.684708 449.056580,192.541153 
	C448.570251,159.884537 448.755829,127.217354 448.753815,94.554855 
	C448.753571,90.825294 447.950043,87.805191 444.130280,86.703979 
	C440.319214,85.605278 436.407990,84.781883 432.491791,84.132843 
	C418.567841,81.825203 404.630219,79.596786 390.683868,77.428123 
	C378.698639,75.564400 366.708038,73.725189 354.694916,72.054131 
	C341.196198,70.176430 327.675873,68.449417 314.153259,66.749695 
	C301.304749,65.134697 288.468170,63.330467 275.574402,62.203732 
	C267.393921,61.488873 267.302185,62.068966 265.630890,70.223602 
	C264.941254,73.588593 264.928650,78.764427 262.914368,79.789978 
	C259.966888,81.290642 255.494827,79.804420 251.673676,79.572327 
	C251.178345,79.542236 250.693298,79.368324 250.197678,79.314407 
	C234.155792,77.569740 218.111740,75.845032 202.071106,74.088898 
	C185.039948,72.224319 168.011963,70.330841 150.083435,68.341835 
M647.120178,591.376953 
	C643.368408,588.943420 639.842590,586.017212 635.820618,584.172913 
	C625.572083,579.473083 614.791016,577.455444 603.954346,581.796265 
	C597.380676,584.429443 591.311523,588.300049 584.905579,591.386108 
	C582.616760,592.488770 579.999695,593.567871 577.539734,593.551636 
	C560.584229,593.439697 543.588501,592.193298 526.691956,593.037781 
	C516.418823,593.551086 507.522614,593.326965 498.747070,586.843079 
	C489.007446,579.646912 477.521423,578.018433 465.508026,581.065491 
	C446.829193,585.803162 434.698639,597.826782 426.961945,614.952759 
	C415.155823,641.086792 407.113098,668.295349 402.764526,696.669800 
	C399.761200,716.266418 399.120026,735.781250 403.096130,755.242615 
	C405.052734,764.819519 409.207794,773.735413 419.048279,777.208374 
	C426.446442,779.819397 434.493286,781.169189 442.351349,781.767822 
	C454.760254,782.713257 455.671539,781.691772 460.453461,770.364014 
	C460.710297,769.755554 460.783539,769.070374 461.032135,768.457458 
	C466.323761,755.410950 471.363770,742.253540 477.023682,729.368469 
	C480.776672,720.824646 486.383240,713.995239 497.032898,714.005981 
	C529.198425,714.038513 561.364197,713.963196 593.529358,714.069519 
	C600.154419,714.091431 606.194519,716.088562 609.405701,722.513550 
	C614.124023,731.954163 618.673340,741.486572 623.016235,751.105530 
	C627.023071,759.980103 630.620117,769.038879 634.487915,777.977478 
	C635.805969,781.023621 638.128967,782.538574 641.632080,782.032959 
	C650.455566,780.759399 659.275146,779.432007 668.128235,778.399536 
	C675.199036,777.574951 679.706787,773.207642 682.665222,767.489502 
	C685.297180,762.402222 687.515320,756.844482 688.569031,751.241028 
	C693.370117,725.708923 690.291199,700.398682 684.173401,675.565369 
	C680.103333,659.044128 674.584534,642.817139 668.733398,626.817078 
	C664.022095,613.933899 658.784912,601.013428 647.120178,591.376953 
z"/>
<path fill="#2E489D" opacity="1.000000" stroke="none" 
	d="
M150.533020,68.395905 
	C168.011963,70.330841 185.039948,72.224319 202.071106,74.088898 
	C218.111740,75.845032 234.155792,77.569740 250.197678,79.314407 
	C250.693298,79.368324 251.178345,79.542236 251.673676,79.572327 
	C255.494827,79.804420 259.966888,81.290642 262.914368,79.789978 
	C264.928650,78.764427 264.941254,73.588593 265.630890,70.223602 
	C267.302185,62.068966 267.393921,61.488873 275.574402,62.203732 
	C288.468170,63.330467 301.304749,65.134697 314.153259,66.749695 
	C327.675873,68.449417 341.196198,70.176430 354.694916,72.054131 
	C366.708038,73.725189 378.698639,75.564400 390.683868,77.428123 
	C404.630219,79.596786 418.567841,81.825203 432.491791,84.132843 
	C436.407990,84.781883 440.319214,85.605278 444.130280,86.703979 
	C447.950043,87.805191 448.753571,90.825294 448.753815,94.554855 
	C448.755829,127.217354 448.570251,159.884537 449.056580,192.541153 
	C449.639526,231.684708 450.340790,270.838715 451.904694,309.951660 
	C453.208069,342.548798 455.723724,375.100342 457.906311,407.658417 
	C459.431335,430.408020 461.185089,453.144043 463.050323,475.868591 
	C464.683777,495.768860 466.530731,515.652893 468.460236,535.526917 
	C469.141876,542.548035 468.669800,542.957825 461.845032,544.034424 
	C442.676819,547.058105 426.138733,555.637024 413.050964,569.890503 
	C397.116028,587.244812 387.930420,608.484863 381.107605,630.665466 
	C375.948364,647.437744 371.001465,664.375977 367.613129,681.566162 
	C363.657532,701.634338 361.243195,722.060059 363.846039,742.622009 
	C364.343445,746.551331 363.277496,748.706848 359.498932,749.470764 
	C345.344879,752.332397 331.197754,755.231628 317.020996,757.977051 
	C304.146362,760.470276 291.251038,762.863586 278.337463,765.146301 
	C268.685791,766.852417 258.987946,768.296143 249.315552,769.886292 
	C238.501617,771.664246 227.693054,773.474854 216.882935,775.276001 
	C216.555496,775.330627 216.240143,775.454590 215.913879,775.519897 
	C205.937317,777.518494 204.307190,776.202148 204.876114,766.125183 
	C207.016022,728.221252 209.028854,690.308838 211.451279,652.422729 
	C213.851746,614.880005 216.538498,577.353882 219.382080,539.841858 
	C221.633972,510.135162 224.358429,480.464508 226.789078,450.770966 
	C228.988556,423.901550 230.925720,397.009949 233.263504,370.152924 
	C234.778198,352.751709 236.844070,335.399048 238.590622,318.017365 
	C240.153793,302.460449 241.560852,286.887756 243.141968,271.332733 
	C244.706177,255.943909 246.388016,240.566956 248.043991,225.187592 
	C249.717697,209.643631 251.389572,194.099350 253.124313,178.562134 
	C254.692871,164.513474 256.301514,150.468933 257.973480,136.432236 
	C259.487762,123.719574 261.101013,111.018631 262.695679,98.315674 
	C263.016968,95.756409 261.992035,94.642937 259.392639,94.605202 
	C246.079712,94.412003 232.723907,93.380699 219.469025,94.140739 
	C208.258957,94.783531 198.687195,100.823532 190.116119,107.865601 
	C175.277542,120.057114 165.960678,135.798218 160.753998,154.219009 
	C155.745316,171.939362 155.379196,189.897507 156.381683,208.116760 
	C157.598618,230.233719 158.044907,252.392212 158.930283,274.528503 
	C160.760818,320.296204 162.797409,366.056152 164.474976,411.829315 
	C165.298737,434.305939 165.659088,456.803009 165.965607,479.294403 
	C166.492386,517.947449 166.810318,556.603271 167.220367,595.257935 
	C167.777115,647.741821 168.342972,700.225647 168.890396,752.709656 
	C168.952515,758.664673 165.790314,762.762024 159.913956,763.423462 
	C158.497635,763.582886 156.348724,761.640869 155.397156,760.125061 
	C154.638657,758.916809 155.175217,756.886719 155.161072,755.221252 
	C154.743835,706.065674 154.465408,656.908386 153.867859,607.755005 
	C153.460785,574.270508 152.758209,540.787720 151.911774,507.311066 
	C151.086533,474.673431 150.412689,442.019165 148.756699,409.418701 
	C146.839706,371.680756 143.935364,333.992737 141.436111,296.284607 
	C139.971954,274.193726 138.619354,252.093842 136.926620,230.020233 
	C135.348831,209.445694 133.354156,188.903427 131.604767,168.341690 
	C130.066925,150.266357 128.657410,132.180069 127.109863,114.105583 
	C126.016922,101.340736 124.944847,88.570526 123.564110,75.835167 
	C122.659195,67.488564 124.542648,65.398972 132.728653,66.459213 
	C138.498077,67.206451 144.297440,67.722542 150.533020,68.395905 
z"/>
<path fill="#2E489D" opacity="1.000000" stroke="none" 
	d="
M647.380066,591.613281 
	C658.784912,601.013428 664.022095,613.933899 668.733398,626.817078 
	C674.584534,642.817139 680.103333,659.044128 684.173401,675.565369 
	C690.291199,700.398682 693.370117,725.708923 688.569031,751.241028 
	C687.515320,756.844482 685.297180,762.402222 682.665222,767.489502 
	C679.706787,773.207642 675.199036,777.574951 668.128235,778.399536 
	C659.275146,779.432007 650.455566,780.759399 641.632080,782.032959 
	C638.128967,782.538574 635.805969,781.023621 634.487915,777.977478 
	C630.620117,769.038879 627.023071,759.980103 623.016235,751.105530 
	C618.673340,741.486572 614.124023,731.954163 609.405701,722.513550 
	C606.194519,716.088562 600.154419,714.091431 593.529358,714.069519 
	C561.364197,713.963196 529.198425,714.038513 497.032898,714.005981 
	C486.383240,713.995239 480.776672,720.824646 477.023682,729.368469 
	C471.363770,742.253540 466.323761,755.410950 461.032135,768.457458 
	C460.783539,769.070374 460.710297,769.755554 460.453461,770.364014 
	C455.671539,781.691772 454.760254,782.713257 442.351349,781.767822 
	C434.493286,781.169189 426.446442,779.819397 419.048279,777.208374 
	C409.207794,773.735413 405.052734,764.819519 403.096130,755.242615 
	C399.120026,735.781250 399.761200,716.266418 402.764526,696.669800 
	C407.113098,668.295349 415.155823,641.086792 426.961945,614.952759 
	C434.698639,597.826782 446.829193,585.803162 465.508026,581.065491 
	C477.521423,578.018433 489.007446,579.646912 498.747070,586.843079 
	C507.522614,593.326965 516.418823,593.551086 526.691956,593.037781 
	C543.588501,592.193298 560.584229,593.439697 577.539734,593.551636 
	C579.999695,593.567871 582.616760,592.488770 584.905579,591.386108 
	C591.311523,588.300049 597.380676,584.429443 603.954346,581.796265 
	C614.791016,577.455444 625.572083,579.473083 635.820618,584.172913 
	C639.842590,586.017212 643.368408,588.943420 647.380066,591.613281 
z"/>
</svg>