<svg version="1.1" id="Layer_1" xmlns="http://www.w3.org/2000/svg" xmlns:xlink="http://www.w3.org/1999/xlink" x="0px" y="0px"
	 width="100%" viewBox="0 0 590 488" enable-background="new 0 0 590 488" xml:space="preserve">
<path fill="#FFFFFF" opacity="1.000000" stroke="none" 
	d="
M407.000000,489.000000 
	C271.364655,489.000000 136.229309,489.000000 1.046986,489.000000 
	C1.046986,326.402374 1.046986,163.804718 1.046986,1.103531 
	C197.552017,1.103531 394.104095,1.103531 590.828125,1.103531 
	C590.828125,163.666519 590.828125,326.333252 590.828125,489.000000 
	C529.804626,489.000000 468.652313,489.000000 407.000000,489.000000 
M233.088135,411.606750 
	C232.689072,419.092285 232.338547,426.580902 231.869278,434.062012 
	C231.654007,437.493988 232.020752,439.198456 236.478165,438.404572 
	C253.835815,435.312866 271.310272,432.880402 288.679047,429.846344 
	C299.404999,427.972687 310.018494,425.455017 320.268250,423.313049 
	C320.268250,420.228729 320.280396,417.759857 320.266388,415.291138 
	C320.109406,387.602356 327.248199,361.634674 339.122192,336.871063 
	C343.838348,327.035370 350.872925,318.970459 360.918549,314.305481 
	C366.557709,311.686798 372.694946,310.140778 378.947113,307.995026 
	C378.959442,307.815704 379.087921,307.165894 379.035645,306.530914 
	C377.587799,288.937531 375.832092,271.363892 374.720825,253.749527 
	C372.623718,220.508972 370.329102,187.264709 369.178192,153.985275 
	C368.089844,122.515968 368.305786,90.999893 368.116028,59.503372 
	C368.093628,55.788826 367.057343,54.248062 363.235535,53.705429 
	C334.408173,49.612446 305.620331,45.241856 276.797913,41.112785 
	C267.104614,39.724129 267.081482,39.930126 265.414581,49.529476 
	C265.339935,49.959064 264.966888,50.336830 264.637024,50.903282 
	C240.934372,48.408588 217.269440,45.971603 193.619873,43.393623 
	C187.140869,42.687366 186.431259,42.976627 186.943893,49.344261 
	C189.643250,82.873405 193.008667,116.359177 195.092712,149.925201 
	C198.137466,198.964249 200.946045,248.036255 202.625183,297.136292 
	C204.100067,340.263672 203.872269,383.449036 204.453003,426.608032 
	C204.477264,428.410370 205.074844,430.204987 205.406174,432.007843 
	C210.718033,430.916199 211.955597,428.155609 211.882156,423.639038 
	C210.798416,356.992188 210.020248,290.340149 208.839447,223.695206 
	C208.452927,201.879730 206.992264,180.085327 206.261154,158.273300 
	C205.641907,139.798447 204.295181,121.260635 205.179276,102.842308 
	C206.665009,71.889648 231.087524,51.838978 264.369598,59.028267 
	C250.418915,175.885178 240.507599,293.158356 233.088135,411.606750 
M352.222198,358.763367 
	C344.204773,379.131317 339.323761,400.030243 341.875549,422.104523 
	C343.529175,436.409027 348.461334,440.908264 363.147552,441.970886 
	C371.651489,442.586243 372.123291,442.295044 375.223358,434.391602 
	C375.769440,432.999359 376.203705,431.561646 376.783508,430.184418 
	C379.420593,423.920166 381.875214,417.565704 384.827087,411.452118 
	C386.735626,407.499390 389.543488,404.271545 394.684235,404.287384 
	C412.841064,404.343231 431.002197,404.096893 449.151123,404.474548 
	C451.964417,404.533081 455.995117,406.552795 457.273529,408.872253 
	C461.566376,416.660919 465.140930,424.885620 468.477722,433.150391 
	C472.185944,442.335205 472.946198,442.725159 482.723602,441.892365 
	C497.042023,440.672882 501.191376,433.802246 502.378174,422.489502 
	C505.368469,393.984985 497.790924,367.627228 484.646271,342.846069 
	C478.242218,330.772705 462.478241,325.706024 451.427551,332.074677 
	C443.461975,336.665314 435.628174,337.113800 427.159088,336.881531 
	C421.333405,336.721741 415.483429,336.640533 409.672699,336.992676 
	C404.853943,337.284668 400.768524,336.282898 396.548706,333.740204 
	C384.168884,326.280609 370.091339,328.779785 361.512726,340.403625 
	C357.646698,345.642029 355.491882,352.143311 352.222198,358.763367 
z"/>
<path fill="#316FCA" opacity="1.000000" stroke="none" 
	d="
M233.108459,411.129822 
	C240.507599,293.158356 250.418915,175.885178 264.369598,59.028267 
	C231.087524,51.838978 206.665009,71.889648 205.179276,102.842308 
	C204.295181,121.260635 205.641907,139.798447 206.261154,158.273300 
	C206.992264,180.085327 208.452927,201.879730 208.839447,223.695206 
	C210.020248,290.340149 210.798416,356.992188 211.882156,423.639038 
	C211.955597,428.155609 210.718033,430.916199 205.406174,432.007843 
	C205.074844,430.204987 204.477264,428.410370 204.453003,426.608032 
	C203.872269,383.449036 204.100067,340.263672 202.625183,297.136292 
	C200.946045,248.036255 198.137466,198.964249 195.092712,149.925201 
	C193.008667,116.359177 189.643250,82.873405 186.943893,49.344261 
	C186.431259,42.976627 187.140869,42.687366 193.619873,43.393623 
	C217.269440,45.971603 240.934372,48.408588 264.637024,50.903282 
	C264.966888,50.336830 265.339935,49.959064 265.414581,49.529476 
	C267.081482,39.930126 267.104614,39.724129 276.797913,41.112785 
	C305.620331,45.241856 334.408173,49.612446 363.235535,53.705429 
	C367.057343,54.248062 368.093628,55.788826 368.116028,59.503372 
	C368.305786,90.999893 368.089844,122.515968 369.178192,153.985275 
	C370.329102,187.264709 372.623718,220.508972 374.720825,253.749527 
	C375.832092,271.363892 377.587799,288.937531 379.035645,306.530914 
	C379.087921,307.165894 378.959442,307.815704 378.947113,307.995026 
	C372.694946,310.140778 366.557709,311.686798 360.918549,314.305481 
	C350.872925,318.970459 343.838348,327.035370 339.122192,336.871063 
	C327.248199,361.634674 320.109406,387.602356 320.266388,415.291138 
	C320.280396,417.759857 320.268250,420.228729 320.268250,423.313049 
	C310.018494,425.455017 299.404999,427.972687 288.679047,429.846344 
	C271.310272,432.880402 253.835815,435.312866 236.478165,438.404572 
	C232.020752,439.198456 231.654007,437.493988 231.869278,434.062012 
	C232.338547,426.580902 232.689072,419.092285 233.108459,411.129822 
z"/>
<path fill="#316FCA" opacity="1.000000" stroke="none" 
	d="
M352.391418,358.417480 
	C355.491882,352.143311 357.646698,345.642029 361.512726,340.403625 
	C370.091339,328.779785 384.168884,326.280609 396.548706,333.740204 
	C400.768524,336.282898 404.853943,337.284668 409.672699,336.992676 
	C415.483429,336.640533 421.333405,336.721741 427.159088,336.881531 
	C435.628174,337.113800 443.461975,336.665314 451.427551,332.074677 
	C462.478241,325.706024 478.242218,330.772705 484.646271,342.846069 
	C497.790924,367.627228 505.368469,393.984985 502.378174,422.489502 
	C501.191376,433.802246 497.042023,440.672882 482.723602,441.892365 
	C472.946198,442.725159 472.185944,442.335205 468.477722,433.150391 
	C465.140930,424.885620 461.566376,416.660919 457.273529,408.872253 
	C455.995117,406.552795 451.964417,404.533081 449.151123,404.474548 
	C431.002197,404.096893 412.841064,404.343231 394.684235,404.287384 
	C389.543488,404.271545 386.735626,407.499390 384.827087,411.452118 
	C381.875214,417.565704 379.420593,423.920166 376.783508,430.184418 
	C376.203705,431.561646 375.769440,432.999359 375.223358,434.391602 
	C372.123291,442.295044 371.651489,442.586243 363.147552,441.970886 
	C348.461334,440.908264 343.529175,436.409027 341.875549,422.104523 
	C339.323761,400.030243 344.204773,379.131317 352.391418,358.417480 
z"/>
</svg>