<svg version="1.1" id="Layer_1" xmlns="http://www.w3.org/2000/svg" xmlns:xlink="http://www.w3.org/1999/xlink" x="0px" y="0px"
	 width="100%" viewBox="0 0 874 866" enable-background="new 0 0 874 866" xml:space="preserve">
<path fill="#FFFFFF" opacity="1.000000" stroke="none" 
	d="
M465.000000,867.000000 
	C310.000000,867.000000 155.500000,867.000000 1.000000,867.000000 
	C1.000000,578.333313 1.000000,289.666656 1.000000,1.000000 
	C292.333344,1.000000 583.666687,1.000000 875.000000,1.000000 
	C875.000000,289.666656 875.000000,578.333313 875.000000,867.000000 
	C738.500000,867.000000 602.000000,867.000000 465.000000,867.000000 
M760.478149,487.983093 
	C770.026062,475.575592 779.548889,463.148621 789.134766,450.770508 
	C792.836731,445.990143 795.045166,440.681885 794.347168,434.625031 
	C793.356934,426.031677 791.952942,417.486664 790.775085,408.914246 
	C784.477478,363.079163 778.258423,317.233063 771.817200,271.418213 
	C771.114746,266.421753 770.200928,260.937317 767.579102,256.833008 
	C761.574036,247.432846 751.977722,244.992416 741.321106,246.443573 
	C725.985901,248.531815 710.673157,250.784958 695.347595,252.944229 
	C660.907654,257.796600 626.466187,262.638092 592.024353,267.476532 
	C579.722473,269.204681 567.417542,270.911102 555.117554,272.626984 
	C554.730774,271.506561 554.404602,270.900726 554.318054,270.262451 
	C550.204285,239.918579 546.105591,209.572647 542.017395,179.225311 
	C537.595947,146.404480 533.204346,113.579590 528.752319,80.762917 
	C528.096436,75.928200 525.678284,72.221916 521.670044,69.213234 
	C514.588440,63.897614 507.213684,62.415707 498.270477,63.691570 
	C445.880096,71.165718 393.416901,78.130112 340.973145,85.228493 
	C331.931061,86.452354 324.100006,89.416000 318.361176,97.226234 
	C304.457428,116.148453 290.071198,134.716461 276.197845,153.660416 
	C273.536530,157.294434 271.064117,161.900055 270.740204,166.224869 
	C270.201691,173.415405 271.090057,180.792480 272.049103,188.001648 
	C276.108948,218.519333 280.432007,249.001938 284.624329,279.502075 
	C285.978058,289.350525 287.226196,299.213440 288.527039,309.103149 
	C287.364166,309.477112 286.760559,309.773834 286.128296,309.859894 
	C241.438095,315.940613 196.742767,321.983856 152.056793,328.095490 
	C146.335754,328.877930 141.028412,330.758087 137.326950,335.595215 
	C122.955177,354.376617 108.811897,373.338196 94.147018,391.887573 
	C87.517998,400.272552 85.078247,408.779877 86.640671,419.615387 
	C94.193115,471.991913 101.015221,524.473450 108.326767,576.885559 
	C109.016411,581.829224 110.336067,587.209167 113.061211,591.238037 
	C119.131470,600.212341 128.647552,601.894531 138.803986,600.536804 
	C151.999603,598.772827 165.170181,596.822388 178.356201,594.985535 
	C208.512924,590.784607 238.674362,586.617432 268.830200,582.410156 
	C286.136292,579.995544 303.444031,577.589294 320.730072,575.037415 
	C324.360962,574.501343 325.700653,575.520935 326.051697,579.297058 
	C326.821350,587.576172 328.092957,595.809753 329.208618,604.055298 
	C336.504974,657.981628 343.794647,711.908936 351.143494,765.828186 
	C352.109650,772.916809 356.031219,777.730469 362.433289,781.213562 
	C370.661591,785.690308 378.948761,783.904053 387.306458,782.764832 
	C438.093018,775.842163 488.866638,768.824280 539.657043,761.929932 
	C548.316223,760.754517 555.698547,757.334473 561.018127,750.363953 
	C575.567383,731.299194 589.961670,712.116028 604.385864,692.956177 
	C607.954712,688.215698 610.670593,683.095947 610.024719,676.889526 
	C609.439514,671.266174 608.749084,665.651489 607.985962,660.049255 
	C603.830322,629.544006 599.626282,599.045349 595.464905,568.540894 
	C594.080872,558.394897 592.774109,548.238342 591.429871,538.069885 
	C592.811951,537.682861 593.593323,537.361938 594.403381,537.251770 
	C639.257935,531.153931 684.114380,525.069580 728.972412,518.997620 
	C734.065613,518.308228 738.668640,516.803223 741.933899,512.432861 
	C747.913269,504.429749 753.990479,496.499664 760.478149,487.983093 
z"/>
<path fill="#306ECB" opacity="1.000000" stroke="none" 
	d="
M760.252502,488.261108 
	C753.990479,496.499664 747.913269,504.429749 741.933899,512.432861 
	C738.668640,516.803223 734.065613,518.308228 728.972412,518.997620 
	C684.114380,525.069580 639.257935,531.153931 594.403381,537.251770 
	C593.593323,537.361938 592.811951,537.682861 591.429871,538.069885 
	C592.774109,548.238342 594.080872,558.394897 595.464905,568.540894 
	C599.626282,599.045349 603.830322,629.544006 607.985962,660.049255 
	C608.749084,665.651489 609.439514,671.266174 610.024719,676.889526 
	C610.670593,683.095947 607.954712,688.215698 604.385864,692.956177 
	C589.961670,712.116028 575.567383,731.299194 561.018127,750.363953 
	C555.698547,757.334473 548.316223,760.754517 539.657043,761.929932 
	C488.866638,768.824280 438.093018,775.842163 387.306458,782.764832 
	C378.948761,783.904053 370.661591,785.690308 362.433289,781.213562 
	C356.031219,777.730469 352.109650,772.916809 351.143494,765.828186 
	C343.794647,711.908936 336.504974,657.981628 329.208618,604.055298 
	C328.092957,595.809753 326.821350,587.576172 326.051697,579.297058 
	C325.700653,575.520935 324.360962,574.501343 320.730072,575.037415 
	C303.444031,577.589294 286.136292,579.995544 268.830200,582.410156 
	C238.674362,586.617432 208.512924,590.784607 178.356201,594.985535 
	C165.170181,596.822388 151.999603,598.772827 138.803986,600.536804 
	C128.647552,601.894531 119.131470,600.212341 113.061211,591.238037 
	C110.336067,587.209167 109.016411,581.829224 108.326767,576.885559 
	C101.015221,524.473450 94.193115,471.991913 86.640671,419.615387 
	C85.078247,408.779877 87.517998,400.272552 94.147018,391.887573 
	C108.811897,373.338196 122.955177,354.376617 137.326950,335.595215 
	C141.028412,330.758087 146.335754,328.877930 152.056793,328.095490 
	C196.742767,321.983856 241.438095,315.940613 286.128296,309.859894 
	C286.760559,309.773834 287.364166,309.477112 288.527039,309.103149 
	C287.226196,299.213440 285.978058,289.350525 284.624329,279.502075 
	C280.432007,249.001938 276.108948,218.519333 272.049103,188.001648 
	C271.090057,180.792480 270.201691,173.415405 270.740204,166.224869 
	C271.064117,161.900055 273.536530,157.294434 276.197845,153.660416 
	C290.071198,134.716461 304.457428,116.148453 318.361176,97.226234 
	C324.100006,89.416000 331.931061,86.452354 340.973145,85.228493 
	C393.416901,78.130112 445.880096,71.165718 498.270477,63.691570 
	C507.213684,62.415707 514.588440,63.897614 521.670044,69.213234 
	C525.678284,72.221916 528.096436,75.928200 528.752319,80.762917 
	C533.204346,113.579590 537.595947,146.404480 542.017395,179.225311 
	C546.105591,209.572647 550.204285,239.918579 554.318054,270.262451 
	C554.404602,270.900726 554.730774,271.506561 555.117554,272.626984 
	C567.417542,270.911102 579.722473,269.204681 592.024353,267.476532 
	C626.466187,262.638092 660.907654,257.796600 695.347595,252.944229 
	C710.673157,250.784958 725.985901,248.531815 741.321106,246.443573 
	C751.977722,244.992416 761.574036,247.432846 767.579102,256.833008 
	C770.200928,260.937317 771.114746,266.421753 771.817200,271.418213 
	C778.258423,317.233063 784.477478,363.079163 790.775085,408.914246 
	C791.952942,417.486664 793.356934,426.031677 794.347168,434.625031 
	C795.045166,440.681885 792.836731,445.990143 789.134766,450.770508 
	C779.548889,463.148621 770.026062,475.575592 760.252502,488.261108 
M321.120422,451.265015 
	C316.278107,416.586151 311.435791,381.907288 306.554932,346.952423 
	C261.663788,352.935760 217.431900,358.831238 173.004028,364.752808 
	C179.331573,410.006104 185.539658,454.405029 191.813614,499.275146 
	C236.511261,492.991364 280.584717,486.795319 325.299377,480.509125 
	C323.910980,470.803375 322.576202,461.472382 321.120422,451.265015 
M642.081238,432.488831 
	C658.337830,440.093048 675.196228,440.717987 692.272461,436.224670 
	C729.735107,426.366974 752.254761,391.493500 745.988220,352.668121 
	C741.149109,322.686493 723.384094,302.468384 694.935669,293.806122 
	C667.824463,285.550995 642.439026,291.814789 621.392883,311.503357 
	C583.816956,346.655304 595.882080,410.545563 642.081238,432.488831 
M383.437897,255.922424 
	C430.375549,249.397751 477.313202,242.873062 525.028931,236.240219 
	C490.421204,192.325912 456.530853,149.321869 422.189606,105.745682 
	C401.606567,157.210327 381.371063,207.805954 360.897522,258.996826 
	C368.746307,257.909821 375.647736,256.954010 383.437897,255.922424 
M509.222870,562.723267 
	C502.677307,571.474365 496.131775,580.225403 489.418152,589.201233 
	C469.789124,574.250305 450.527466,559.579224 431.083008,544.768860 
	C425.944061,551.618896 421.190918,557.954712 416.286072,564.492737 
	C435.852905,579.439575 455.002747,594.067871 474.552277,609.001465 
	C459.657562,628.197388 445.007690,647.077820 430.133087,666.247803 
	C436.870575,671.695557 443.254944,676.857727 449.879761,682.214294 
	C464.910126,662.489746 479.589478,643.225708 494.390076,623.802673 
	C513.738770,638.791809 532.624512,653.422302 551.742554,668.232788 
	C557.115601,661.177490 562.137512,654.583130 567.522156,647.512573 
	C548.020752,632.942749 528.771973,618.561707 509.257599,603.982300 
	C523.913879,584.336914 538.206299,565.179199 552.697693,545.754883 
	C545.874634,540.674683 539.523254,535.945679 532.934387,531.039795 
	C524.990906,541.659607 517.325684,551.907471 509.222870,562.723267 
z"/>
<path fill="#FBFDFE" opacity="1.000000" stroke="none" 
	d="
M321.180908,451.703186 
	C322.576202,461.472382 323.910980,470.803375 325.299377,480.509125 
	C280.584717,486.795319 236.511261,492.991364 191.813614,499.275146 
	C185.539658,454.405029 179.331573,410.006104 173.004028,364.752808 
	C217.431900,358.831238 261.663788,352.935760 306.554932,346.952423 
	C311.435791,381.907288 316.278107,416.586151 321.180908,451.703186 
M203.038803,397.356720 
	C206.206146,421.869141 209.373489,446.381592 212.615158,471.469116 
	C241.027588,467.539856 268.951050,463.678192 297.576294,459.719482 
	C293.613678,431.281769 289.705383,403.233765 285.720337,374.635223 
	C257.515045,378.614563 229.809998,382.523315 201.797287,386.475494 
	C202.245651,390.236267 202.617004,393.351135 203.038803,397.356720 
z"/>
<path fill="#FBFDFE" opacity="1.000000" stroke="none" 
	d="
M641.744995,432.315735 
	C595.882080,410.545563 583.816956,346.655304 621.392883,311.503357 
	C642.439026,291.814789 667.824463,285.550995 694.935669,293.806122 
	C723.384094,302.468384 741.149109,322.686493 745.988220,352.668121 
	C752.254761,391.493500 729.735107,426.366974 692.272461,436.224670 
	C675.196228,440.717987 658.337830,440.093048 641.744995,432.315735 
M645.416626,323.837006 
	C644.483215,324.535217 643.518677,325.195679 642.621155,325.937256 
	C622.402771,342.642670 617.629456,372.211670 632.036804,392.396088 
	C648.034729,414.808807 677.532715,419.673401 699.152893,406.849243 
	C721.915466,393.347443 729.143188,362.480835 715.399109,339.879150 
	C700.909973,316.052185 669.932373,308.693970 645.416626,323.837006 
z"/>
<path fill="#FBFDFE" opacity="1.000000" stroke="none" 
	d="
M382.993530,255.960327 
	C375.647736,256.954010 368.746307,257.909821 360.897522,258.996826 
	C381.371063,207.805954 401.606567,157.210327 422.189606,105.745682 
	C456.530853,149.321869 490.421204,192.325912 525.028931,236.240219 
	C477.313202,242.873062 430.375549,249.397751 382.993530,255.960327 
M406.148926,213.649643 
	C404.377991,218.259277 402.607056,222.868912 400.547455,228.229889 
	C426.760315,224.623260 452.188080,221.124649 478.538544,217.499100 
	C461.874664,196.510147 445.772980,176.229263 429.128479,155.264694 
	C421.393341,174.952011 413.929688,193.948334 406.148926,213.649643 
z"/>
<path fill="#FBFDFE" opacity="1.000000" stroke="none" 
	d="
M509.441681,562.439331 
	C517.325684,551.907471 524.990906,541.659607 532.934387,531.039795 
	C539.523254,535.945679 545.874634,540.674683 552.697693,545.754883 
	C538.206299,565.179199 523.913879,584.336914 509.257599,603.982300 
	C528.771973,618.561707 548.020752,632.942749 567.522156,647.512573 
	C562.137512,654.583130 557.115601,661.177490 551.742554,668.232788 
	C532.624512,653.422302 513.738770,638.791809 494.390076,623.802673 
	C479.589478,643.225708 464.910126,662.489746 449.879761,682.214294 
	C443.254944,676.857727 436.870575,671.695557 430.133087,666.247803 
	C445.007690,647.077820 459.657562,628.197388 474.552277,609.001465 
	C455.002747,594.067871 435.852905,579.439575 416.286072,564.492737 
	C421.190918,557.954712 425.944061,551.618896 431.083008,544.768860 
	C450.527466,559.579224 469.789124,574.250305 489.418152,589.201233 
	C496.131775,580.225403 502.677307,571.474365 509.441681,562.439331 
z"/>
<path fill="#316FCA" opacity="1.000000" stroke="none" 
	d="
M203.013580,396.911377 
	C202.617004,393.351135 202.245651,390.236267 201.797287,386.475494 
	C229.809998,382.523315 257.515045,378.614563 285.720337,374.635223 
	C289.705383,403.233765 293.613678,431.281769 297.576294,459.719482 
	C268.951050,463.678192 241.027588,467.539856 212.615158,471.469116 
	C209.373489,446.381592 206.206146,421.869141 203.013580,396.911377 
z"/>
<path fill="#316FCA" opacity="1.000000" stroke="none" 
	d="
M645.700989,323.613983 
	C669.932373,308.693970 700.909973,316.052185 715.399109,339.879150 
	C729.143188,362.480835 721.915466,393.347443 699.152893,406.849243 
	C677.532715,419.673401 648.034729,414.808807 632.036804,392.396088 
	C617.629456,372.211670 622.402771,342.642670 642.621155,325.937256 
	C643.518677,325.195679 644.483215,324.535217 645.700989,323.613983 
z"/>
<path fill="#336FC9" opacity="1.000000" stroke="none" 
	d="
M406.307495,213.297150 
	C413.929688,193.948334 421.393341,174.952011 429.128479,155.264694 
	C445.772980,176.229263 461.874664,196.510147 478.538544,217.499100 
	C452.188080,221.124649 426.760315,224.623260 400.547455,228.229889 
	C402.607056,222.868912 404.377991,218.259277 406.307495,213.297150 
z"/>
</svg>