<svg version="1.1" id="Layer_1" xmlns="http://www.w3.org/2000/svg" xmlns:xlink="http://www.w3.org/1999/xlink" x="0px" y="0px"
	 width="100%" viewBox="0 0 460 436" enable-background="new 0 0 460 436" xml:space="preserve">
<path fill="#FEFFFF" opacity="1.000000" stroke="none" 
	d="
M265.000000,437.000000 
	C176.691162,437.000000 88.882317,437.000000 1.036736,437.000000 
	C1.036736,291.731689 1.036736,146.463364 1.036736,1.097521 
	C154.225510,1.097521 307.451111,1.097521 460.838348,1.097521 
	C460.838348,146.333191 460.838348,291.666565 460.838348,437.000000 
	C395.796661,437.000000 330.648346,437.000000 265.000000,437.000000 
M122.988640,341.015411 
	C122.988640,341.015411 122.916679,341.035736 123.055298,341.555054 
	C123.336739,341.760040 123.618179,341.964996 123.916336,342.075348 
	C123.916336,342.075348 123.822029,342.093719 124.002007,342.712250 
	C125.007195,343.802856 126.012390,344.893463 127.151787,346.456482 
	C127.319206,346.768036 127.577110,346.954315 128.092819,347.520996 
	C128.380157,347.713470 128.667480,347.905914 128.978928,348.023041 
	C128.978928,348.023041 128.902817,348.044617 129.050476,348.564117 
	C129.347672,348.748962 129.644882,348.933807 129.962524,349.037506 
	C129.962524,349.037506 129.881683,349.059113 130.048676,349.571411 
	C130.346069,349.755127 130.643478,349.938843 130.959183,350.041168 
	C130.959183,350.041168 130.877975,350.060272 131.040878,350.577240 
	C131.334503,350.768585 131.628128,350.959930 131.934982,351.064545 
	C131.934982,351.064545 131.848587,351.079895 132.018097,351.595673 
	C132.315964,351.785187 132.613831,351.974701 132.927200,352.072357 
	C132.927200,352.072357 132.835526,352.088928 132.991684,352.614929 
	C133.290253,352.807434 133.588821,352.999939 133.906189,353.093079 
	C133.906189,353.093079 133.807602,353.115631 133.982300,353.635803 
	C134.286987,353.819092 134.591675,354.002380 134.913406,354.087311 
	C134.913406,354.087311 134.815903,354.108673 134.996948,354.623657 
	C135.300934,354.805908 135.604919,354.988190 135.926514,355.075958 
	C135.926514,355.075958 135.831589,355.091339 136.013870,355.616089 
	C136.323456,355.805450 136.633041,355.994781 137.089737,356.605438 
	C137.267532,356.872131 137.515991,357.020599 138.042984,357.564148 
	C138.349442,357.755157 138.655884,357.946167 139.129440,358.571960 
	C139.329010,358.836090 139.593506,358.984650 140.115356,359.509430 
	C140.409714,359.683990 140.704056,359.858582 141.194916,360.489868 
	C141.408356,360.769592 141.689713,360.930908 142.314850,361.553040 
	C143.523560,362.413757 144.732269,363.274506 145.952209,364.052734 
	C145.952209,364.052734 145.870422,364.068207 146.067749,364.563019 
	C146.373352,364.724457 146.678955,364.885864 146.998581,364.998413 
	C146.998581,364.998413 146.955276,365.025085 147.203201,365.559052 
	C147.707352,365.836182 148.211502,366.113312 148.785843,366.259277 
	C148.785843,366.259277 148.650574,366.321198 148.902863,366.879028 
	C149.588470,367.301880 150.274063,367.724701 151.183090,368.582428 
	C151.419159,368.835907 151.710358,368.965637 152.380539,369.495697 
	C153.245743,370.020416 154.110962,370.545105 154.991287,371.002777 
	C154.991287,371.002777 154.934845,371.041931 155.236618,371.600647 
	C156.144867,372.113312 157.053116,372.626007 158.362305,373.676361 
	C163.134125,376.391754 167.809784,379.295105 172.692917,381.792908 
	C213.133377,402.478485 255.579575,408.342316 299.012390,394.513672 
	C378.593628,369.175568 433.371216,293.275482 418.573883,200.843338 
	C411.911896,159.228989 391.667389,124.290131 359.764404,96.346313 
	C324.932861,65.837334 283.875549,51.437775 238.167282,52.532196 
	C189.352798,53.700996 147.660187,73.335365 112.421249,107.082092 
	C107.768547,111.537773 106.520836,115.340919 108.969498,121.235504 
	C111.573097,127.503044 111.575920,135.895706 115.888496,140.119873 
	C120.355911,144.495697 128.720200,144.754318 135.204376,147.267090 
	C138.568146,148.570633 140.282623,147.521027 142.307343,144.996552 
	C145.740402,140.716141 149.277039,136.440323 153.276871,132.705215 
	C188.968094,99.376274 231.256699,86.156937 278.934113,95.957130 
	C331.158081,106.691887 367.525818,138.664169 385.594116,188.540024 
	C404.265564,240.080872 394.940887,288.695770 360.682861,331.281708 
	C323.697540,377.257935 274.665619,394.415497 216.715378,385.657166 
	C178.894104,379.941040 148.355621,360.436920 122.545769,332.314240 
	C122.019455,331.567444 121.493149,330.820648 120.835365,329.588104 
	C120.577438,329.387451 120.319511,329.186798 119.918541,328.470428 
	C119.637001,328.266357 119.355469,328.062317 119.060120,327.945221 
	C119.060120,327.945221 119.147362,327.933563 119.011528,327.319275 
	C118.347672,326.534424 117.683815,325.749603 116.996086,324.997101 
	C116.996086,324.997101 117.035072,324.987854 116.928307,324.460419 
	C116.648277,324.254181 116.368248,324.047974 116.076538,323.937897 
	C116.076538,323.937897 116.160393,323.889465 116.026306,323.277100 
	C115.368210,322.494171 114.710106,321.711273 114.004532,320.994904 
	C114.004532,320.994904 114.075462,320.954285 113.941307,320.290527 
	C112.667870,318.479065 111.394424,316.667603 110.074051,314.942078 
	C110.074051,314.942078 110.170601,314.925812 110.078094,314.342804 
	C109.714653,313.900146 109.351212,313.457489 109.000610,313.000153 
	C109.000610,313.000153 108.984436,313.008270 108.939888,312.452728 
	C108.599014,312.025024 108.258141,311.597351 107.967659,311.078186 
	C107.967659,311.078186 107.868835,311.044464 107.835342,310.527313 
	C107.581001,310.309631 107.326660,310.091949 107.046539,309.955139 
	C107.046539,309.955139 107.130463,309.942413 107.074471,309.410217 
	C106.840996,309.164276 106.607521,308.918365 106.400368,308.596039 
	C106.400368,308.596039 106.405426,308.515381 106.239769,307.852539 
	C101.596283,298.030670 96.952805,288.208801 92.309326,278.386963 
	C91.868874,278.550812 91.428429,278.714630 90.987984,278.878479 
	C94.010757,290.402557 97.699600,301.692352 103.984596,312.020386 
	C103.984596,312.020386 103.903984,312.032196 103.938377,312.638367 
	C104.274780,313.117462 104.611176,313.596558 104.993942,314.017334 
	C104.993942,314.017334 104.919907,314.025635 104.957222,314.620728 
	C105.301689,315.087128 105.646156,315.553528 106.002800,316.002472 
	C106.002800,316.002472 105.983360,316.005829 106.069138,316.694122 
	C107.383301,318.791626 108.697464,320.889160 109.999695,323.000000 
	C109.999695,323.000000 110.013275,322.989777 110.090912,323.577240 
	C110.590813,324.163147 111.090706,324.749054 111.900742,325.332001 
	C111.900742,325.332001 111.592850,325.294922 111.726860,325.929016 
	C112.476723,326.966370 113.226593,328.003693 114.001190,328.999725 
	C114.001190,328.999725 113.955223,329.014099 114.052719,329.635590 
	C114.696999,330.433044 115.341270,331.230530 116.003311,332.001343 
	C116.003311,332.001343 115.972351,332.008514 116.078804,332.532440 
	C116.356209,332.739960 116.633621,332.947479 116.927292,333.064880 
	C116.927292,333.064880 116.836769,333.078979 116.977478,333.694885 
	C117.648270,334.480957 118.319061,335.267029 119.084908,336.506256 
	C119.219429,336.813782 119.450592,337.003662 119.946526,337.687225 
	C120.631187,338.460205 121.315849,339.233215 122.000610,340.000000 
	C122.000610,340.000000 121.994392,339.997986 122.116241,340.508484 
	C122.397957,340.700684 122.679665,340.892883 122.988640,341.015411 
M237.889725,159.649887 
	C232.459183,158.369904 227.028656,157.089905 221.068542,155.685104 
	C221.068542,158.406616 221.068466,160.385590 221.068558,162.364563 
	C221.070526,205.197647 221.073151,248.030716 221.074081,290.863800 
	C221.074326,301.489807 221.064972,301.512115 231.370102,304.684967 
	C238.769226,306.963104 246.189804,309.171570 254.291840,311.619965 
	C254.291840,308.805084 254.291855,306.839233 254.291855,304.873413 
	C254.291840,268.040283 254.281662,231.207138 254.314453,194.374039 
	C254.316666,191.887054 254.079544,189.169647 254.977173,186.978714 
	C255.865433,184.810623 257.810638,182.077774 259.744019,181.654037 
	C261.266998,181.320267 264.277832,183.732162 265.190277,185.619476 
	C266.502899,188.334656 266.962097,191.675262 266.998718,194.758301 
	C267.173004,209.422836 267.012634,224.091309 267.177521,238.756073 
	C267.196167,240.411819 268.050385,242.849075 269.301361,243.578110 
	C282.245850,251.121353 297.468079,245.233322 301.888672,230.936813 
	C305.501984,219.251144 304.431274,207.542953 300.825592,196.036057 
	C298.557739,188.798630 294.038513,183.131424 287.732666,178.925522 
	C272.790131,168.959076 255.729019,164.428406 237.889725,159.649887 
M78.773819,221.809357 
	C81.258667,229.975830 83.743515,238.142303 86.529839,247.299591 
	C87.326172,245.043839 87.810410,243.832169 88.184814,242.587448 
	C93.210022,225.880722 98.290726,209.190018 103.171661,192.441147 
	C104.106422,189.233536 105.618896,187.574814 108.960510,186.611053 
	C121.890533,182.881866 134.712540,178.776917 147.564301,174.778214 
	C152.759735,173.161713 157.928238,171.458588 164.264572,169.423782 
	C145.026901,163.577774 127.085449,158.059998 109.091461,152.719254 
	C105.923073,151.778870 104.123802,150.302658 103.177750,146.961777 
	C99.239555,133.054352 95.007675,119.229851 90.852104,105.384369 
	C89.600746,101.215134 88.247719,97.076416 86.617462,91.894463 
	C80.768562,110.862114 75.189758,128.608765 69.887016,146.437515 
	C68.808594,150.063370 66.960617,151.921982 63.348927,152.874100 
	C56.444118,154.694351 49.644043,156.914688 42.810265,159.000961 
	C31.759752,162.374557 20.717133,165.773987 8.781150,169.435547 
	C10.966999,170.185837 12.198863,170.643616 13.451856,171.033493 
	C30.431017,176.316711 47.387215,181.676865 64.419151,186.784378 
	C67.368576,187.668839 68.740967,189.113708 69.573906,191.991089 
	C72.391907,201.725845 75.484375,211.381134 78.773819,221.809357 
M285.159729,252.544739 
	C277.908875,254.300354 270.636780,255.976120 263.429138,257.894135 
	C262.294525,258.196075 260.648285,259.558411 260.605560,260.492920 
	C260.343323,266.231842 260.474182,271.988739 260.474182,278.304138 
	C262.749329,277.585815 264.300781,277.154144 265.811493,276.609528 
	C275.343292,273.173309 284.723145,269.209442 294.444733,266.445374 
	C300.383392,264.756927 306.832184,264.672913 313.075928,264.379028 
	C314.660950,264.304443 316.337799,266.179993 317.972443,267.159454 
	C316.702057,268.492645 315.588776,270.047272 314.114502,271.093018 
	C312.798859,272.026245 311.105011,272.455597 309.542633,273.007019 
	C294.503998,278.314728 279.447266,283.571442 264.431335,288.942413 
	C263.013489,289.449554 260.779816,290.574615 260.724396,291.518524 
	C260.380615,297.370911 260.551453,303.253540 260.551453,309.754669 
	C278.088043,303.317657 294.620789,297.295288 311.117401,291.175629 
	C320.146790,287.826019 329.278015,284.673340 338.044189,280.723572 
	C342.594788,278.673218 347.878876,275.788116 347.435028,269.640686 
	C346.984863,263.405579 341.505127,261.233887 336.499512,259.280609 
	C320.249420,252.939514 303.364197,251.011002 285.159729,252.544739 
M172.392731,258.920715 
	C165.682175,261.781250 158.874847,264.439484 152.300735,267.585144 
	C148.866455,269.228424 145.537247,271.538544 145.884689,276.216370 
	C146.239746,280.997101 149.468918,283.538788 153.408356,285.332184 
	C173.134567,294.312347 193.641129,295.588409 214.687912,291.638306 
	C214.687912,286.027344 214.687912,280.663452 214.687912,275.148956 
	C201.766464,278.101227 189.855331,287.223267 175.773712,279.018250 
	C178.052078,276.846619 180.487091,275.048401 183.212570,274.020142 
	C193.733994,270.050690 204.348160,266.327057 214.759750,262.572418 
	C214.759750,256.164154 214.759750,250.256821 214.759750,243.827576 
	C200.617157,248.871078 186.875626,253.771576 172.392731,258.920715 
z"/>
<path fill="#326FC9" opacity="1.000000" stroke="none" 
	d="
M152.056671,368.971680 
	C151.710358,368.965637 151.419159,368.835907 150.970001,368.056641 
	C150.054794,367.127625 149.352692,366.724426 148.650574,366.321198 
	C148.650574,366.321198 148.785843,366.259277 148.715942,365.999664 
	C148.082458,365.501740 147.518875,365.263397 146.955292,365.025085 
	C146.955276,365.025085 146.998581,364.998413 146.883148,364.783234 
	C146.468628,364.401459 146.169525,364.234833 145.870422,364.068207 
	C145.870422,364.068207 145.952209,364.052734 145.840637,363.775330 
	C144.499039,362.656555 143.269012,361.815155 142.038971,360.973785 
	C141.689713,360.930908 141.408356,360.769592 140.992035,360.023010 
	C140.500397,359.376648 140.211655,359.197144 139.922928,359.017609 
	C139.593506,358.984650 139.329010,358.836090 138.946930,358.093811 
	C138.454636,357.427399 138.144852,357.239136 137.835083,357.050873 
	C137.515991,357.020599 137.267532,356.872131 136.926666,356.129486 
	C136.452927,355.466156 136.142258,355.278748 135.831589,355.091339 
	C135.831589,355.091339 135.926514,355.075958 135.836578,354.857849 
	C135.436401,354.462708 135.126160,354.285706 134.815903,354.108673 
	C134.815903,354.108673 134.913406,354.087311 134.826965,353.868835 
	C134.429550,353.472137 134.118576,353.293884 133.807602,353.115631 
	C133.807602,353.115631 133.906189,353.093079 133.825333,352.874817 
	C133.441498,352.467346 133.138504,352.278137 132.835526,352.088928 
	C132.835526,352.088928 132.927200,352.072357 132.840607,351.855194 
	C132.452194,351.451996 132.150391,351.265961 131.848587,351.079895 
	C131.848587,351.079895 131.934982,351.064545 131.848328,350.848816 
	C131.467102,350.442139 131.172531,350.251221 130.877975,350.060272 
	C130.877975,350.060272 130.959183,350.041168 130.862213,349.828339 
	C130.470734,349.430023 130.176208,349.244568 129.881683,349.059113 
	C129.881683,349.059113 129.962524,349.037506 129.866211,348.826111 
	C129.480865,348.424652 129.191849,348.234650 128.902817,348.044617 
	C128.902817,348.044617 128.978928,348.023041 128.879898,347.810364 
	C128.495743,347.403564 128.210617,347.209473 127.925499,347.015350 
	C127.577110,346.954315 127.319206,346.768036 127.056549,345.885101 
	C125.914886,344.240387 124.868462,343.167053 123.822029,342.093719 
	C123.822029,342.093719 123.916336,342.075348 123.840073,341.862244 
	C123.481430,341.444641 123.199059,341.240204 122.916679,341.035736 
	C122.916679,341.035736 122.988640,341.015411 122.894073,340.806763 
	C122.531136,340.398071 122.262764,340.198029 121.994400,339.997986 
	C121.994392,339.997986 122.000610,340.000000 121.979645,339.667175 
	C121.231911,338.581482 120.505150,337.828674 119.778397,337.075836 
	C119.450592,337.003662 119.219429,336.813782 119.022675,335.944580 
	C118.252556,334.614899 117.544670,333.846924 116.836777,333.078979 
	C116.836769,333.078979 116.927292,333.064880 116.854546,332.853912 
	C116.511986,332.431458 116.242165,332.220001 115.972351,332.008514 
	C115.972351,332.008514 116.003311,332.001343 115.981003,331.687225 
	C115.290878,330.586761 114.623047,329.800446 113.955215,329.014099 
	C113.955223,329.014099 114.001190,328.999725 113.973434,328.672119 
	C113.161407,327.327972 112.377129,326.311462 111.592850,325.294922 
	C111.592850,325.294922 111.900742,325.332001 111.846458,324.992340 
	C111.199203,324.098389 110.606239,323.544067 110.013275,322.989777 
	C110.013275,322.989777 109.999695,323.000000 110.008270,322.609131 
	C108.672348,320.147461 107.327858,318.076630 105.983360,316.005829 
	C105.983360,316.005829 106.002800,316.002472 105.987617,315.704254 
	C105.621590,314.945892 105.270744,314.485779 104.919907,314.025635 
	C104.919907,314.025635 104.993942,314.017334 104.975296,313.732422 
	C104.605759,312.975769 104.254875,312.503967 103.903992,312.032196 
	C103.903984,312.032196 103.984596,312.020386 103.995209,311.657043 
	C104.805687,310.367615 105.605553,309.441498 106.405426,308.515381 
	C106.405426,308.515381 106.400368,308.596039 106.356430,308.917053 
	C106.585152,309.472870 106.857811,309.707642 107.130463,309.942413 
	C107.130463,309.942413 107.046539,309.955139 107.109207,310.158600 
	C107.318848,310.676697 107.551163,310.904175 107.868835,311.044464 
	C107.868835,311.044464 107.967659,311.078186 107.978989,311.404083 
	C108.321686,312.156067 108.653061,312.582184 108.984436,313.008270 
	C108.984436,313.008270 109.000610,313.000153 109.014297,313.315186 
	C109.408859,314.062103 109.789734,314.493958 110.170609,314.925812 
	C110.170601,314.925812 110.074051,314.942078 110.061752,315.276428 
	C111.391457,317.391968 112.733459,319.173126 114.075462,320.954285 
	C114.075462,320.954285 114.004532,320.994904 114.013176,321.329956 
	C114.734673,322.406525 115.447525,323.148010 116.160385,323.889465 
	C116.160393,323.889465 116.076538,323.937897 116.148880,324.146118 
	C116.492500,324.565491 116.763786,324.776672 117.035080,324.987854 
	C117.035072,324.987854 116.996086,324.997101 117.020622,325.313599 
	C117.745888,326.397949 118.446625,327.165771 119.147354,327.933563 
	C119.147362,327.933563 119.060120,327.945221 119.141586,328.158081 
	C119.502571,328.576019 119.782082,328.781067 120.061592,328.986115 
	C120.319511,329.186798 120.577438,329.387451 120.921646,330.117798 
	C121.521194,331.392181 122.034470,332.136932 122.547745,332.881653 
	C148.355621,360.436920 178.894104,379.941040 216.715378,385.657166 
	C274.665619,394.415497 323.697540,377.257935 360.682861,331.281708 
	C394.940887,288.695770 404.265564,240.080872 385.594116,188.540024 
	C367.525818,138.664169 331.158081,106.691887 278.934113,95.957130 
	C231.256699,86.156937 188.968094,99.376274 153.276871,132.705215 
	C149.277039,136.440323 145.740402,140.716141 142.307343,144.996552 
	C140.282623,147.521027 138.568146,148.570633 135.204376,147.267090 
	C128.720200,144.754318 120.355911,144.495697 115.888496,140.119873 
	C111.575920,135.895706 111.573097,127.503044 108.969498,121.235504 
	C106.520836,115.340919 107.768547,111.537773 112.421249,107.082092 
	C147.660187,73.335365 189.352798,53.700996 238.167282,52.532196 
	C283.875549,51.437775 324.932861,65.837334 359.764404,96.346313 
	C391.667389,124.290131 411.911896,159.228989 418.573883,200.843338 
	C433.371216,293.275482 378.593628,369.175568 299.012390,394.513672 
	C255.579575,408.342316 213.133377,402.478485 172.692917,381.792908 
	C167.809784,379.295105 163.134125,376.391754 158.044434,373.093933 
	C156.795975,372.021667 155.865402,371.531799 154.934845,371.041931 
	C154.934845,371.041931 154.991287,371.002777 154.865021,370.735901 
	C153.844742,369.969910 152.950699,369.470795 152.056671,368.971680 
z"/>
<path fill="#326FC9" opacity="1.000000" stroke="none" 
	d="
M238.286621,159.757263 
	C255.729019,164.428406 272.790131,168.959076 287.732666,178.925522 
	C294.038513,183.131424 298.557739,188.798630 300.825592,196.036057 
	C304.431274,207.542953 305.501984,219.251144 301.888672,230.936813 
	C297.468079,245.233322 282.245850,251.121353 269.301361,243.578110 
	C268.050385,242.849075 267.196167,240.411819 267.177521,238.756073 
	C267.012634,224.091309 267.173004,209.422836 266.998718,194.758301 
	C266.962097,191.675262 266.502899,188.334656 265.190277,185.619476 
	C264.277832,183.732162 261.266998,181.320267 259.744019,181.654037 
	C257.810638,182.077774 255.865433,184.810623 254.977173,186.978714 
	C254.079544,189.169647 254.316666,191.887054 254.314453,194.374039 
	C254.281662,231.207138 254.291840,268.040283 254.291855,304.873413 
	C254.291855,306.839233 254.291840,308.805084 254.291840,311.619965 
	C246.189804,309.171570 238.769226,306.963104 231.370102,304.684967 
	C221.064972,301.512115 221.074326,301.489807 221.074081,290.863800 
	C221.073151,248.030716 221.070526,205.197647 221.068558,162.364563 
	C221.068466,160.385590 221.068542,158.406616 221.068542,155.685104 
	C227.028656,157.089905 232.459183,158.369904 238.286621,159.757263 
z"/>
<path fill="#336FC9" opacity="1.000000" stroke="none" 
	d="
M78.622879,221.438080 
	C75.484375,211.381134 72.391907,201.725845 69.573906,191.991089 
	C68.740967,189.113708 67.368576,187.668839 64.419151,186.784378 
	C47.387215,181.676865 30.431017,176.316711 13.451856,171.033493 
	C12.198863,170.643616 10.966999,170.185837 8.781150,169.435547 
	C20.717133,165.773987 31.759752,162.374557 42.810265,159.000961 
	C49.644043,156.914688 56.444118,154.694351 63.348927,152.874100 
	C66.960617,151.921982 68.808594,150.063370 69.887016,146.437515 
	C75.189758,128.608765 80.768562,110.862114 86.617462,91.894463 
	C88.247719,97.076416 89.600746,101.215134 90.852104,105.384369 
	C95.007675,119.229851 99.239555,133.054352 103.177750,146.961777 
	C104.123802,150.302658 105.923073,151.778870 109.091461,152.719254 
	C127.085449,158.059998 145.026901,163.577774 164.264572,169.423782 
	C157.928238,171.458588 152.759735,173.161713 147.564301,174.778214 
	C134.712540,178.776917 121.890533,182.881866 108.960510,186.611053 
	C105.618896,187.574814 104.106422,189.233536 103.171661,192.441147 
	C98.290726,209.190018 93.210022,225.880722 88.184814,242.587448 
	C87.810410,243.832169 87.326172,245.043839 86.529839,247.299591 
	C83.743515,238.142303 81.258667,229.975830 78.622879,221.438080 
z"/>
<path fill="#3470C8" opacity="1.000000" stroke="none" 
	d="
M285.602203,252.440857 
	C303.364197,251.011002 320.249420,252.939514 336.499512,259.280609 
	C341.505127,261.233887 346.984863,263.405579 347.435028,269.640686 
	C347.878876,275.788116 342.594788,278.673218 338.044189,280.723572 
	C329.278015,284.673340 320.146790,287.826019 311.117401,291.175629 
	C294.620789,297.295288 278.088043,303.317657 260.551453,309.754669 
	C260.551453,303.253540 260.380615,297.370911 260.724396,291.518524 
	C260.779816,290.574615 263.013489,289.449554 264.431335,288.942413 
	C279.447266,283.571442 294.503998,278.314728 309.542633,273.007019 
	C311.105011,272.455597 312.798859,272.026245 314.114502,271.093018 
	C315.588776,270.047272 316.702057,268.492645 317.972443,267.159454 
	C316.337799,266.179993 314.660950,264.304443 313.075928,264.379028 
	C306.832184,264.672913 300.383392,264.756927 294.444733,266.445374 
	C284.723145,269.209442 275.343292,273.173309 265.811493,276.609528 
	C264.300781,277.154144 262.749329,277.585815 260.474182,278.304138 
	C260.474182,271.988739 260.343323,266.231842 260.605560,260.492920 
	C260.648285,259.558411 262.294525,258.196075 263.429138,257.894135 
	C270.636780,255.976120 277.908875,254.300354 285.602203,252.440857 
z"/>
<path fill="#3470C8" opacity="1.000000" stroke="none" 
	d="
M172.763397,258.796387 
	C186.875626,253.771576 200.617157,248.871078 214.759750,243.827576 
	C214.759750,250.256821 214.759750,256.164154 214.759750,262.572418 
	C204.348160,266.327057 193.733994,270.050690 183.212570,274.020142 
	C180.487091,275.048401 178.052078,276.846619 175.773712,279.018250 
	C189.855331,287.223267 201.766464,278.101227 214.687912,275.148956 
	C214.687912,280.663452 214.687912,286.027344 214.687912,291.638306 
	C193.641129,295.588409 173.134567,294.312347 153.408356,285.332184 
	C149.468918,283.538788 146.239746,280.997101 145.884689,276.216370 
	C145.537247,271.538544 148.866455,269.228424 152.300735,267.585144 
	C158.874847,264.439484 165.682175,261.781250 172.763397,258.796387 
z"/>
<path fill="#4676BD" opacity="1.000000" stroke="none" 
	d="
M106.322601,308.183960 
	C105.605553,309.441498 104.805687,310.367615 103.971024,311.689850 
	C97.699600,301.692352 94.010757,290.402557 90.987984,278.878479 
	C91.428429,278.714630 91.868874,278.550812 92.309326,278.386963 
	C96.952805,288.208801 101.596283,298.030670 106.322601,308.183960 
z"/>
<path fill="#4676BD" opacity="1.000000" stroke="none" 
	d="
M106.026245,316.349976 
	C107.327858,318.076630 108.672348,320.147461 110.014236,322.602478 
	C108.697464,320.889160 107.383301,318.791626 106.026245,316.349976 
z"/>
<path fill="#4676BD" opacity="1.000000" stroke="none" 
	d="
M114.008385,320.622406 
	C112.733459,319.173126 111.391457,317.391968 110.085220,315.233459 
	C111.394424,316.667603 112.667870,318.479065 114.008385,320.622406 
z"/>
<path fill="#4977BC" opacity="1.000000" stroke="none" 
	d="
M142.176910,361.263428 
	C143.269012,361.815155 144.499039,362.656555 145.835037,363.816589 
	C144.732269,363.274506 143.523560,362.413757 142.176910,361.263428 
z"/>
<path fill="#4977BC" opacity="1.000000" stroke="none" 
	d="
M123.912018,342.402985 
	C124.868462,343.167053 125.914886,344.240387 126.989449,345.648895 
	C126.012390,344.893463 125.007195,343.802856 123.912018,342.402985 
z"/>
<path fill="#4676BD" opacity="1.000000" stroke="none" 
	d="
M116.093346,323.583282 
	C115.447525,323.148010 114.734673,322.406525 114.036911,321.296692 
	C114.710106,321.711273 115.368210,322.494171 116.093346,323.583282 
z"/>
<path fill="#4676BD" opacity="1.000000" stroke="none" 
	d="
M111.659851,325.611969 
	C112.377129,326.311462 113.161407,327.327972 113.961075,328.692780 
	C113.226593,328.003693 112.476723,326.966370 111.659851,325.611969 
z"/>
<path fill="#4977BC" opacity="1.000000" stroke="none" 
	d="
M119.862457,337.381531 
	C120.505150,337.828674 121.231911,338.581482 121.979591,339.670288 
	C121.315849,339.233215 120.631187,338.460205 119.862457,337.381531 
z"/>
<path fill="#4977BC" opacity="1.000000" stroke="none" 
	d="
M116.907127,333.386932 
	C117.544670,333.846924 118.252556,334.614899 118.975151,335.717987 
	C118.319061,335.267029 117.648270,334.480957 116.907127,333.386932 
z"/>
<path fill="#4977BC" opacity="1.000000" stroke="none" 
	d="
M155.085724,371.321289 
	C155.865402,371.531799 156.795975,372.021667 157.843948,372.825104 
	C157.053116,372.626007 156.144867,372.113312 155.085724,371.321289 
z"/>
<path fill="#4977BC" opacity="1.000000" stroke="none" 
	d="
M152.218597,369.233704 
	C152.950699,369.470795 153.844742,369.969910 154.857483,370.769409 
	C154.110962,370.545105 153.245743,370.020416 152.218597,369.233704 
z"/>
<path fill="#4676BD" opacity="1.000000" stroke="none" 
	d="
M122.546753,332.597961 
	C122.034470,332.136932 121.521194,331.392181 120.987381,330.360657 
	C121.493149,330.820648 122.019455,331.567444 122.546753,332.597961 
z"/>
<path fill="#4977BC" opacity="1.000000" stroke="none" 
	d="
M114.003967,329.324829 
	C114.623047,329.800446 115.290878,330.586761 115.972122,331.700562 
	C115.341270,331.230530 114.696999,330.433044 114.003967,329.324829 
z"/>
<path fill="#4676BD" opacity="1.000000" stroke="none" 
	d="
M110.052094,323.283508 
	C110.606239,323.544067 111.199203,324.098389 111.691391,324.993835 
	C111.090706,324.749054 110.590813,324.163147 110.052094,323.283508 
z"/>
<path fill="#4676BD" opacity="1.000000" stroke="none" 
	d="
M119.079437,327.626404 
	C118.446625,327.165771 117.745888,326.397949 117.032562,325.297424 
	C117.683815,325.749603 118.347672,326.534424 119.079437,327.626404 
z"/>
<path fill="#4977BC" opacity="1.000000" stroke="none" 
	d="
M148.776718,366.600098 
	C149.352692,366.724426 150.054794,367.127625 150.858276,367.839203 
	C150.274063,367.724701 149.588470,367.301880 148.776718,366.600098 
z"/>
<path fill="#4676BD" opacity="1.000000" stroke="none" 
	d="
M104.938568,314.323181 
	C105.270744,314.485779 105.621590,314.945892 105.981522,315.712982 
	C105.646156,315.553528 105.301689,315.087128 104.938568,314.323181 
z"/>
<path fill="#4676BD" opacity="1.000000" stroke="none" 
	d="
M110.124352,314.634308 
	C109.789734,314.493958 109.408859,314.062103 109.007874,313.322540 
	C109.351212,313.457489 109.714653,313.900146 110.124352,314.634308 
z"/>
<path fill="#4977BC" opacity="1.000000" stroke="none" 
	d="
M147.079254,365.292053 
	C147.518875,365.263397 148.082458,365.501740 148.680847,366.065247 
	C148.211502,366.113312 147.707352,365.836182 147.079254,365.292053 
z"/>
<path fill="#4676BD" opacity="1.000000" stroke="none" 
	d="
M103.921188,312.335266 
	C104.254875,312.503967 104.605759,312.975769 104.952110,313.761597 
	C104.611176,313.596558 104.274780,313.117462 103.921188,312.335266 
z"/>
<path fill="#4676BD" opacity="1.000000" stroke="none" 
	d="
M108.962158,312.730499 
	C108.653061,312.582184 108.321686,312.156067 107.953789,311.449829 
	C108.258141,311.597351 108.599014,312.025024 108.962158,312.730499 
z"/>
<path fill="#4977BC" opacity="1.000000" stroke="none" 
	d="
M130.959427,350.318756 
	C131.172531,350.251221 131.467102,350.442139 131.841705,350.892181 
	C131.628128,350.959930 131.334503,350.768585 130.959427,350.318756 
z"/>
<path fill="#4676BD" opacity="1.000000" stroke="none" 
	d="
M107.102463,309.676331 
	C106.857811,309.707642 106.585152,309.472870 106.343277,308.955261 
	C106.607521,308.918365 106.840996,309.164276 107.102463,309.676331 
z"/>
<path fill="#4676BD" opacity="1.000000" stroke="none" 
	d="
M107.852089,310.785889 
	C107.551163,310.904175 107.318848,310.676697 107.122101,310.118164 
	C107.326660,310.091949 107.581001,310.309631 107.852089,310.785889 
z"/>
<path fill="#4977BC" opacity="1.000000" stroke="none" 
	d="
M145.969086,364.315613 
	C146.169525,364.234833 146.468628,364.401459 146.876144,364.807678 
	C146.678955,364.885864 146.373352,364.724457 145.969086,364.315613 
z"/>
<path fill="#4977BC" opacity="1.000000" stroke="none" 
	d="
M140.019135,359.263519 
	C140.211655,359.197144 140.500397,359.376648 140.893768,359.794678 
	C140.704056,359.858582 140.409714,359.683990 140.019135,359.263519 
z"/>
<path fill="#4977BC" opacity="1.000000" stroke="none" 
	d="
M137.939026,357.307495 
	C138.144852,357.239136 138.454636,357.427399 138.863373,357.876404 
	C138.655884,357.946167 138.349442,357.755157 137.939026,357.307495 
z"/>
<path fill="#4977BC" opacity="1.000000" stroke="none" 
	d="
M135.922729,355.353699 
	C136.142258,355.278748 136.452927,355.466156 136.853119,355.918823 
	C136.633041,355.994781 136.323456,355.805450 135.922729,355.353699 
z"/>
<path fill="#4977BC" opacity="1.000000" stroke="none" 
	d="
M134.906433,354.366150 
	C135.126160,354.285706 135.436401,354.462708 135.827789,354.905090 
	C135.604919,354.988190 135.300934,354.805908 134.906433,354.366150 
z"/>
<path fill="#4977BC" opacity="1.000000" stroke="none" 
	d="
M133.894958,353.375732 
	C134.118576,353.293884 134.429550,353.472137 134.818436,353.918030 
	C134.591675,354.002380 134.286987,353.819092 133.894958,353.375732 
z"/>
<path fill="#4977BC" opacity="1.000000" stroke="none" 
	d="
M132.913605,352.351929 
	C133.138504,352.278137 133.441498,352.467346 133.815933,352.924500 
	C133.588821,352.999939 133.290253,352.807434 132.913605,352.351929 
z"/>
<path fill="#4977BC" opacity="1.000000" stroke="none" 
	d="
M131.933350,351.337769 
	C132.150391,351.265961 132.452194,351.451996 132.832855,351.901123 
	C132.613831,351.974701 132.315964,351.785187 131.933350,351.337769 
z"/>
<path fill="#4977BC" opacity="1.000000" stroke="none" 
	d="
M129.965179,349.315247 
	C130.176208,349.244568 130.470734,349.430023 130.853058,349.869019 
	C130.643478,349.938843 130.346069,349.755127 129.965179,349.315247 
z"/>
<path fill="#4977BC" opacity="1.000000" stroke="none" 
	d="
M128.976654,348.304382 
	C129.191849,348.234650 129.480865,348.424652 129.855988,348.866669 
	C129.644882,348.933807 129.347672,348.748962 128.976654,348.304382 
z"/>
<path fill="#4977BC" opacity="1.000000" stroke="none" 
	d="
M128.009155,347.268188 
	C128.210617,347.209473 128.495743,347.403564 128.867844,347.848022 
	C128.667480,347.905914 128.380157,347.713470 128.009155,347.268188 
z"/>
<path fill="#4977BC" opacity="1.000000" stroke="none" 
	d="
M122.985992,341.295410 
	C123.199059,341.240204 123.481430,341.444641 123.831711,341.909546 
	C123.618179,341.964996 123.336739,341.760040 122.985992,341.295410 
z"/>
<path fill="#4977BC" opacity="1.000000" stroke="none" 
	d="
M122.055321,340.253235 
	C122.262764,340.198029 122.531136,340.398071 122.880447,340.841614 
	C122.679665,340.892883 122.397957,340.700684 122.055321,340.253235 
z"/>
<path fill="#4977BC" opacity="1.000000" stroke="none" 
	d="
M116.025574,332.270477 
	C116.242165,332.220001 116.511986,332.431458 116.846420,332.898987 
	C116.633621,332.947479 116.356209,332.739960 116.025574,332.270477 
z"/>
<path fill="#4676BD" opacity="1.000000" stroke="none" 
	d="
M116.981689,324.724121 
	C116.763786,324.776672 116.492500,324.565491 116.154724,324.098053 
	C116.368248,324.047974 116.648277,324.254181 116.981689,324.724121 
z"/>
<path fill="#4676BD" opacity="1.000000" stroke="none" 
	d="
M119.990067,328.728271 
	C119.782082,328.781067 119.502571,328.576019 119.148499,328.114624 
	C119.355469,328.062317 119.637001,328.266357 119.990067,328.728271 
z"/>
</svg>