<svg version="1.1" id="Layer_1" xmlns="http://www.w3.org/2000/svg" xmlns:xlink="http://www.w3.org/1999/xlink" x="0px" y="0px"
	 width="100%" viewBox="0 0 824 824" enable-background="new 0 0 824 824" xml:space="preserve">
<path fill="#FFFFFF" opacity="1.000000" stroke="none" 
	d="
M466.000000,825.000000 
	C310.666718,825.000000 155.833420,825.000000 1.000104,825.000000 
	C1.000069,550.333435 1.000069,275.666931 1.000035,1.000288 
	C275.666473,1.000192 550.332947,1.000192 824.999512,1.000096 
	C824.999695,275.666382 824.999695,550.332764 824.999878,824.999573 
	C705.500000,825.000000 586.000000,825.000000 466.000000,825.000000 
M260.751923,736.763062 
	C271.699860,741.201965 282.463135,746.182861 293.627625,749.985962 
	C342.405609,766.601562 392.498169,772.031677 443.808655,767.211609 
	C482.289917,763.596619 519.170288,754.109070 554.300964,738.061829 
	C619.543335,708.259888 671.626282,663.338867 709.677002,602.336182 
	C736.243225,559.745239 753.068359,513.571289 759.764282,463.912231 
	C764.595093,428.085083 763.985901,392.213928 758.194519,356.395477 
	C749.946167,305.381470 730.893494,258.745361 702.105286,216.082047 
	C669.921509,168.386490 628.195984,131.033890 577.666992,103.511459 
	C546.290466,86.421127 513.123596,74.286163 477.985718,67.713623 
	C443.584045,61.278805 408.986786,59.275169 374.069092,62.855347 
	C345.796539,65.754189 318.118073,71.200485 291.351349,80.781441 
	C237.569550,100.032242 190.812927,130.167099 151.527847,171.742325 
	C116.572990,208.734833 90.666504,251.330368 74.095184,299.365967 
	C55.066303,354.525391 50.579918,411.201141 59.041794,468.865570 
	C64.895996,508.759766 77.470154,546.480591 96.608948,582.015503 
	C134.057816,651.546692 188.757492,702.771362 260.751923,736.763062 
z"/>
<path fill="#306ECB" opacity="1.000000" stroke="none" 
	d="
M260.418488,736.586853 
	C188.757492,702.771362 134.057816,651.546692 96.608948,582.015503 
	C77.470154,546.480591 64.895996,508.759766 59.041794,468.865570 
	C50.579918,411.201141 55.066303,354.525391 74.095184,299.365967 
	C90.666504,251.330368 116.572990,208.734833 151.527847,171.742325 
	C190.812927,130.167099 237.569550,100.032242 291.351349,80.781441 
	C318.118073,71.200485 345.796539,65.754189 374.069092,62.855347 
	C408.986786,59.275169 443.584045,61.278805 477.985718,67.713623 
	C513.123596,74.286163 546.290466,86.421127 577.666992,103.511459 
	C628.195984,131.033890 669.921509,168.386490 702.105286,216.082047 
	C730.893494,258.745361 749.946167,305.381470 758.194519,356.395477 
	C763.985901,392.213928 764.595093,428.085083 759.764282,463.912231 
	C753.068359,513.571289 736.243225,559.745239 709.677002,602.336182 
	C671.626282,663.338867 619.543335,708.259888 554.300964,738.061829 
	C519.170288,754.109070 482.289917,763.596619 443.808655,767.211609 
	C392.498169,772.031677 342.405609,766.601562 293.627625,749.985962 
	C282.463135,746.182861 271.699860,741.201965 260.418488,736.586853 
M353.845062,412.500000 
	C353.845062,459.798340 353.845062,507.096649 353.845062,554.577209 
	C377.257904,561.837891 400.301300,568.984070 423.846802,576.285950 
	C423.846802,572.679810 423.846832,570.022766 423.846802,567.365784 
	C423.845917,484.537842 423.842926,401.709930 423.851349,318.881989 
	C423.851715,315.383240 423.580200,311.825073 424.119049,308.402191 
	C424.678253,304.850433 425.438232,301.029297 427.305817,298.083954 
	C428.689697,295.901520 431.956512,293.716156 434.437103,293.654755 
	C441.352570,293.483459 447.703400,298.727539 449.165131,305.696503 
	C450.451843,311.830902 451.264832,318.180573 451.303894,324.441315 
	C451.507751,357.104553 451.450928,389.769989 451.316895,422.433960 
	C451.303131,425.782532 452.151886,427.726776 455.425934,428.699768 
	C460.682129,430.261841 465.785431,432.420746 471.108673,433.660706 
	C495.879944,439.430756 518.285950,426.014191 525.335510,401.644897 
	C530.287964,384.524933 530.479980,367.159729 528.498108,349.669800 
	C526.912964,335.680511 523.753052,322.095367 516.428772,309.842651 
	C506.634064,293.457153 491.591766,283.168304 474.928101,275.015503 
	C451.310089,263.460266 425.966492,256.868683 400.749298,250.002335 
	C385.379150,245.817215 369.920837,241.955902 353.844971,237.778351 
	C353.844971,296.240509 353.844971,353.870239 353.845062,412.500000 
M560.627441,479.020020 
	C561.519470,484.132507 557.446045,485.640869 554.159607,487.197784 
	C549.360962,489.471069 544.280762,491.162628 539.283875,493.002533 
	C506.357574,505.126556 473.413116,517.201416 440.516693,529.405884 
	C439.091248,529.934753 437.051880,531.555298 437.029968,532.700439 
	C436.782104,545.647583 436.872864,558.601135 436.872864,571.903625 
	C438.653198,571.401245 439.941895,571.128479 441.165802,570.679260 
	C489.919098,552.783875 538.740662,535.070007 587.359436,516.816040 
	C598.662476,512.572327 609.861511,507.488312 618.349548,498.182037 
	C622.852905,493.244598 623.881042,487.786072 621.645691,481.563110 
	C618.811829,473.673492 612.389587,469.441864 605.335632,466.277313 
	C571.083252,450.911102 535.289917,444.475372 497.792175,448.258545 
	C481.885895,449.863281 465.978241,451.388184 450.742157,456.696960 
	C446.346985,458.228333 440.239258,458.534576 438.026184,461.627441 
	C435.694183,464.886536 436.932739,470.805725 436.876801,475.565826 
	C436.768036,484.816101 436.844971,494.068542 436.844971,503.716461 
	C438.632690,503.197266 439.753235,502.933105 440.831360,502.549622 
	C464.041351,494.294800 487.279694,486.117950 510.437408,477.718811 
	C520.619263,474.025909 531.059570,471.803345 541.775574,473.192230 
	C548.029480,474.002716 554.050964,476.606506 560.627441,479.020020 
M292.504242,538.045532 
	C308.197906,536.947021 323.891602,535.848572 339.615417,534.747986 
	C339.615417,521.372253 339.615417,509.472382 339.615417,497.106567 
	C334.607819,498.967041 329.882385,500.519348 325.319061,502.454071 
	C307.800171,509.881714 289.879028,515.239258 270.550476,512.962341 
	C267.009949,512.545227 263.318787,511.558685 260.193329,509.900024 
	C255.516922,507.418335 255.511353,503.450867 260.053497,500.666351 
	C263.284607,498.685577 266.907166,497.262482 270.484283,495.940216 
	C292.318176,487.869232 314.200073,479.927917 336.022888,471.827362 
	C337.475677,471.288086 339.651398,469.813019 339.672119,468.738129 
	C339.924591,455.635956 339.836182,442.527191 339.836182,428.956604 
	C337.890747,429.570221 336.477905,429.953888 335.108856,430.456787 
	C302.142975,442.565582 269.075378,454.408813 236.276535,466.954712 
	C224.526337,471.449280 213.006638,476.924988 202.145218,483.261627 
	C190.541794,490.031189 189.800674,504.325653 199.806946,513.321777 
	C202.973083,516.168274 206.662384,518.813538 210.580261,520.381714 
	C236.546432,530.774963 263.218109,538.181030 292.504242,538.045532 
z"/>
<path fill="#FDFEFF" opacity="1.000000" stroke="none" 
	d="
M353.845032,412.000000 
	C353.844971,353.870239 353.844971,296.240509 353.844971,237.778351 
	C369.920837,241.955902 385.379150,245.817215 400.749298,250.002335 
	C425.966492,256.868683 451.310089,263.460266 474.928101,275.015503 
	C491.591766,283.168304 506.634064,293.457153 516.428772,309.842651 
	C523.753052,322.095367 526.912964,335.680511 528.498108,349.669800 
	C530.479980,367.159729 530.287964,384.524933 525.335510,401.644897 
	C518.285950,426.014191 495.879944,439.430756 471.108673,433.660706 
	C465.785431,432.420746 460.682129,430.261841 455.425934,428.699768 
	C452.151886,427.726776 451.303131,425.782532 451.316895,422.433960 
	C451.450928,389.769989 451.507751,357.104553 451.303894,324.441315 
	C451.264832,318.180573 450.451843,311.830902 449.165131,305.696503 
	C447.703400,298.727539 441.352570,293.483459 434.437103,293.654755 
	C431.956512,293.716156 428.689697,295.901520 427.305817,298.083954 
	C425.438232,301.029297 424.678253,304.850433 424.119049,308.402191 
	C423.580200,311.825073 423.851715,315.383240 423.851349,318.881989 
	C423.842926,401.709930 423.845917,484.537842 423.846802,567.365784 
	C423.846832,570.022766 423.846802,572.679810 423.846802,576.285950 
	C400.301300,568.984070 377.257904,561.837891 353.845062,554.577209 
	C353.845062,507.096649 353.845062,459.798340 353.845032,412.000000 
z"/>
<path fill="#FCFEFE" opacity="1.000000" stroke="none" 
	d="
M560.402222,478.711761 
	C554.050964,476.606506 548.029480,474.002716 541.775574,473.192230 
	C531.059570,471.803345 520.619263,474.025909 510.437408,477.718811 
	C487.279694,486.117950 464.041351,494.294800 440.831360,502.549622 
	C439.753235,502.933105 438.632690,503.197266 436.844971,503.716461 
	C436.844971,494.068542 436.768036,484.816101 436.876801,475.565826 
	C436.932739,470.805725 435.694183,464.886536 438.026184,461.627441 
	C440.239258,458.534576 446.346985,458.228333 450.742157,456.696960 
	C465.978241,451.388184 481.885895,449.863281 497.792175,448.258545 
	C535.289917,444.475372 571.083252,450.911102 605.335632,466.277313 
	C612.389587,469.441864 618.811829,473.673492 621.645691,481.563110 
	C623.881042,487.786072 622.852905,493.244598 618.349548,498.182037 
	C609.861511,507.488312 598.662476,512.572327 587.359436,516.816040 
	C538.740662,535.070007 489.919098,552.783875 441.165802,570.679260 
	C439.941895,571.128479 438.653198,571.401245 436.872864,571.903625 
	C436.872864,558.601135 436.782104,545.647583 437.029968,532.700439 
	C437.051880,531.555298 439.091248,529.934753 440.516693,529.405884 
	C473.413116,517.201416 506.357574,505.126556 539.283875,493.002533 
	C544.280762,491.162628 549.360962,489.471069 554.159607,487.197784 
	C557.446045,485.640869 561.519470,484.132507 560.402222,478.711761 
z"/>
<path fill="#FCFDFE" opacity="1.000000" stroke="none" 
	d="
M292.005707,538.039246 
	C263.218109,538.181030 236.546432,530.774963 210.580261,520.381714 
	C206.662384,518.813538 202.973083,516.168274 199.806946,513.321777 
	C189.800674,504.325653 190.541794,490.031189 202.145218,483.261627 
	C213.006638,476.924988 224.526337,471.449280 236.276535,466.954712 
	C269.075378,454.408813 302.142975,442.565582 335.108856,430.456787 
	C336.477905,429.953888 337.890747,429.570221 339.836182,428.956604 
	C339.836182,442.527191 339.924591,455.635956 339.672119,468.738129 
	C339.651398,469.813019 337.475677,471.288086 336.022888,471.827362 
	C314.200073,479.927917 292.318176,487.869232 270.484283,495.940216 
	C266.907166,497.262482 263.284607,498.685577 260.053497,500.666351 
	C255.511353,503.450867 255.516922,507.418335 260.193329,509.900024 
	C263.318787,511.558685 267.009949,512.545227 270.550476,512.962341 
	C289.879028,515.239258 307.800171,509.881714 325.319061,502.454071 
	C329.882385,500.519348 334.607819,498.967041 339.615417,497.106567 
	C339.615417,509.472382 339.615417,521.372253 339.615417,534.747986 
	C323.891602,535.848572 308.197906,536.947021 292.005707,538.039246 
z"/>
</svg>