<svg version="1.1" id="Layer_1" xmlns="http://www.w3.org/2000/svg" xmlns:xlink="http://www.w3.org/1999/xlink" x="0px" y="0px"
	 width="100%" viewBox="0 0 824 818" enable-background="new 0 0 824 818" xml:space="preserve">
<path fill="#FFFFFF" opacity="1.000000" stroke="none" 
	d="
M560.000000,819.000000 
	C373.333374,819.000000 187.166779,819.000000 1.000125,819.000000 
	C1.000083,546.333496 1.000083,273.666931 1.000042,1.000308 
	C275.666443,1.000205 550.332886,1.000205 824.999512,1.000103 
	C824.999634,273.666351 824.999634,546.332703 824.999817,818.999512 
	C736.833313,819.000000 648.666687,819.000000 560.000000,819.000000 
M394.514282,764.145142 
	C406.499573,764.122375 418.580261,765.050720 430.448425,763.860291 
	C449.607788,761.938599 468.901886,759.841492 487.643921,755.620178 
	C518.916199,748.576538 548.968506,737.754150 576.718018,721.166931 
	C600.439331,706.987488 621.960754,690.054810 641.961853,671.047974 
	C673.899536,640.697937 698.960022,605.576721 716.333801,565.030579 
	C735.919495,519.322266 744.907837,471.533295 743.508545,421.917755 
	C743.073425,406.490875 741.274231,391.027924 739.022644,375.740051 
	C730.506531,317.916351 706.104675,267.106171 669.412842,222.036087 
	C646.315063,193.664108 619.346802,169.296951 588.552551,149.621140 
	C546.082031,122.484779 499.383057,106.734940 449.333282,100.716415 
	C413.444550,96.400772 377.837799,97.894775 342.577301,105.625496 
	C281.156921,119.091652 227.333694,146.895172 181.697357,190.577179 
	C154.451279,216.656464 131.602432,245.919846 114.469940,279.417572 
	C95.574005,316.363190 83.913734,355.563141 79.620438,396.990173 
	C75.875443,433.126434 77.888947,468.777466 85.919907,504.179810 
	C94.703583,542.900269 109.578377,579.044617 131.321335,612.273254 
	C157.105881,651.678528 189.493286,684.850525 228.697296,710.793945 
	C278.545319,743.781128 333.990631,760.576538 394.514282,764.145142 
z"/>
<path fill="#2F6ECB" opacity="1.000000" stroke="none" 
	d="
M394.029114,764.135254 
	C333.990631,760.576538 278.545319,743.781128 228.697296,710.793945 
	C189.493286,684.850525 157.105881,651.678528 131.321335,612.273254 
	C109.578377,579.044617 94.703583,542.900269 85.919907,504.179810 
	C77.888947,468.777466 75.875443,433.126434 79.620438,396.990173 
	C83.913734,355.563141 95.574005,316.363190 114.469940,279.417572 
	C131.602432,245.919846 154.451279,216.656464 181.697357,190.577179 
	C227.333694,146.895172 281.156921,119.091652 342.577301,105.625496 
	C377.837799,97.894775 413.444550,96.400772 449.333282,100.716415 
	C499.383057,106.734940 546.082031,122.484779 588.552551,149.621140 
	C619.346802,169.296951 646.315063,193.664108 669.412842,222.036087 
	C706.104675,267.106171 730.506531,317.916351 739.022644,375.740051 
	C741.274231,391.027924 743.073425,406.490875 743.508545,421.917755 
	C744.907837,471.533295 735.919495,519.322266 716.333801,565.030579 
	C698.960022,605.576721 673.899536,640.697937 641.961853,671.047974 
	C621.960754,690.054810 600.439331,706.987488 576.718018,721.166931 
	C548.968506,737.754150 518.916199,748.576538 487.643921,755.620178 
	C468.901886,759.841492 449.607788,761.938599 430.448425,763.860291 
	C418.580261,765.050720 406.499573,764.122375 394.029114,764.135254 
M360.960205,347.010040 
	C363.582275,330.315216 373.539276,319.516602 389.180878,314.706238 
	C396.112946,312.574341 403.956421,313.023041 411.389832,312.983612 
	C427.085052,312.900269 438.901672,320.314667 446.677094,333.586029 
	C454.371796,346.719574 454.690491,363.555176 438.509857,373.124298 
	C433.355957,376.172241 428.279633,379.355499 423.227936,382.571259 
	C411.724823,389.893768 400.073578,397.004913 388.839905,404.722137 
	C380.681091,410.326996 374.826477,418.134705 372.349854,427.844452 
	C370.593567,434.730225 368.984314,441.822083 368.697632,448.878387 
	C368.132294,462.794189 368.531006,476.749146 368.531006,490.919250 
	C393.843231,490.919250 418.929779,490.919250 444.599915,490.919250 
	C444.599915,489.063568 444.599823,487.440369 444.599915,485.817169 
	C444.600464,477.320038 444.872040,468.812256 444.538879,460.328247 
	C444.025085,447.245239 449.349426,437.574524 460.387634,430.729095 
	C473.965424,422.308777 487.679474,414.076385 500.900848,405.122284 
	C513.709351,396.447784 523.824158,385.484253 527.302856,369.574310 
	C531.002075,352.655487 530.975159,335.733704 526.806396,319.071625 
	C518.178406,284.586761 495.699738,261.998230 462.876343,250.511261 
	C423.681122,236.794388 384.386627,237.299057 346.267517,255.361282 
	C327.721588,264.149048 311.672943,275.831451 302.428894,295.152008 
	C294.499481,311.724945 292.937958,329.514465 291.391388,347.361877 
	C291.373016,347.574005 292.446320,347.880737 293.636200,348.686829 
	C315.388336,348.788330 337.140472,348.900604 358.892731,348.940094 
	C359.557617,348.941315 360.223877,348.184875 360.960205,347.010040 
M415.244080,526.985474 
	C386.093445,523.710815 358.017822,550.830688 364.459351,584.438660 
	C368.699738,606.562439 389.739685,624.816895 416.448029,622.023010 
	C438.698303,619.695496 457.673767,598.978088 458.149506,576.871582 
	C458.704956,551.058777 441.036194,529.637878 415.244080,526.985474 
z"/>
<path fill="#FDFEFF" opacity="1.000000" stroke="none" 
	d="
M293.010040,348.143280 
	C292.446320,347.880737 291.373016,347.574005 291.391388,347.361877 
	C292.937958,329.514465 294.499481,311.724945 302.428894,295.152008 
	C311.672943,275.831451 327.721588,264.149048 346.267517,255.361282 
	C384.386627,237.299057 423.681122,236.794388 462.876343,250.511261 
	C495.699738,261.998230 518.178406,284.586761 526.806396,319.071625 
	C530.975159,335.733704 531.002075,352.655487 527.302856,369.574310 
	C523.824158,385.484253 513.709351,396.447784 500.900848,405.122284 
	C487.679474,414.076385 473.965424,422.308777 460.387634,430.729095 
	C449.349426,437.574524 444.025085,447.245239 444.538879,460.328247 
	C444.872040,468.812256 444.600464,477.320038 444.599915,485.817169 
	C444.599823,487.440369 444.599915,489.063568 444.599915,490.919250 
	C418.929779,490.919250 393.843231,490.919250 368.531006,490.919250 
	C368.531006,476.749146 368.132294,462.794189 368.697632,448.878387 
	C368.984314,441.822083 370.593567,434.730225 372.349854,427.844452 
	C374.826477,418.134705 380.681091,410.326996 388.839905,404.722137 
	C400.073578,397.004913 411.724823,389.893768 423.227936,382.571259 
	C428.279633,379.355499 433.355957,376.172241 438.509857,373.124298 
	C454.690491,363.555176 454.371796,346.719574 446.677094,333.586029 
	C438.901672,320.314667 427.085052,312.900269 411.389832,312.983612 
	C403.956421,313.023041 396.112946,312.574341 389.180878,314.706238 
	C373.539276,319.516602 363.582275,330.315216 360.469543,347.456421 
	C337.655945,347.982941 315.333008,348.063110 293.010040,348.143280 
z"/>
<path fill="#FDFEFF" opacity="1.000000" stroke="none" 
	d="
M415.707458,527.007568 
	C441.036194,529.637878 458.704956,551.058777 458.149506,576.871582 
	C457.673767,598.978088 438.698303,619.695496 416.448029,622.023010 
	C389.739685,624.816895 368.699738,606.562439 364.459351,584.438660 
	C358.017822,550.830688 386.093445,523.710815 415.707458,527.007568 
z"/>
<path fill="#456BA7" opacity="1.000000" stroke="none" 
	d="
M293.323120,348.415039 
	C315.333008,348.063110 337.655945,347.982941 360.434204,347.842224 
	C360.223877,348.184875 359.557617,348.941315 358.892731,348.940094 
	C337.140472,348.900604 315.388336,348.788330 293.323120,348.415039 
z"/>
</svg>