<svg version="1.1" id="Layer_1" xmlns="http://www.w3.org/2000/svg" xmlns:xlink="http://www.w3.org/1999/xlink" x="0px" y="0px"
	 width="100%" viewBox="0 0 698 522" enable-background="new 0 0 698 522" xml:space="preserve">
<path fill="#FFFFFF" opacity="1.000000" stroke="none" 
	d="
M482.000000,523.000000 
	C321.333344,523.000000 161.166672,523.000000 1.000000,523.000000 
	C1.000000,349.000000 1.000000,175.000000 1.000000,1.000000 
	C233.666672,1.000000 466.333344,1.000000 699.000000,1.000000 
	C699.000000,175.000000 699.000000,349.000000 699.000000,523.000000 
	C626.833313,523.000000 554.666687,523.000000 482.000000,523.000000 
M86.169487,222.822647 
	C85.997757,223.113922 85.826027,223.405182 85.726280,223.623581 
	C85.726280,223.623581 85.631432,223.662582 84.990494,223.941772 
	C83.259773,228.665527 81.529053,233.389282 79.424187,239.134247 
	C82.219597,238.376862 83.389961,238.059769 85.438217,237.504822 
	C87.329971,253.554199 84.805267,268.421082 78.858292,282.873627 
	C78.858292,282.873627 78.857872,282.719940 78.070412,282.904816 
	C76.887741,281.452057 75.705063,279.999329 73.490234,277.278717 
	C74.098106,291.587677 74.658630,304.782166 75.160942,318.755249 
	C75.355400,319.499969 75.549866,320.244659 75.539726,321.773163 
	C76.363327,326.843262 77.186928,331.913330 77.998734,336.997223 
	C77.998734,336.997223 78.012764,336.993439 77.925255,337.848938 
	C81.275894,350.911560 84.626526,363.974213 88.005791,377.009796 
	C88.005791,377.009796 87.967522,377.015137 87.968544,377.712708 
	C88.642288,379.148529 89.316040,380.584320 90.002892,382.003632 
	C90.002892,382.003632 89.983917,382.005585 89.981857,382.702240 
	C90.652893,384.137024 91.323921,385.571838 92.000000,387.000000 
	C92.000000,387.000000 91.993774,387.003235 92.003189,387.741455 
	C93.645142,390.858124 95.287094,393.974823 96.990463,397.013641 
	C96.990463,397.013641 96.902351,397.059113 96.954582,397.753601 
	C97.896645,399.341949 98.838707,400.930328 99.797607,402.808777 
	C99.797607,402.808777 100.025932,402.988495 100.070824,403.522034 
	C100.321785,403.755249 100.572746,403.988464 100.848152,404.114319 
	C100.848152,404.114319 100.743500,404.148468 100.839066,404.819031 
	C101.777451,406.303101 102.715836,407.787170 103.693497,409.064362 
	C103.693497,409.064362 103.635048,409.274658 103.781296,409.961853 
	C105.526260,412.633911 107.271225,415.306000 108.998817,417.998779 
	C108.998817,417.998779 109.021034,417.986023 109.097168,418.607422 
	C109.730621,419.408203 110.364082,420.209015 111.001160,421.000000 
	C111.001160,421.000000 110.991508,420.999603 111.067390,421.620026 
	C111.715500,422.408142 112.363602,423.196289 112.999390,424.000000 
	C112.999390,424.000000 113.015144,423.989868 113.094109,424.587219 
	C113.618416,425.161316 114.142715,425.735382 114.939980,426.171967 
	C114.939980,426.171967 114.648842,426.264984 114.800789,426.908051 
	C115.859116,428.285004 116.917442,429.661987 118.003250,431.002838 
	C118.003250,431.002838 117.959534,431.014648 118.063316,431.619049 
	C118.616455,432.187714 119.169586,432.756409 119.764984,433.199249 
	C119.764984,433.199249 119.643471,433.252747 119.779198,433.824860 
	C120.172989,434.236725 120.566772,434.648590 120.999214,435.004120 
	C120.999214,435.004120 120.938560,435.035583 121.097336,435.667419 
	C122.414612,437.083832 123.731895,438.500244 125.006310,439.980225 
	C125.006310,439.980225 125.081512,439.965393 125.173958,440.453430 
	C125.359329,440.781647 125.639374,440.925018 126.200066,441.131653 
	C126.200066,441.131653 126.504929,441.188202 126.875153,441.799164 
	C139.638550,450.301422 154.350555,452.280151 169.639221,454.708130 
	C170.097733,454.732178 170.556229,454.756256 171.813629,455.017883 
	C186.221527,456.225494 200.629425,457.433105 215.691849,458.808716 
	C216.139481,458.777313 216.587112,458.745911 217.944870,458.930878 
	C229.609604,458.847870 241.274338,458.764862 253.762253,458.794617 
	C254.839050,458.607544 255.915848,458.420471 257.790924,458.483215 
	C280.255768,455.115662 302.797638,452.180664 325.153625,448.201538 
	C336.662628,446.153107 347.840668,442.245209 359.071869,439.140442 
	C359.071869,439.140442 359.097015,439.240601 359.910400,439.242493 
	C369.777405,435.566620 379.644379,431.890747 389.790344,428.251770 
	C389.790344,428.251770 389.991547,428.055023 390.732269,428.010498 
	C393.895020,426.423096 397.057770,424.835724 400.043518,423.151917 
	C400.043518,423.151917 400.183990,423.296448 400.877991,423.193512 
	C402.452789,422.217682 404.027557,421.241852 405.837494,420.291962 
	C405.837494,420.291962 405.986603,420.108337 406.620239,420.028320 
	C406.925720,419.745728 407.231232,419.463135 407.810242,419.200043 
	C407.810242,419.200043 407.989105,418.992188 408.662445,418.932220 
	C410.131073,417.970673 411.599701,417.009125 413.008240,416.000549 
	C413.008240,416.000549 413.041016,416.069397 413.701996,415.949860 
	C415.246979,414.768097 416.791992,413.586365 418.120178,412.104767 
	C418.120178,412.104767 418.329712,412.398315 418.934692,412.248260 
	C419.726227,411.615631 420.517792,410.983032 421.164886,409.996063 
	C421.164886,409.996063 421.281830,410.360077 421.946625,410.191071 
	C424.628601,408.124939 427.310577,406.058807 430.000000,404.000000 
	C430.000000,404.000000 429.994171,403.991547 430.510986,403.886292 
	C430.718079,403.615784 430.925171,403.345245 431.048737,403.052612 
	C431.048737,403.052612 431.066498,403.137177 431.670074,403.006378 
	C432.220184,402.426544 432.770294,401.846710 433.152649,401.169800 
	C433.152649,401.169800 433.270569,401.323547 433.766205,401.195679 
	C433.968658,400.934509 434.171143,400.673309 434.312439,400.463806 
	C434.312439,400.463806 434.391449,400.439178 434.936493,400.274200 
	C435.314331,399.866425 435.692139,399.458618 436.010620,399.002686 
	C436.010620,399.002686 436.035004,399.075104 436.561829,398.951019 
	C436.759583,398.663727 436.957336,398.376434 437.067566,398.077118 
	C437.067566,398.077118 437.088409,398.162994 437.675995,397.994263 
	C438.226776,397.422150 438.777557,396.850037 439.132080,396.143585 
	C439.132080,396.143585 439.284515,396.326172 439.787720,396.158875 
	C439.968231,395.865936 440.148743,395.573029 440.126160,395.159393 
	C440.126160,395.159393 440.288025,395.331482 440.788666,395.176117 
	C440.976318,394.893219 441.163940,394.610321 440.995056,394.180542 
	C440.995056,394.180542 441.337433,394.358185 441.822235,394.205139 
	C442.006409,393.932373 442.190582,393.659637 442.259979,392.987610 
	C442.259979,392.987610 442.400604,393.379364 442.866669,393.218018 
	C443.164246,393.028839 443.337616,392.759674 443.199860,392.428802 
	C443.199860,392.428802 443.395782,392.431061 443.934845,392.256317 
	C444.296021,391.836639 444.657227,391.416962 445.548981,390.787598 
	C446.039276,390.218079 446.529572,389.648560 447.528473,388.919189 
	C447.712952,388.626556 447.897400,388.333893 448.011444,388.010345 
	C448.011444,388.010345 448.041626,388.081116 448.552399,387.930542 
	C448.732849,387.636475 448.913269,387.342438 449.017578,387.017395 
	C449.017578,387.017395 449.049255,387.093231 449.561951,386.937012 
	C449.735657,386.637848 449.909393,386.338684 450.010742,386.012665 
	C450.010742,386.012665 450.043518,386.082581 450.539459,385.900421 
	C450.691132,385.598358 450.842773,385.296295 451.000000,385.000000 
	C451.000000,385.000000 450.993378,384.995544 451.549957,384.681366 
	C452.404541,383.480103 453.259094,382.278870 454.019318,381.010223 
	C454.019318,381.010223 454.084259,381.106232 454.609680,380.840668 
	C454.871735,380.325775 455.133759,379.810883 455.272583,379.227509 
	C455.272583,379.227509 455.320740,379.360046 455.916565,379.113525 
	C456.925201,377.735779 457.933868,376.358002 459.173676,374.799347 
	C459.173676,374.799347 459.204742,374.507446 459.779724,374.140564 
	C460.538239,372.771362 461.296753,371.402130 461.995636,370.009674 
	C461.995636,370.009674 462.040100,370.055939 462.596863,369.676331 
	C465.971863,361.626160 470.462799,353.846252 472.491699,345.470001 
	C476.838745,327.523193 475.057556,309.976410 465.129272,293.926086 
	C465.129272,293.926086 465.240723,293.868103 465.156525,293.157349 
	C463.554138,290.668182 461.951782,288.179047 460.077148,285.665161 
	C460.077148,285.665161 460.350922,285.657715 460.209839,285.058441 
	C459.603790,284.263092 458.997742,283.467743 457.986298,282.917023 
	C457.986298,282.917023 458.394714,282.683350 458.268951,282.066620 
	C457.634552,281.271637 457.000183,280.476654 456.056458,279.716400 
	C456.056458,279.716400 456.367676,279.719360 456.216614,279.165527 
	C455.807343,278.783966 455.398071,278.402405 454.862366,277.555237 
	C454.709503,277.249664 454.470184,277.045349 453.989899,276.319336 
	C452.979218,275.241974 451.968536,274.164581 450.829346,272.605988 
	C450.657623,272.301849 450.406281,272.094025 449.955292,271.449921 
	C449.666046,271.249023 449.376831,271.048157 449.072662,270.934784 
	C449.072662,270.934784 449.158813,270.913300 448.977234,270.323944 
	C448.346954,269.829834 447.716705,269.335724 447.063904,268.927948 
	C447.063904,268.927948 447.151733,268.912048 446.971954,268.392273 
	C446.663696,268.210297 446.355469,268.028320 445.862000,267.423584 
	C445.661926,267.164795 445.399261,267.017853 444.884247,266.493988 
	C444.588257,266.332214 444.292297,266.170410 444.000000,266.000000 
	C444.000000,266.000000 443.992035,266.005310 443.760101,265.477814 
	C443.277954,265.187805 442.795807,264.897827 442.094086,264.824951 
	C442.094086,264.824951 442.349609,264.651550 442.166840,264.162231 
	C441.868805,263.998596 441.570770,263.834930 441.341339,263.854858 
	C441.341339,263.854858 441.316528,263.660431 441.070526,263.083344 
	C440.053375,262.376709 439.036255,261.670044 438.003937,261.003784 
	C438.003937,261.003784 438.038147,260.976868 437.726257,260.429993 
	C436.832550,259.916626 435.938812,259.403259 435.025269,258.977417 
	C435.025269,258.977417 435.097931,258.924774 434.799896,258.411896 
	C434.270782,258.163971 433.741699,257.916046 433.180756,257.843262 
	C433.180756,257.843262 433.283661,257.697998 433.000519,257.136017 
	C432.086121,256.640106 431.171722,256.144196 430.150238,255.931808 
	C430.150238,255.931808 430.301727,255.669296 429.980225,255.087006 
	C423.982666,252.371796 417.985077,249.656586 411.762787,246.757233 
	C411.762787,246.757233 411.478607,246.817627 410.966492,246.282837 
	C399.643982,242.185974 388.321503,238.089111 377.001495,234.001831 
	C377.001495,234.001831 377.012054,233.995911 376.459106,233.544327 
	C370.311584,231.688156 364.164032,229.832001 358.002594,228.001266 
	C358.002594,228.001266 358.024841,227.979126 357.451630,227.532639 
	C350.288483,225.614014 343.125366,223.695404 335.382782,221.373077 
	C334.919861,221.315308 334.456909,221.257538 333.265259,220.917297 
	C321.237213,218.432205 309.296112,215.343842 297.162018,213.594330 
	C275.493103,210.470078 253.707687,208.153793 231.252380,205.248581 
	C230.494797,205.240662 229.737213,205.232742 228.156113,205.003860 
	C200.111649,203.249847 172.071884,202.984573 143.340378,205.204437 
	C142.897522,205.341660 142.454681,205.478867 141.205856,205.413147 
	C134.778259,206.290817 128.308731,206.938110 121.932663,208.098907 
	C111.799927,209.943604 101.642296,211.875015 92.990868,217.991852 
	C92.990868,217.991852 92.945282,217.910324 92.272980,218.010513 
	C90.730522,219.197433 89.188057,220.384338 87.811523,221.632172 
	C87.811523,221.632172 87.634819,221.636688 87.153549,221.813065 
	C86.984550,222.099518 86.815552,222.385956 87.004440,222.924973 
	C87.004440,222.924973 86.660904,222.652679 86.169487,222.822647 
M359.924042,59.621952 
	C340.467804,55.270638 321.270935,57.284882 302.052612,61.523876 
	C289.271454,64.343018 276.866394,67.567940 266.435547,76.142235 
	C249.010483,90.465897 232.633591,105.858612 218.673126,123.591644 
	C215.433823,127.706314 212.845856,133.153641 212.185959,138.274826 
	C211.330444,144.913895 212.436600,151.871262 213.207703,158.633514 
	C213.813599,163.946976 217.082642,166.663132 222.526672,167.201447 
	C225.501801,167.495651 228.507599,167.596741 231.499161,167.590363 
	C288.490234,167.468948 345.400360,168.637924 402.052216,175.875580 
	C452.061737,182.264618 499.799591,195.751694 544.429077,219.541855 
	C577.839539,237.351639 606.857361,260.251587 628.557007,291.726685 
	C632.003479,296.725800 634.903137,301.727722 635.390625,308.025482 
	C635.916382,314.817596 636.873230,321.598999 638.096619,328.302094 
	C638.520508,330.624573 640.305664,332.698608 641.469055,334.886078 
	C643.672424,333.599457 646.610657,332.838776 647.965881,330.945160 
	C661.964111,311.386017 669.309631,289.961609 664.464050,265.681000 
	C663.510315,260.902069 661.463379,256.132385 658.962708,251.928146 
	C656.318054,247.481766 651.875305,247.857376 648.890625,252.121597 
	C647.689026,253.838242 646.673767,255.685272 645.483276,257.619812 
	C644.942383,256.663788 644.496155,255.959610 644.129944,255.215973 
	C620.043091,206.303192 584.240662,167.441208 540.940979,135.035431 
	C508.350891,110.644867 472.124237,93.339081 433.759033,80.217049 
	C409.814606,72.027336 385.809387,64.069275 359.924042,59.621952 
z"/>
<path fill="#306ECB" opacity="1.000000" stroke="none" 
	d="
M450.075317,271.982513 
	C450.406281,272.094025 450.657623,272.301849 450.901917,273.211426 
	C452.031158,274.858643 453.087799,275.900452 454.144440,276.942261 
	C454.470184,277.045349 454.709503,277.249664 454.950867,278.104065 
	C455.482147,279.008423 455.924896,279.363892 456.367676,279.719360 
	C456.367676,279.719360 456.056458,279.716400 456.117279,280.056824 
	C456.916962,281.159271 457.655853,281.921326 458.394714,282.683350 
	C458.394714,282.683350 457.986298,282.917023 458.075195,283.184937 
	C458.893005,284.187836 459.621979,284.922760 460.350922,285.657715 
	C460.350922,285.657715 460.077148,285.665161 460.129272,286.049500 
	C461.867859,288.911926 463.554291,291.390015 465.240723,293.868103 
	C465.240723,293.868103 465.129272,293.926086 465.122253,294.257263 
	C467.980347,303.733398 472.000336,312.361877 472.361481,322.418488 
	C472.823517,335.284882 472.207153,347.605316 466.478027,359.347412 
	C464.786835,362.813538 463.507904,366.480835 462.040100,370.055939 
	C462.040100,370.055939 461.995636,370.009674 461.661255,370.062622 
	C460.619507,371.579529 459.912140,373.043488 459.204773,374.507446 
	C459.204742,374.507446 459.173676,374.799347 458.718597,374.930359 
	C457.282593,376.494293 456.301666,377.927185 455.320740,379.360046 
	C455.320740,379.360046 455.272583,379.227509 455.004639,379.298462 
	C454.519226,379.948334 454.301727,380.527283 454.084229,381.106232 
	C454.084259,381.106232 454.019318,381.010223 453.701172,381.053955 
	C452.586487,382.396942 451.789917,383.696259 450.993378,384.995544 
	C450.993378,384.995544 451.000000,385.000000 450.769287,385.109558 
	C450.373535,385.506958 450.208527,385.794769 450.043518,386.082581 
	C450.043518,386.082581 450.010742,386.012665 449.802979,386.120789 
	C449.413208,386.517029 449.231262,386.805145 449.049255,387.093262 
	C449.049255,387.093231 449.017578,387.017395 448.809540,387.121948 
	C448.414886,387.511383 448.228241,387.796265 448.041626,388.081116 
	C448.041626,388.081116 448.011444,388.010345 447.799927,388.116638 
	C447.398895,388.508331 447.209381,388.793701 447.019897,389.079041 
	C446.529572,389.648560 446.039276,390.218079 444.961212,390.918152 
	C444.047546,391.509491 443.721649,391.970276 443.395782,392.431061 
	C443.395782,392.431061 443.199860,392.428802 442.993591,392.397095 
	C442.658417,392.703400 442.529510,393.041382 442.400604,393.379364 
	C442.400604,393.379364 442.259979,392.987610 442.018616,393.171875 
	C441.630646,393.690155 441.484039,394.024170 441.337433,394.358185 
	C441.337433,394.358185 440.995056,394.180542 440.876709,394.259094 
	C440.601562,394.668915 440.444794,395.000183 440.288025,395.331482 
	C440.288025,395.331482 440.126160,395.159393 439.933350,395.242371 
	C439.588501,395.658997 439.436523,395.992584 439.284546,396.326172 
	C439.284515,396.326172 439.132080,396.143585 438.903320,396.216003 
	C438.145844,396.913269 437.617157,397.538147 437.088440,398.163025 
	C437.088409,398.162994 437.067566,398.077118 436.854675,398.155212 
	C436.439545,398.513885 436.237274,398.794495 436.035034,399.075134 
	C436.035004,399.075104 436.010620,399.002686 435.712524,399.036743 
	C435.073425,399.526917 434.732422,399.983032 434.391449,400.439178 
	C434.391449,400.439178 434.312439,400.463806 434.047241,400.409912 
	C433.611542,400.678497 433.441071,401.001038 433.270569,401.323547 
	C433.270569,401.323547 433.152649,401.169800 432.912262,401.228668 
	C432.136749,401.904083 431.601624,402.520630 431.066498,403.137177 
	C431.066498,403.137177 431.048737,403.052612 430.837677,403.125305 
	C430.415802,403.462524 430.204987,403.727051 429.994171,403.991547 
	C429.994171,403.991547 430.000000,404.000000 429.629700,403.994598 
	C426.600220,406.112823 423.941010,408.236450 421.281830,410.360077 
	C421.281830,410.360077 421.164886,409.996063 420.879364,410.085571 
	C419.839111,410.916168 419.084412,411.657227 418.329712,412.398315 
	C418.329712,412.398315 418.120178,412.104767 417.857727,412.152466 
	C416.077179,413.489929 414.559082,414.779663 413.041016,416.069397 
	C413.041016,416.069397 413.008240,416.000549 412.666626,416.005310 
	C410.879730,417.004089 409.434418,417.998138 407.989105,418.992188 
	C407.989105,418.992188 407.810242,419.200043 407.349487,419.217102 
	C406.588013,419.525574 406.287323,419.816986 405.986633,420.108337 
	C405.986603,420.108337 405.837494,420.291962 405.318115,420.208923 
	C403.260498,421.182739 401.722229,422.239594 400.183990,423.296448 
	C400.183990,423.296448 400.043518,423.151917 399.738159,423.121643 
	C396.285736,424.745941 393.138641,426.400482 389.991547,428.055023 
	C389.991547,428.055023 389.790344,428.251770 389.226776,428.174011 
	C382.957184,430.085907 377.216644,431.983124 371.556488,434.095673 
	C367.349304,435.665955 363.246368,437.515442 359.097015,439.240601 
	C359.097015,439.240601 359.071869,439.140442 358.695312,439.093567 
	C351.642303,440.697876 344.993378,442.472290 338.282135,443.967102 
	C330.943909,445.601501 323.554596,447.010468 316.175385,448.455566 
	C309.884155,449.687683 303.609924,451.077637 297.267365,451.960999 
	C285.820770,453.555115 274.320740,454.762482 262.863281,456.284088 
	C260.855499,456.550690 258.946991,457.564606 256.992645,458.233398 
	C255.915848,458.420471 254.839050,458.607544 253.017059,458.507141 
	C245.791031,458.149200 239.308899,457.966766 232.829819,458.043518 
	C227.562881,458.105865 222.299637,458.479065 217.034744,458.714478 
	C216.587112,458.745911 216.139481,458.777313 215.230850,458.365417 
	C213.052979,457.618011 211.347107,457.209320 209.617386,457.027283 
	C200.483566,456.066071 191.355499,455.006744 182.200272,454.313873 
	C178.504684,454.034210 174.745163,454.599518 171.014740,454.780304 
	C170.556229,454.756256 170.097733,454.732178 169.202347,454.232361 
	C163.459091,452.508270 158.133652,451.334869 152.851562,449.991028 
	C147.312988,448.581879 141.815994,447.009216 134.902863,445.127472 
	C138.001816,444.126831 139.506927,443.640839 141.183365,443.052124 
	C141.354675,442.949371 141.748810,442.884003 142.141647,442.859375 
	C144.980927,439.995270 144.902328,437.369965 141.782104,434.895660 
	C141.694809,434.795990 141.780792,434.545349 141.843506,434.129974 
	C140.881699,431.835388 139.857162,429.956207 138.884033,428.060547 
	C138.935440,428.044067 138.877930,428.135437 138.899628,427.804871 
	C138.523788,427.016724 138.126251,426.559143 137.530182,425.983032 
	C137.111481,425.626007 137.000427,425.344482 136.981171,424.702454 
	C136.542892,423.987030 136.121918,423.589050 135.756454,423.168579 
	C135.811981,423.146149 135.783768,423.262543 135.752655,422.986389 
	C135.435043,422.496338 135.148560,422.282471 134.905945,422.058868 
	C134.949814,422.049133 134.917480,422.132996 134.863495,421.881470 
	C134.554062,421.413330 134.298615,421.196747 134.019852,420.987701 
	C133.996521,420.995270 134.028519,420.957855 134.002228,420.648376 
	C133.561020,419.945770 133.146088,419.552643 132.806885,419.127136 
	C132.882599,419.094788 132.772705,419.217468 132.840118,418.836304 
	C131.555466,417.006256 130.203400,415.557404 128.892273,414.075500 
	C128.933212,414.042419 128.913864,414.145874 128.843765,413.886292 
	C128.483963,413.433411 128.194260,413.240051 127.942230,413.032745 
	C127.979889,413.018799 127.953712,413.094727 127.863190,412.845856 
	C127.479683,412.416229 127.186699,412.235474 126.933418,412.040833 
	C126.973122,412.026947 126.945686,412.106445 126.858818,411.855560 
	C126.479836,411.421143 126.187721,411.237610 125.934792,411.039185 
	C125.973976,411.024231 125.947220,411.103729 125.857346,410.856262 
	C125.479073,410.423737 125.190666,410.238678 124.941605,410.037231 
	C124.980942,410.020874 124.946678,410.098907 124.854630,409.851990 
	C124.471558,409.424011 124.180527,409.242920 123.930054,409.044769 
	C123.970619,409.027679 123.940575,409.110443 123.841217,408.860046 
	C123.434151,408.445038 123.126434,408.280426 122.864784,408.105042 
	C122.910858,408.094299 122.887558,408.186005 122.804703,407.918945 
	C122.398613,407.497559 122.075386,407.343201 121.807388,407.169128 
	C121.862602,407.149414 121.816811,407.257355 121.753510,406.976807 
	C121.351891,406.569275 121.013580,406.442352 120.781700,406.280640 
	C120.888130,406.245911 120.706543,406.376923 120.680161,406.007385 
	C119.401840,405.120575 118.149895,404.603333 116.935074,404.054688 
	C116.972191,404.023285 116.948326,404.117554 116.807205,403.777100 
	C114.594032,401.770416 112.557266,400.465881 110.996025,403.995178 
	C111.000305,404.000000 110.990494,403.994202 110.673721,404.166809 
	C107.702797,407.229584 109.509109,409.630371 111.256821,412.125000 
	C111.311340,412.206451 111.227448,412.383606 111.235306,412.715302 
	C111.524879,413.368927 111.806602,413.690826 112.179382,414.103943 
	C112.270424,414.195129 112.209991,414.445648 112.224930,414.763245 
	C112.523201,415.375946 112.806526,415.671082 113.049301,415.971558 
	C113.008751,415.976898 113.064133,415.916687 113.053635,416.232758 
	C113.404030,417.015808 113.764923,417.482758 114.079330,417.958435 
	C114.032852,417.967133 114.090103,417.891815 114.076523,418.216003 
	C114.441338,419.006897 114.819733,419.473572 115.399490,420.073914 
	C115.818398,420.462158 115.938362,420.756561 115.989899,421.390533 
	C116.407578,422.098083 116.796127,422.505798 117.132217,422.925110 
	C117.079765,422.936737 117.138489,422.846771 117.114799,423.180756 
	C117.522583,423.917023 117.954056,424.319275 118.327942,424.783875 
	C118.270355,424.846161 118.311623,424.681580 118.314651,424.968628 
	C118.621986,425.455292 118.926285,425.654877 119.181786,425.869385 
	C119.132988,425.884277 119.158318,425.785400 119.198685,426.052856 
	C119.512848,426.537933 119.786644,426.755524 120.029251,426.982178 
	C119.998070,426.991241 120.040344,426.941864 120.028671,427.316895 
	C120.766998,428.422424 121.516991,429.152924 122.466995,429.990356 
	C122.897186,430.319214 123.017799,430.589935 123.037735,431.236298 
	C123.478088,431.964050 123.909538,432.364990 124.281792,432.791565 
	C124.222588,432.817230 124.260513,432.693878 124.290550,432.982300 
	C124.649422,433.427216 124.978264,433.583740 125.220490,433.807648 
	C125.133865,433.875061 125.259010,433.694702 125.288971,433.983643 
	C125.649261,434.426025 125.979599,434.579498 126.216583,434.810699 
	C126.123230,434.888428 126.265381,434.691406 126.292702,434.981079 
	C126.652870,435.415619 126.985718,435.560486 127.194153,435.832581 
	C127.069756,435.959808 127.291191,435.681213 127.309494,435.971649 
	C127.657082,436.417297 127.986366,436.572510 128.226685,436.810974 
	C128.137741,436.894196 128.268433,436.688568 128.297180,436.977356 
	C128.656235,437.418549 128.986526,437.570953 129.252625,437.748962 
	C129.188431,437.774597 129.253479,437.652618 129.300049,437.965820 
	C129.894867,438.522644 130.443115,438.766266 130.995453,439.005096 
	C130.999542,439.000275 130.990143,439.009064 130.983719,439.373840 
	C129.486496,440.221771 127.995712,440.704987 126.504929,441.188202 
	C126.504929,441.188202 126.200066,441.131653 126.007339,440.803894 
	C125.628410,440.222443 125.384041,440.052185 125.081512,439.965393 
	C125.081512,439.965393 125.006310,439.980225 124.986443,439.599976 
	C123.623901,437.825043 122.281227,436.430328 120.938553,435.035583 
	C120.938560,435.035583 120.999214,435.004120 120.972977,434.707947 
	C120.512314,434.025421 120.077888,433.639069 119.643471,433.252747 
	C119.643471,433.252747 119.764984,433.199249 119.741974,432.942139 
	C119.132477,432.128235 118.545998,431.571442 117.959534,431.014648 
	C117.959534,431.014648 118.003250,431.002838 118.002563,430.657104 
	C116.884193,428.962585 115.766510,427.613800 114.648834,426.264984 
	C114.648842,426.264984 114.939980,426.171967 114.878967,425.897583 
	C114.217010,425.078735 113.616081,424.534302 113.015152,423.989868 
	C113.015144,423.989868 112.999390,424.000000 112.988899,423.669434 
	C112.316109,422.559113 111.653809,421.779358 110.991508,420.999603 
	C110.991508,420.999603 111.001160,421.000000 111.006805,420.651093 
	C110.348656,419.530121 109.684845,418.758057 109.021042,417.986023 
	C109.021034,417.986023 108.998817,417.998779 108.975632,417.625183 
	C107.179985,414.592621 105.407509,411.933624 103.635040,409.274658 
	C103.635048,409.274658 103.693497,409.064362 103.778091,408.795898 
	C102.822952,407.067810 101.783226,405.608124 100.743500,404.148468 
	C100.743500,404.148468 100.848152,404.114319 100.815247,403.902252 
	C100.530197,403.456299 100.278061,403.222412 100.025925,402.988495 
	C100.025932,402.988495 99.797607,402.808777 99.848221,402.241272 
	C98.900009,400.135559 97.901176,398.597351 96.902351,397.059113 
	C96.902351,397.059113 96.990463,397.013641 96.988266,396.671143 
	C95.321968,393.220184 93.657867,390.111725 91.993774,387.003235 
	C91.993774,387.003235 92.000000,387.000000 92.012314,386.607086 
	C91.344391,384.811310 90.664154,383.408447 89.983917,382.005585 
	C89.983917,382.005585 90.002892,382.003632 90.014038,381.613892 
	C89.339294,379.821167 88.653404,378.418152 87.967514,377.015137 
	C87.967522,377.015137 88.005791,377.009796 88.013641,376.597107 
	C87.970985,374.862701 88.129982,373.492584 87.837204,372.226929 
	C85.224571,360.932648 82.553444,349.651581 79.802032,338.390472 
	C79.661072,337.813507 78.629623,337.454102 78.012772,336.993439 
	C78.012764,336.993439 77.998734,336.997223 78.021912,336.528442 
	C77.278168,331.036255 76.511253,326.012817 75.744331,320.989380 
	C75.549866,320.244659 75.355400,319.499969 75.438156,318.038849 
	C75.805878,308.000916 75.719193,298.671844 76.114929,289.363281 
	C76.210556,287.114014 77.900879,284.932587 78.857872,282.719940 
	C78.857872,282.719940 78.858292,282.873627 79.143021,282.774963 
	C80.675583,280.396179 82.502518,278.249725 83.065437,275.811493 
	C84.947159,267.661011 86.886276,259.462708 87.807655,251.172089 
	C88.468132,245.229034 89.868103,238.317490 82.570580,235.257019 
	C83.669174,231.095551 84.650299,227.379059 85.631424,223.662582 
	C85.631432,223.662582 85.726280,223.623581 85.986549,223.644318 
	C86.384850,223.327591 86.522881,222.990143 86.660904,222.652679 
	C86.660904,222.652679 87.004440,222.924973 87.123184,222.790466 
	C87.372887,222.316208 87.503853,221.976440 87.634819,221.636688 
	C87.634819,221.636688 87.811523,221.632172 88.093506,221.712112 
	C89.898758,220.498138 91.422020,219.204239 92.945282,217.910324 
	C92.945282,217.910324 92.990868,217.991852 93.342758,217.987350 
	C107.453346,212.702667 121.443985,208.468689 136.330917,207.832474 
	C138.252609,207.750336 140.119522,206.386307 142.011826,205.616089 
	C142.454681,205.478867 142.897522,205.341660 144.021790,205.475250 
	C146.355530,205.828079 148.010391,206.014877 149.659836,205.975433 
	C162.248886,205.674530 174.836761,205.076309 187.425217,205.070847 
	C199.514740,205.065598 211.603790,205.696823 223.695084,205.950760 
	C225.450729,205.987610 227.217834,205.480316 228.979630,205.224823 
	C229.737213,205.232742 230.494797,205.240662 231.740616,205.702606 
	C235.410690,206.766693 238.569611,207.655075 241.779922,207.919449 
	C246.230103,208.285934 250.768234,207.800781 255.179916,208.369354 
	C262.213379,209.275833 269.152374,210.892471 276.171265,211.941711 
	C282.459229,212.881683 288.879822,213.061432 295.102112,214.286499 
	C306.534180,216.537247 317.850830,219.369476 329.251221,221.791718 
	C330.723755,222.104599 332.407867,221.421524 333.993988,221.199768 
	C334.456909,221.257538 334.919861,221.315308 335.792358,221.883102 
	C343.429077,224.439423 350.134033,228.525665 358.024841,227.979126 
	C358.024841,227.979126 358.002594,228.001266 358.079468,228.362640 
	C364.441589,230.481293 370.726837,232.238602 377.012054,233.995911 
	C377.012054,233.995911 377.001495,234.001831 377.164642,234.317001 
	C381.467896,236.204514 385.580017,237.855988 389.754303,239.331650 
	C396.975433,241.884399 404.235107,244.328140 411.478607,246.817627 
	C411.478607,246.817627 411.762787,246.757233 412.029388,247.173523 
	C418.297913,250.282990 424.299805,252.976135 430.301727,255.669281 
	C430.301727,255.669296 430.150238,255.931808 430.237823,256.151367 
	C431.311493,256.813293 432.297577,257.255646 433.283661,257.697998 
	C433.283661,257.697998 433.180756,257.843262 433.266693,258.076233 
	C433.934387,258.514404 434.516174,258.719574 435.097931,258.924774 
	C435.097931,258.924774 435.025269,258.977417 435.149048,259.245605 
	C436.194611,260.001495 437.116394,260.489197 438.038147,260.976868 
	C438.038147,260.976868 438.003937,261.003784 438.039795,261.342896 
	C439.155914,262.341461 440.236237,263.000946 441.316528,263.660431 
	C441.316528,263.660431 441.341339,263.854858 441.334442,264.057983 
	C441.668243,264.391266 442.008911,264.521393 442.349609,264.651550 
	C442.349609,264.651550 442.094086,264.824951 442.222839,265.038025 
	C442.898376,265.502472 443.445221,265.753906 443.992035,266.005310 
	C443.992035,266.005310 444.000000,266.000000 444.106079,266.236115 
	C444.499451,266.642395 444.786743,266.812592 445.074066,266.982758 
	C445.399261,267.017853 445.661926,267.164795 446.048248,267.893066 
	C446.540253,268.545715 446.845978,268.728882 447.151733,268.912048 
	C447.151733,268.912048 447.063904,268.927948 447.157532,269.187378 
	C447.887024,269.935669 448.522919,270.424469 449.158813,270.913300 
	C449.158813,270.913300 449.072662,270.934784 449.153076,271.149170 
	C449.514099,271.569855 449.794708,271.776184 450.075317,271.982513 
M294.206451,234.358444 
	C293.138702,234.825317 292.065155,235.279510 291.004059,235.760986 
	C278.128815,241.603012 272.259766,256.823639 277.874969,269.800354 
	C283.712280,283.290375 298.587524,289.196564 312.433380,283.521637 
	C325.026611,278.360107 331.285431,263.167328 326.194153,250.118500 
	C321.291046,237.551987 310.750916,232.145844 294.206451,234.358444 
M242.895859,441.646790 
	C248.493576,443.979980 253.935089,447.721893 259.720367,448.363403 
	C273.224945,449.860901 281.949341,440.356354 277.879272,427.455505 
	C274.206848,415.815125 260.780396,405.929535 248.700974,406.196411 
	C235.633728,406.485077 228.478912,416.714661 233.590012,428.713226 
	C235.535538,433.280426 239.386093,437.036133 242.895859,441.646790 
z"/>
<path fill="#306FCA" opacity="1.000000" stroke="none" 
	d="
M360.346863,59.712009 
	C385.809387,64.069275 409.814606,72.027336 433.759033,80.217049 
	C472.124237,93.339081 508.350891,110.644867 540.940979,135.035431 
	C584.240662,167.441208 620.043091,206.303192 644.129944,255.215973 
	C644.496155,255.959610 644.942383,256.663788 645.483276,257.619812 
	C646.673767,255.685272 647.689026,253.838242 648.890625,252.121597 
	C651.875305,247.857376 656.318054,247.481766 658.962708,251.928146 
	C661.463379,256.132385 663.510315,260.902069 664.464050,265.681000 
	C669.309631,289.961609 661.964111,311.386017 647.965881,330.945160 
	C646.610657,332.838776 643.672424,333.599457 641.469055,334.886108 
	C640.305664,332.698608 638.520508,330.624573 638.096619,328.302094 
	C636.873230,321.598999 635.916382,314.817596 635.390625,308.025482 
	C634.903137,301.727722 632.003479,296.725800 628.557007,291.726685 
	C606.857361,260.251587 577.839539,237.351639 544.429077,219.541855 
	C499.799591,195.751694 452.061737,182.264618 402.052216,175.875580 
	C345.400360,168.637924 288.490234,167.468948 231.499161,167.590363 
	C228.507599,167.596741 225.501801,167.495651 222.526672,167.201447 
	C217.082642,166.663132 213.813599,163.946976 213.207703,158.633514 
	C212.436600,151.871262 211.330444,144.913895 212.185959,138.274826 
	C212.845856,133.153641 215.433823,127.706314 218.673126,123.591644 
	C232.633591,105.858612 249.010483,90.465897 266.435547,76.142235 
	C276.866394,67.567940 289.271454,64.343018 302.052612,61.523876 
	C321.270935,57.284882 340.467804,55.270638 360.346863,59.712009 
z"/>
<path fill="#4978C0" opacity="1.000000" stroke="none" 
	d="
M333.629639,221.058533 
	C332.407867,221.421524 330.723755,222.104599 329.251221,221.791718 
	C317.850830,219.369476 306.534180,216.537247 295.102112,214.286499 
	C288.879822,213.061432 282.459229,212.881683 276.171265,211.941711 
	C269.152374,210.892471 262.213379,209.275833 255.179916,208.369354 
	C250.768234,207.800781 246.230103,208.285934 241.779922,207.919449 
	C238.569611,207.655075 235.410690,206.766693 232.099915,205.828156 
	C253.707687,208.153793 275.493103,210.470078 297.162018,213.594330 
	C309.296112,215.343842 321.237213,218.432205 333.629639,221.058533 
z"/>
<path fill="#4978C0" opacity="1.000000" stroke="none" 
	d="
M257.391785,458.358307 
	C258.946991,457.564606 260.855499,456.550690 262.863281,456.284088 
	C274.320740,454.762482 285.820770,453.555115 297.267365,451.960999 
	C303.609924,451.077637 309.884155,449.687683 316.175385,448.455566 
	C323.554596,447.010468 330.943909,445.601501 338.282135,443.967102 
	C344.993378,442.472290 351.642303,440.697876 358.743469,439.112122 
	C347.840668,442.245209 336.662628,446.153107 325.153625,448.201538 
	C302.797638,452.180664 280.255768,455.115662 257.391785,458.358307 
z"/>
<path fill="#4978C0" opacity="1.000000" stroke="none" 
	d="
M228.567871,205.114349 
	C227.217834,205.480316 225.450729,205.987610 223.695084,205.950760 
	C211.603790,205.696823 199.514740,205.065598 187.425217,205.070847 
	C174.836761,205.076309 162.248886,205.674530 149.659836,205.975433 
	C148.010391,206.014877 146.355530,205.828079 144.371704,205.508118 
	C172.071884,202.984573 200.111649,203.249847 228.567871,205.114349 
z"/>
<path fill="#4978C0" opacity="1.000000" stroke="none" 
	d="
M462.318481,369.866150 
	C463.507904,366.480835 464.786835,362.813538 466.478027,359.347412 
	C472.207153,347.605316 472.823517,335.284882 472.361481,322.418488 
	C472.000336,312.361877 467.980347,303.733398 465.148499,294.200195 
	C475.057556,309.976410 476.838745,327.523193 472.491699,345.470001 
	C470.462799,353.846252 465.971863,361.626160 462.318481,369.866150 
z"/>
<path fill="#4978C0" opacity="1.000000" stroke="none" 
	d="
M85.310959,223.802185 
	C84.650299,227.379059 83.669174,231.095551 82.570580,235.257019 
	C89.868103,238.317490 88.468132,245.229034 87.807655,251.172089 
	C86.886276,259.462708 84.947159,267.661011 83.065437,275.811493 
	C82.502518,278.249725 80.675583,280.396179 79.071548,282.746765 
	C84.805267,268.421082 87.329971,253.554199 85.438217,237.504822 
	C83.389961,238.059769 82.219597,238.376862 79.424187,239.134247 
	C81.529053,233.389282 83.259773,228.665527 85.310959,223.802185 
z"/>
<path fill="#4978C0" opacity="1.000000" stroke="none" 
	d="
M141.012054,443.154846 
	C139.506927,443.640839 138.001816,444.126831 134.902863,445.127472 
	C141.815994,447.009216 147.312988,448.581879 152.851562,449.991028 
	C158.133652,451.334869 163.459091,452.508270 168.894562,454.072937 
	C154.350555,452.280151 139.638550,450.301422 126.690041,441.493683 
	C127.995712,440.704987 129.486496,440.221771 131.320862,439.471680 
	C134.780319,440.521454 137.896179,441.838135 141.012054,443.154846 
z"/>
<path fill="#4978C0" opacity="1.000000" stroke="none" 
	d="
M141.608841,205.514618 
	C140.119522,206.386307 138.252609,207.750336 136.330917,207.832474 
	C121.443985,208.468689 107.453346,212.702667 93.305222,217.959564 
	C101.642296,211.875015 111.799927,209.943604 121.932663,208.098907 
	C128.308731,206.938110 134.778259,206.290817 141.608841,205.514618 
z"/>
<path fill="#4978C0" opacity="1.000000" stroke="none" 
	d="
M171.414185,454.899078 
	C174.745163,454.599518 178.504684,454.034210 182.200272,454.313873 
	C191.355499,455.006744 200.483566,456.066071 209.617386,457.027283 
	C211.347107,457.209320 213.052979,457.618011 214.903595,458.281433 
	C200.629425,457.433105 186.221527,456.225494 171.414185,454.899078 
z"/>
<path fill="#4978C0" opacity="1.000000" stroke="none" 
	d="
M78.464142,282.812378 
	C77.900879,284.932587 76.210556,287.114014 76.114929,289.363281 
	C75.719193,298.671844 75.805878,308.000916 75.467270,317.649536 
	C74.658630,304.782166 74.098106,291.587677 73.490234,277.278717 
	C75.705063,279.999329 76.887741,281.452057 78.464142,282.812378 
z"/>
<path fill="#4978C0" opacity="1.000000" stroke="none" 
	d="
M77.969009,337.421204 
	C78.629623,337.454102 79.661072,337.813507 79.802032,338.390472 
	C82.553444,349.651581 85.224571,360.932648 87.837204,372.226929 
	C88.129982,373.492584 87.970985,374.862701 87.999329,376.610596 
	C84.626526,363.974213 81.275894,350.911560 77.969009,337.421204 
z"/>
<path fill="#4978C0" opacity="1.000000" stroke="none" 
	d="
M411.222534,246.550232 
	C404.235107,244.328140 396.975433,241.884399 389.754303,239.331650 
	C385.580017,237.855988 381.467896,236.204514 377.163391,234.312210 
	C388.321503,238.089111 399.643982,242.185974 411.222534,246.550232 
z"/>
<path fill="#4978C0" opacity="1.000000" stroke="none" 
	d="
M359.503723,439.241516 
	C363.246368,437.515442 367.349304,435.665955 371.556488,434.095673 
	C377.216644,431.983124 382.957184,430.085907 389.087280,428.155579 
	C379.644379,431.890747 369.777405,435.566620 359.503723,439.241516 
z"/>
<path fill="#4978C0" opacity="1.000000" stroke="none" 
	d="
M217.489807,458.822693 
	C222.299637,458.479065 227.562881,458.105865 232.829819,458.043518 
	C239.308899,457.966766 245.791031,458.149200 252.605469,458.450745 
	C241.274338,458.764862 229.609604,458.847870 217.489807,458.822693 
z"/>
<path fill="#4978C0" opacity="1.000000" stroke="none" 
	d="
M357.738220,227.755890 
	C350.134033,228.525665 343.429077,224.439423 336.082092,222.084961 
	C343.125366,223.695404 350.288483,225.614014 357.738220,227.755890 
z"/>
<path fill="#4978C0" opacity="1.000000" stroke="none" 
	d="
M430.140991,255.378143 
	C424.299805,252.976135 418.297913,250.282990 412.141724,247.265594 
	C417.985077,249.656586 423.982666,252.371796 430.140991,255.378143 
z"/>
<path fill="#4978C0" opacity="1.000000" stroke="none" 
	d="
M376.735596,233.770111 
	C370.726837,232.238602 364.441589,230.481293 358.086426,228.349915 
	C364.164032,229.832001 370.311584,231.688156 376.735596,233.770111 
z"/>
<path fill="#4978C0" opacity="1.000000" stroke="none" 
	d="
M75.642029,321.381287 
	C76.511253,326.012817 77.278168,331.036255 78.027817,336.521545 
	C77.186928,331.913330 76.363327,326.843262 75.642029,321.381287 
z"/>
<path fill="#4978C0" opacity="1.000000" stroke="none" 
	d="
M390.361908,428.032776 
	C393.138641,426.400482 396.285736,424.745941 399.826660,423.169861 
	C397.057770,424.835724 393.895020,426.423096 390.361908,428.032776 
z"/>
<path fill="#4978C0" opacity="1.000000" stroke="none" 
	d="
M421.614227,410.275574 
	C423.941010,408.236450 426.600220,406.112823 429.625977,403.990936 
	C427.310577,406.058807 424.628601,408.124939 421.614227,410.275574 
z"/>
<path fill="#4978C0" opacity="1.000000" stroke="none" 
	d="
M91.998482,387.372345 
	C93.657867,390.111725 95.321968,393.220184 96.957550,396.710083 
	C95.287094,393.974823 93.645142,390.858124 91.998482,387.372345 
z"/>
<path fill="#4978C0" opacity="1.000000" stroke="none" 
	d="
M103.708168,409.618256 
	C105.407509,411.933624 107.179985,414.592621 108.984329,417.614807 
	C107.271225,415.306000 105.526260,412.633911 103.708168,409.618256 
z"/>
<path fill="#4978C0" opacity="1.000000" stroke="none" 
	d="
M465.198608,293.512726 
	C463.554291,291.390015 461.867859,288.911926 460.265411,286.061859 
	C461.951782,288.179047 463.554138,290.668182 465.198608,293.512726 
z"/>
<path fill="#4978C0" opacity="1.000000" stroke="none" 
	d="
M413.371521,416.009644 
	C414.559082,414.779663 416.077179,413.489929 417.966125,412.302399 
	C416.791992,413.586365 415.246979,414.768097 413.371521,416.009644 
z"/>
<path fill="#4978C0" opacity="1.000000" stroke="none" 
	d="
M96.928467,397.406372 
	C97.901176,398.597351 98.900009,400.135559 99.839798,402.096252 
	C98.838707,400.930328 97.896645,399.341949 96.928467,397.406372 
z"/>
<path fill="#4978C0" opacity="1.000000" stroke="none" 
	d="
M92.609131,217.960419 
	C91.422020,219.204239 89.898758,220.498138 88.010544,221.681641 
	C89.188057,220.384338 90.730522,219.197433 92.609131,217.960419 
z"/>
<path fill="#4978C0" opacity="1.000000" stroke="none" 
	d="
M400.531006,423.244995 
	C401.722229,422.239594 403.260498,421.182739 405.200562,420.195953 
	C404.027557,421.241852 402.452789,422.217682 400.531006,423.244995 
z"/>
<path fill="#4978C0" opacity="1.000000" stroke="none" 
	d="
M121.017944,435.351501 
	C122.281227,436.430328 123.623901,437.825043 125.007874,439.568237 
	C123.731895,438.500244 122.414612,437.083832 121.017944,435.351501 
z"/>
<path fill="#4978C0" opacity="1.000000" stroke="none" 
	d="
M455.618652,379.236786 
	C456.301666,377.927185 457.282593,376.494293 458.603027,375.020813 
	C457.933868,376.358002 456.925201,377.735779 455.618652,379.236786 
z"/>
<path fill="#4978C0" opacity="1.000000" stroke="none" 
	d="
M114.724808,426.586517 
	C115.766510,427.613800 116.884193,428.962585 117.988823,430.675171 
	C116.917442,429.661987 115.859116,428.285004 114.724808,426.586517 
z"/>
<path fill="#4978C0" opacity="1.000000" stroke="none" 
	d="
M100.791283,404.483765 
	C101.783226,405.608124 102.822952,407.067810 103.758453,408.899353 
	C102.715836,407.787170 101.777451,406.303101 100.791283,404.483765 
z"/>
<path fill="#4978C0" opacity="1.000000" stroke="none" 
	d="
M408.325775,418.962219 
	C409.434418,417.998138 410.879730,417.004089 412.696686,416.028809 
	C411.599701,417.009125 410.131073,417.970673 408.325775,418.962219 
z"/>
<path fill="#4978C0" opacity="1.000000" stroke="none" 
	d="
M454.067169,276.630798 
	C453.087799,275.900452 452.031158,274.858643 450.966187,273.452026 
	C451.968536,274.164581 452.979218,275.241974 454.067169,276.630798 
z"/>
<path fill="#4978C0" opacity="1.000000" stroke="none" 
	d="
M89.982887,382.353912 
	C90.664154,383.408447 91.344391,384.811310 92.009789,386.610413 
	C91.323921,385.571838 90.652893,384.137024 89.982887,382.353912 
z"/>
<path fill="#4978C0" opacity="1.000000" stroke="none" 
	d="
M451.271667,384.838440 
	C451.789917,383.696259 452.586487,382.396942 453.748352,381.087646 
	C453.259094,382.278870 452.404541,383.480103 451.271667,384.838440 
z"/>
<path fill="#4978C0" opacity="1.000000" stroke="none" 
	d="
M87.968033,377.363922 
	C88.653404,378.418152 89.339294,379.821167 90.007477,381.622162 
	C89.316040,380.584320 88.642288,379.148529 87.968033,377.363922 
z"/>
<path fill="#4978C0" opacity="1.000000" stroke="none" 
	d="
M459.492249,374.324036 
	C459.912140,373.043488 460.619507,371.579529 461.691040,370.074219 
	C461.296753,371.402130 460.538239,372.771362 459.492249,374.324036 
z"/>
<path fill="#4978C0" opacity="1.000000" stroke="none" 
	d="
M441.193542,263.371887 
	C440.236237,263.000946 439.155914,262.341461 438.047363,261.322693 
	C439.036255,261.670044 440.053375,262.376709 441.193542,263.371887 
z"/>
<path fill="#4978C0" opacity="1.000000" stroke="none" 
	d="
M460.280396,285.358093 
	C459.621979,284.922760 458.893005,284.187836 458.277893,283.062622 
	C458.997742,283.467743 459.603790,284.263092 460.280396,285.358093 
z"/>
<path fill="#4978C0" opacity="1.000000" stroke="none" 
	d="
M418.632202,412.323303 
	C419.084412,411.657227 419.839111,410.916168 420.951599,410.262756 
	C420.517792,410.983032 419.726227,411.615631 418.632202,412.323303 
z"/>
<path fill="#4978C0" opacity="1.000000" stroke="none" 
	d="
M109.059105,418.296722 
	C109.684845,418.758057 110.348656,419.530121 111.005005,420.656006 
	C110.364082,420.209015 109.730621,419.408203 109.059105,418.296722 
z"/>
<path fill="#4978C0" opacity="1.000000" stroke="none" 
	d="
M458.331848,282.375000 
	C457.655853,281.921326 456.916962,281.159271 456.271973,280.039429 
	C457.000183,280.476654 457.634552,281.271637 458.331848,282.375000 
z"/>
<path fill="#4978C0" opacity="1.000000" stroke="none" 
	d="
M433.142090,257.416992 
	C432.297577,257.255646 431.311493,256.813293 430.291382,256.009583 
	C431.171722,256.144196 432.086121,256.640106 433.142090,257.416992 
z"/>
<path fill="#4978C0" opacity="1.000000" stroke="none" 
	d="
M113.054626,424.288544 
	C113.616081,424.534302 114.217010,425.078735 114.742477,425.966339 
	C114.142715,425.735382 113.618416,425.161316 113.054626,424.288544 
z"/>
<path fill="#4978C0" opacity="1.000000" stroke="none" 
	d="
M437.882202,260.703430 
	C437.116394,260.489197 436.194611,260.001495 435.158997,259.201843 
	C435.938812,259.403259 436.832550,259.916626 437.882202,260.703430 
z"/>
<path fill="#4978C0" opacity="1.000000" stroke="none" 
	d="
M111.029449,421.309814 
	C111.653809,421.779358 112.316109,422.559113 112.995056,423.661621 
	C112.363602,423.196289 111.715500,422.408142 111.029449,421.309814 
z"/>
<path fill="#4978C0" opacity="1.000000" stroke="none" 
	d="
M431.368286,403.071777 
	C431.601624,402.520630 432.136749,401.904083 432.996155,401.277191 
	C432.770294,401.846710 432.220184,402.426544 431.368286,403.071777 
z"/>
<path fill="#4978C0" opacity="1.000000" stroke="none" 
	d="
M437.382202,398.078644 
	C437.617157,397.538147 438.145844,396.913269 439.001465,396.283142 
	C438.777557,396.850037 438.226776,397.422150 437.382202,398.078644 
z"/>
<path fill="#4978C0" opacity="1.000000" stroke="none" 
	d="
M449.068024,270.618622 
	C448.522919,270.424469 447.887024,269.935669 447.168793,269.144226 
	C447.716705,269.335724 448.346954,269.829834 449.068024,270.618622 
z"/>
<path fill="#4978C0" opacity="1.000000" stroke="none" 
	d="
M118.011421,431.316833 
	C118.545998,431.571442 119.132477,432.128235 119.720840,433.005066 
	C119.169586,432.756409 118.616455,432.187714 118.011421,431.316833 
z"/>
<path fill="#4978C0" opacity="1.000000" stroke="none" 
	d="
M443.876068,265.741577 
	C443.445221,265.753906 442.898376,265.502472 442.332611,264.929443 
	C442.795807,264.897827 443.277954,265.187805 443.876068,265.741577 
z"/>
<path fill="#4978C0" opacity="1.000000" stroke="none" 
	d="
M456.292145,279.442444 
	C455.924896,279.363892 455.482147,279.008423 455.014099,278.336884 
	C455.398071,278.402405 455.807343,278.783966 456.292145,279.442444 
z"/>
<path fill="#4978C0" opacity="1.000000" stroke="none" 
	d="
M119.711334,433.538818 
	C120.077888,433.639069 120.512314,434.025421 120.953644,434.736084 
	C120.566772,434.648590 120.172989,434.236725 119.711334,433.538818 
z"/>
<path fill="#4978C0" opacity="1.000000" stroke="none" 
	d="
M434.948914,258.668335 
	C434.516174,258.719574 433.934387,258.514404 433.282593,257.988647 
	C433.741699,257.916046 434.270782,258.163971 434.948914,258.668335 
z"/>
<path fill="#4978C0" opacity="1.000000" stroke="none" 
	d="
M434.663971,400.356689 
	C434.732422,399.983032 435.073425,399.526917 435.742188,399.060791 
	C435.692139,399.458618 435.314331,399.866425 434.663971,400.356689 
z"/>
<path fill="#4978C0" opacity="1.000000" stroke="none" 
	d="
M454.346954,380.973450 
	C454.301727,380.527283 454.519226,379.948334 455.066284,379.332703 
	C455.133759,379.810883 454.871735,380.325775 454.346954,380.973450 
z"/>
<path fill="#4978C0" opacity="1.000000" stroke="none" 
	d="
M443.665314,392.343689 
	C443.721649,391.970276 444.047546,391.509491 444.695923,391.023010 
	C444.657227,391.416962 444.296021,391.836639 443.665314,392.343689 
z"/>
<path fill="#4978C0" opacity="1.000000" stroke="none" 
	d="
M439.536133,396.242523 
	C439.436523,395.992584 439.588501,395.658997 440.034882,395.302734 
	C440.148743,395.573029 439.968231,395.865936 439.536133,396.242523 
z"/>
<path fill="#4978C0" opacity="1.000000" stroke="none" 
	d="
M436.298431,399.013062 
	C436.237274,398.794495 436.439545,398.513885 436.898438,398.161224 
	C436.957336,398.376434 436.759583,398.663727 436.298431,399.013062 
z"/>
<path fill="#4978C0" opacity="1.000000" stroke="none" 
	d="
M440.538330,395.253784 
	C440.444794,395.000183 440.601562,394.668915 441.054962,394.332520 
	C441.163940,394.610321 440.976318,394.893219 440.538330,395.253784 
z"/>
<path fill="#4978C0" opacity="1.000000" stroke="none" 
	d="
M441.579834,394.281677 
	C441.484039,394.024170 441.630646,393.690155 442.075989,393.371521 
	C442.190582,393.659637 442.006409,393.932373 441.579834,394.281677 
z"/>
<path fill="#4978C0" opacity="1.000000" stroke="none" 
	d="
M442.633636,393.298706 
	C442.529510,393.041382 442.658417,392.703400 443.087067,392.388000 
	C443.337616,392.759674 443.164246,393.028839 442.633636,393.298706 
z"/>
<path fill="#4978C0" opacity="1.000000" stroke="none" 
	d="
M447.274170,388.999146 
	C447.209381,388.793701 447.398895,388.508331 447.835144,388.132111 
	C447.897400,388.333893 447.712952,388.626556 447.274170,388.999146 
z"/>
<path fill="#4978C0" opacity="1.000000" stroke="none" 
	d="
M448.296997,388.005829 
	C448.228241,387.796265 448.414886,387.511383 448.847595,387.137451 
	C448.913269,387.342438 448.732849,387.636475 448.296997,388.005829 
z"/>
<path fill="#4978C0" opacity="1.000000" stroke="none" 
	d="
M449.305603,387.015137 
	C449.231262,386.805145 449.413208,386.517029 449.839172,386.134216 
	C449.909393,386.338684 449.735657,386.637848 449.305603,387.015137 
z"/>
<path fill="#4978C0" opacity="1.000000" stroke="none" 
	d="
M450.291504,385.991516 
	C450.208527,385.794769 450.373535,385.506958 450.766479,385.106689 
	C450.842773,385.296295 450.691132,385.598358 450.291504,385.991516 
z"/>
<path fill="#4978C0" opacity="1.000000" stroke="none" 
	d="
M87.394180,221.724884 
	C87.503853,221.976440 87.372887,222.316208 86.944237,222.664185 
	C86.815552,222.385956 86.984550,222.099518 87.394180,221.724884 
z"/>
<path fill="#4978C0" opacity="1.000000" stroke="none" 
	d="
M444.979156,266.738373 
	C444.786743,266.812592 444.499451,266.642395 444.104218,266.240417 
	C444.292297,266.170410 444.588257,266.332214 444.979156,266.738373 
z"/>
<path fill="#4978C0" opacity="1.000000" stroke="none" 
	d="
M125.127731,440.209412 
	C125.384041,440.052185 125.628410,440.222443 125.914352,440.679871 
	C125.639374,440.925018 125.359329,440.781647 125.127731,440.209412 
z"/>
<path fill="#4978C0" opacity="1.000000" stroke="none" 
	d="
M86.415199,222.737671 
	C86.522881,222.990143 86.384850,223.327591 85.950562,223.680756 
	C85.826027,223.405182 85.997757,223.113922 86.415199,222.737671 
z"/>
<path fill="#4978C0" opacity="1.000000" stroke="none" 
	d="
M442.258240,264.406891 
	C442.008911,264.521393 441.668243,264.391266 441.300140,263.966187 
	C441.570770,263.834930 441.868805,263.998596 442.258240,264.406891 
z"/>
<path fill="#4978C0" opacity="1.000000" stroke="none" 
	d="
M406.303436,420.068359 
	C406.287323,419.816986 406.588013,419.525574 407.212708,419.207397 
	C407.231232,419.463135 406.925720,419.745728 406.303436,420.068359 
z"/>
<path fill="#4978C0" opacity="1.000000" stroke="none" 
	d="
M430.252563,403.938904 
	C430.204987,403.727051 430.415802,403.462524 430.879425,403.136353 
	C430.925171,403.345245 430.718079,403.615784 430.252563,403.938904 
z"/>
<path fill="#4978C0" opacity="1.000000" stroke="none" 
	d="
M450.015320,271.716217 
	C449.794708,271.776184 449.514099,271.569855 449.160522,271.105408 
	C449.376831,271.048157 449.666046,271.249023 450.015320,271.716217 
z"/>
<path fill="#4978C0" opacity="1.000000" stroke="none" 
	d="
M100.048370,403.255249 
	C100.278061,403.222412 100.530197,403.456299 100.803017,403.955933 
	C100.572746,403.988464 100.321785,403.755249 100.048370,403.255249 
z"/>
<path fill="#4978C0" opacity="1.000000" stroke="none" 
	d="
M433.518372,401.259613 
	C433.441071,401.001038 433.611542,400.678497 434.077820,400.384033 
	C434.171143,400.673309 433.968658,400.934509 433.518372,401.259613 
z"/>
<path fill="#4978C0" opacity="1.000000" stroke="none" 
	d="
M447.061829,268.652161 
	C446.845978,268.728882 446.540253,268.545715 446.140869,268.104431 
	C446.355469,268.028320 446.663696,268.210297 447.061829,268.652161 
z"/>
<path fill="#FCFDFE" opacity="1.000000" stroke="none" 
	d="
M294.593140,234.233429 
	C310.750916,232.145844 321.291046,237.551987 326.194153,250.118500 
	C331.285431,263.167328 325.026611,278.360107 312.433380,283.521637 
	C298.587524,289.196564 283.712280,283.290375 277.874969,269.800354 
	C272.259766,256.823639 278.128815,241.603012 291.004059,235.760986 
	C292.065155,235.279510 293.138702,234.825317 294.593140,234.233429 
z"/>
<path fill="#FBFDFE" opacity="1.000000" stroke="none" 
	d="
M242.632141,441.404236 
	C239.386093,437.036133 235.535538,433.280426 233.590012,428.713226 
	C228.478912,416.714661 235.633728,406.485077 248.700974,406.196411 
	C260.780396,405.929535 274.206848,415.815125 277.879272,427.455505 
	C281.949341,440.356354 273.224945,449.860901 259.720367,448.363403 
	C253.935089,447.721893 248.493576,443.979980 242.632141,441.404236 
z"/>
<path fill="#F7FCFE" opacity="1.000000" stroke="none" 
	d="
M141.183365,443.052124 
	C137.896179,441.838135 134.780319,440.521454 131.327301,439.106903 
	C130.990143,439.009064 130.999542,439.000275 130.866760,438.745361 
	C130.240479,438.211182 129.746979,437.931915 129.253479,437.652618 
	C129.253479,437.652618 129.188431,437.774597 129.166168,437.500092 
	C128.852081,437.046600 128.560257,436.867584 128.268433,436.688568 
	C128.268433,436.688568 128.137741,436.894196 128.145477,436.560730 
	C127.865868,436.045258 127.578522,435.863251 127.291183,435.681213 
	C127.291191,435.681213 127.069756,435.959808 127.109238,435.584381 
	C126.854279,435.036438 126.559830,434.863922 126.265381,434.691406 
	C126.265381,434.691406 126.123230,434.888428 126.134201,434.558533 
	C125.849785,434.050690 125.554398,433.872681 125.259010,433.694702 
	C125.259010,433.694702 125.133865,433.875061 125.136887,433.555908 
	C124.846771,433.055786 124.553642,432.874817 124.260513,432.693878 
	C124.260513,432.693878 124.222588,432.817230 124.214668,432.501587 
	C123.814110,431.760437 123.421471,431.334961 123.028824,430.909454 
	C123.017799,430.589935 122.897186,430.319214 122.380455,429.686584 
	C121.409378,428.497864 120.724861,427.719879 120.040344,426.941864 
	C120.040344,426.941864 119.998070,426.991241 119.983185,426.716003 
	C119.698296,426.222321 119.428307,426.003845 119.158318,425.785400 
	C119.158318,425.785400 119.132988,425.884277 119.124695,425.607422 
	C118.848145,425.114258 118.579880,424.897919 118.311615,424.681580 
	C118.311623,424.681580 118.270355,424.846161 118.271133,424.494720 
	C117.894096,423.711121 117.516289,423.278961 117.138489,422.846771 
	C117.138489,422.846771 117.079765,422.936737 117.092621,422.637329 
	C116.723900,421.922180 116.342323,421.506439 115.960754,421.090698 
	C115.938362,420.756561 115.818398,420.462158 115.360413,419.771484 
	C114.776680,418.854218 114.433388,418.373016 114.090103,417.891815 
	C114.090103,417.891815 114.032852,417.967133 114.062454,417.656311 
	C113.749405,416.869232 113.406769,416.392944 113.064133,415.916687 
	C113.064133,415.916687 113.008751,415.976898 113.015289,415.662964 
	C112.751221,415.047943 112.480598,414.746796 112.209991,414.445648 
	C112.209991,414.445648 112.270424,414.195129 112.152740,413.779663 
	C111.765846,413.037354 111.496643,412.710480 111.227448,412.383606 
	C111.227448,412.383606 111.311340,412.206451 111.236710,411.672363 
	C111.104881,408.756897 111.047691,406.375549 110.990494,403.994202 
	C110.990494,403.994202 111.000305,404.000000 111.292084,403.814880 
	C113.372009,403.792328 115.160172,403.954956 116.948326,404.117554 
	C116.948326,404.117554 116.972191,404.023285 117.125656,404.318176 
	C118.421600,405.200989 119.564072,405.788971 120.706543,406.376923 
	C120.706543,406.376923 120.888130,406.245911 120.886406,406.522888 
	C121.195389,406.952362 121.506096,407.104858 121.816803,407.257355 
	C121.816811,407.257355 121.862602,407.149414 121.905334,407.421265 
	C122.261238,407.857391 122.574394,408.021698 122.887558,408.186005 
	C122.887558,408.186005 122.910858,408.094299 122.960381,408.356506 
	C123.320129,408.782623 123.630356,408.946533 123.940582,409.110413 
	C123.940575,409.110443 123.970619,409.027679 124.012184,409.299438 
	C124.351395,409.747101 124.649033,409.923004 124.946671,410.098907 
	C124.946678,410.098907 124.980942,410.020874 125.024353,410.291321 
	C125.360924,410.742432 125.654068,410.923096 125.947220,411.103729 
	C125.947220,411.103729 125.973976,411.024231 126.020676,411.291992 
	C126.360146,411.741974 126.652916,411.924225 126.945679,412.106445 
	C126.945686,412.106445 126.973122,412.026947 127.015121,412.296631 
	C127.355988,412.742462 127.654846,412.918610 127.953705,413.094727 
	C127.953712,413.094727 127.979889,413.018799 128.021851,413.286774 
	C128.347168,413.751801 128.630524,413.948822 128.913864,414.145874 
	C128.913864,414.145874 128.933212,414.042419 128.965759,414.395630 
	C130.256439,416.238403 131.514572,417.727936 132.772705,419.217468 
	C132.772705,419.217468 132.882599,419.094788 132.867981,419.412689 
	C133.245087,420.139679 133.636810,420.548767 134.028519,420.957855 
	C134.028519,420.957855 133.996521,420.995270 134.064407,421.244385 
	C134.394028,421.706635 134.655746,421.919830 134.917480,422.132996 
	C134.917480,422.132996 134.949814,422.049133 134.952576,422.329041 
	C135.231491,422.826813 135.507629,423.044678 135.783783,423.262543 
	C135.783768,423.262543 135.811981,423.146149 135.823181,423.454041 
	C136.222427,424.181274 136.610458,424.600616 136.998474,425.019928 
	C137.000427,425.344482 137.111481,425.626007 137.588806,426.281311 
	C138.189957,427.177216 138.533936,427.656342 138.877930,428.135437 
	C138.877930,428.135437 138.935440,428.044067 138.911011,428.418488 
	C139.851303,430.710388 140.816055,432.627869 141.780792,434.545349 
	C141.780792,434.545349 141.694809,434.795990 141.783630,435.339996 
	C141.831238,438.217346 141.790024,440.550659 141.748810,442.884003 
	C141.748810,442.884003 141.354675,442.949371 141.183365,443.052124 
z"/>
<path fill="#4978C0" opacity="1.000000" stroke="none" 
	d="
M142.141663,442.859375 
	C141.790024,440.550659 141.831238,438.217346 141.870926,435.439667 
	C144.902328,437.369965 144.980927,439.995270 142.141663,442.859375 
z"/>
<path fill="#4978C0" opacity="1.000000" stroke="none" 
	d="
M110.673729,404.166809 
	C111.047691,406.375549 111.104881,408.756897 111.182182,411.590912 
	C109.509109,409.630371 107.702797,407.229584 110.673729,404.166809 
z"/>
<path fill="#4978C0" opacity="1.000000" stroke="none" 
	d="
M141.843506,434.129974 
	C140.816055,432.627869 139.851303,430.710388 138.859589,428.434937 
	C139.857162,429.956207 140.881699,431.835388 141.843506,434.129974 
z"/>
<path fill="#4978C0" opacity="1.000000" stroke="none" 
	d="
M132.840118,418.836304 
	C131.514572,417.727936 130.256439,416.238403 128.924820,414.428711 
	C130.203400,415.557404 131.555466,417.006256 132.840118,418.836304 
z"/>
<path fill="#4978C0" opacity="1.000000" stroke="none" 
	d="
M116.807205,403.777100 
	C115.160172,403.954956 113.372009,403.792328 111.287796,403.810059 
	C112.557266,400.465881 114.594032,401.770416 116.807205,403.777100 
z"/>
<path fill="#4978C0" opacity="1.000000" stroke="none" 
	d="
M120.680161,406.007385 
	C119.564072,405.788971 118.421600,405.200989 117.088539,404.349548 
	C118.149895,404.603333 119.401840,405.120575 120.680161,406.007385 
z"/>
<path fill="#4978C0" opacity="1.000000" stroke="none" 
	d="
M120.028671,427.316895 
	C120.724861,427.719879 121.409378,428.497864 122.180443,429.579651 
	C121.516991,429.152924 120.766998,428.422424 120.028671,427.316895 
z"/>
<path fill="#4978C0" opacity="1.000000" stroke="none" 
	d="
M113.053635,416.232758 
	C113.406769,416.392944 113.749405,416.869232 114.108932,417.647583 
	C113.764923,417.482758 113.404030,417.015808 113.053635,416.232758 
z"/>
<path fill="#4978C0" opacity="1.000000" stroke="none" 
	d="
M129.300049,437.965820 
	C129.746979,437.931915 130.240479,438.211182 130.862671,438.750183 
	C130.443115,438.766266 129.894867,438.522644 129.300049,437.965820 
z"/>
<path fill="#4978C0" opacity="1.000000" stroke="none" 
	d="
M114.076523,418.216003 
	C114.433388,418.373016 114.776680,418.854218 115.159042,419.637848 
	C114.819733,419.473572 114.441338,419.006897 114.076523,418.216003 
z"/>
<path fill="#4978C0" opacity="1.000000" stroke="none" 
	d="
M134.002228,420.648376 
	C133.636810,420.548767 133.245087,420.139679 132.792267,419.445068 
	C133.146088,419.552643 133.561020,419.945770 134.002228,420.648376 
z"/>
<path fill="#4978C0" opacity="1.000000" stroke="none" 
	d="
M123.037735,431.236298 
	C123.421471,431.334961 123.814110,431.760437 124.273872,432.475922 
	C123.909538,432.364990 123.478088,431.964050 123.037735,431.236298 
z"/>
<path fill="#4978C0" opacity="1.000000" stroke="none" 
	d="
M138.899628,427.804871 
	C138.533936,427.656342 138.189957,427.177216 137.787338,426.399841 
	C138.126251,426.559143 138.523788,427.016724 138.899628,427.804871 
z"/>
<path fill="#4978C0" opacity="1.000000" stroke="none" 
	d="
M115.989883,421.390533 
	C116.342323,421.506439 116.723900,421.922180 117.145081,422.625732 
	C116.796127,422.505798 116.407578,422.098083 115.989883,421.390533 
z"/>
<path fill="#4978C0" opacity="1.000000" stroke="none" 
	d="
M117.114792,423.180756 
	C117.516289,423.278961 117.894096,423.711121 118.328720,424.432434 
	C117.954056,424.319275 117.522583,423.917023 117.114792,423.180756 
z"/>
<path fill="#4978C0" opacity="1.000000" stroke="none" 
	d="
M136.981171,424.702454 
	C136.610458,424.600616 136.222427,424.181274 135.767670,423.476501 
	C136.121918,423.589050 136.542892,423.987030 136.981171,424.702454 
z"/>
<path fill="#4978C0" opacity="1.000000" stroke="none" 
	d="
M124.290550,432.982300 
	C124.553642,432.874817 124.846771,433.055786 125.223503,433.488464 
	C124.978264,433.583740 124.649422,433.427216 124.290550,432.982300 
z"/>
<path fill="#4978C0" opacity="1.000000" stroke="none" 
	d="
M125.288971,433.983643 
	C125.554398,433.872681 125.849785,434.050690 126.227547,434.480835 
	C125.979599,434.579498 125.649261,434.426025 125.288971,433.983643 
z"/>
<path fill="#4978C0" opacity="1.000000" stroke="none" 
	d="
M126.292709,434.981079 
	C126.559830,434.863922 126.854279,435.036438 127.233643,435.457153 
	C126.985718,435.560486 126.652870,435.415619 126.292709,434.981079 
z"/>
<path fill="#4978C0" opacity="1.000000" stroke="none" 
	d="
M127.309486,435.971680 
	C127.578522,435.863251 127.865868,436.045258 128.234436,436.477509 
	C127.986366,436.572510 127.657082,436.417297 127.309486,435.971680 
z"/>
<path fill="#4978C0" opacity="1.000000" stroke="none" 
	d="
M128.297180,436.977356 
	C128.560257,436.867584 128.852081,437.046600 129.230377,437.474487 
	C128.986526,437.570953 128.656235,437.418549 128.297180,436.977356 
z"/>
<path fill="#4978C0" opacity="1.000000" stroke="none" 
	d="
M121.753502,406.976807 
	C121.506096,407.104858 121.195389,406.952362 120.779976,406.557617 
	C121.013580,406.442352 121.351891,406.569275 121.753502,406.976807 
z"/>
<path fill="#4978C0" opacity="1.000000" stroke="none" 
	d="
M111.235298,412.715302 
	C111.496643,412.710480 111.765846,413.037354 112.061691,413.688477 
	C111.806602,413.690826 111.524879,413.368927 111.235298,412.715302 
z"/>
<path fill="#4978C0" opacity="1.000000" stroke="none" 
	d="
M128.843765,413.886292 
	C128.630524,413.948822 128.347168,413.751801 127.984192,413.300720 
	C128.194260,413.240051 128.483963,413.433411 128.843765,413.886292 
z"/>
<path fill="#4978C0" opacity="1.000000" stroke="none" 
	d="
M126.858810,411.855560 
	C126.652916,411.924225 126.360146,411.741974 125.981491,411.306915 
	C126.187721,411.237610 126.479836,411.421143 126.858810,411.855560 
z"/>
<path fill="#4978C0" opacity="1.000000" stroke="none" 
	d="
M112.224930,414.763245 
	C112.480598,414.746796 112.751221,415.047943 113.055840,415.657654 
	C112.806526,415.671082 112.523201,415.375946 112.224930,414.763245 
z"/>
<path fill="#4978C0" opacity="1.000000" stroke="none" 
	d="
M125.857346,410.856262 
	C125.654068,410.923096 125.360924,410.742432 124.985016,410.307678 
	C125.190666,410.238678 125.479073,410.423737 125.857346,410.856262 
z"/>
<path fill="#4978C0" opacity="1.000000" stroke="none" 
	d="
M124.854630,409.851990 
	C124.649033,409.923004 124.351395,409.747101 123.971619,409.316528 
	C124.180527,409.242920 124.471558,409.424011 124.854630,409.851990 
z"/>
<path fill="#4978C0" opacity="1.000000" stroke="none" 
	d="
M123.841225,408.860046 
	C123.630356,408.946533 123.320129,408.782623 122.914307,408.367249 
	C123.126434,408.280426 123.434151,408.445038 123.841225,408.860046 
z"/>
<path fill="#4978C0" opacity="1.000000" stroke="none" 
	d="
M122.804703,407.918945 
	C122.574394,408.021698 122.261238,407.857391 121.850121,407.440948 
	C122.075386,407.343201 122.398613,407.497559 122.804703,407.918945 
z"/>
<path fill="#4978C0" opacity="1.000000" stroke="none" 
	d="
M119.198685,426.052856 
	C119.428307,426.003845 119.698296,426.222321 120.014366,426.706940 
	C119.786644,426.755524 119.512848,426.537933 119.198685,426.052856 
z"/>
<path fill="#4978C0" opacity="1.000000" stroke="none" 
	d="
M134.863495,421.881470 
	C134.655746,421.919830 134.394028,421.706635 134.087738,421.236816 
	C134.298615,421.196747 134.554062,421.413330 134.863495,421.881470 
z"/>
<path fill="#4978C0" opacity="1.000000" stroke="none" 
	d="
M135.752655,422.986389 
	C135.507629,423.044678 135.231491,422.826813 134.908707,422.338776 
	C135.148560,422.282471 135.435043,422.496338 135.752655,422.986389 
z"/>
<path fill="#4978C0" opacity="1.000000" stroke="none" 
	d="
M118.314651,424.968628 
	C118.579880,424.897919 118.848145,425.114258 119.173492,425.592529 
	C118.926285,425.654877 118.621986,425.455292 118.314651,424.968628 
z"/>
<path fill="#4978C0" opacity="1.000000" stroke="none" 
	d="
M127.863190,412.845886 
	C127.654846,412.918610 127.355988,412.742462 126.975418,412.310516 
	C127.186699,412.235474 127.479683,412.416229 127.863190,412.845886 
z"/>
</svg>